<svg width="433" height="433" viewBox="0 0 433 433" fill="none" xmlns="http://www.w3.org/2000/svg">
<path d="M209.506 425.046C324.697 429.069 421.339 338.949 425.362 223.757C429.385 108.566 339.264 11.9238 224.073 7.90122C108.882 3.87865 12.2395 93.9988 8.21698 209.19C4.1944 324.382 94.3146 421.024 209.506 425.046Z" fill="#FFFAD6"/>
<path d="M209.789 416.943C320.505 420.81 413.393 334.191 417.259 223.474C421.126 112.758 334.507 19.8704 223.79 16.0041C113.074 12.1378 20.1863 98.7569 16.32 209.473C12.4537 320.19 99.0728 413.077 209.789 416.943Z" fill="#773A12"/>
<path d="M210.212 409.146C316.536 412.859 405.739 329.676 409.452 223.352C413.164 117.028 329.982 27.825 223.657 24.1121C117.333 20.3991 28.1306 103.582 24.4177 209.906C20.7047 316.23 103.888 405.433 210.212 409.146Z" fill="#FFFAD6"/>
<path d="M66.3462 240.045C65.6488 239.456 64.9252 238.951 65.7391 236.192C66.3062 234.369 67.062 232.61 67.9942 230.944C67.9942 230.944 67.8886 230.562 67.661 229.955C67.1975 228.729 66.4318 226.878 67.5784 225.782C68.5008 224.944 70.0172 224.915 70.0172 224.915C70.0172 224.915 76.5414 209.754 84.2498 198.009C91.9582 186.263 98.7892 178.046 102.465 178.416C104.023 178.571 102.256 181.239 99.7431 184.796C96.3768 189.559 92.2945 196.725 86.2763 206.261C82.7555 211.84 77.2259 222.279 77.2259 222.279C77.2259 222.279 73.6542 228.707 75.6968 231.972C77.7394 235.236 92.74 233.072 102.685 228.526C112.63 223.98 127.06 214.972 125.797 198.154C124.533 181.336 106.147 170.674 87.5304 170.374C68.9135 170.073 53.4441 174.221 48.7173 186.959C43.9904 199.698 60.7961 210.639 60.8669 212.664C60.9376 214.69 37.8823 199.812 44.8825 183.085C51.8827 166.357 81.0576 164.675 97.0245 166.752C112.991 168.829 133.004 179.786 133.582 198.425C134.159 217.065 119.073 229.756 104.481 235.523C89.8881 241.291 79.0918 241.081 75.3611 239.733C71.6303 238.386 71.7598 237.696 71.329 237.557C70.8983 237.418 71.4979 236.632 70.5029 239.768C69.5079 242.905 67.0436 240.633 66.3462 240.045Z" fill="#773A12"/>
<path d="M129.684 222.392C126.364 226.319 121.776 236.16 126.854 236.979C131.933 237.798 138.478 232.628 141.681 230.004C144.885 227.379 147.022 222.978 146.958 224.81C146.894 226.641 144.791 236.656 148.9 238.062C153.008 239.467 156.09 236.239 156.895 232.33C157.7 228.421 149.665 238.512 150.654 231.23C151.644 223.947 151.196 221.517 150.02 220.019C148.844 218.521 145.992 219.879 145.992 219.879C146.121 218.888 146.072 217.882 145.848 216.908C145.358 215.164 143.83 213.467 140.949 214.071C138.033 214.739 135.385 216.269 133.349 218.462C133.349 218.462 139.127 217.912 140.966 217.228C142.804 216.544 143.561 220.353 143.478 221.095C143.395 221.837 142.301 224.51 138.584 227.308C134.868 230.107 130.856 232.476 130.053 231.392C129.249 230.308 130.918 226.891 134.899 222.061C138.88 217.23 141.667 217.107 141.667 217.107L134.523 217.318C134.523 217.318 133.004 218.464 129.684 222.392Z" fill="#773A12"/>
<path d="M216.612 235.904C218.554 227.786 200.081 242.134 194.894 266.477C189.708 290.82 206.924 295.16 222.621 291.813C238.318 288.466 262.032 272.461 269.277 265.867C276.523 259.274 283.884 250.538 283.884 250.538C283.884 250.538 273.759 268.205 266.562 295.125C259.364 322.045 262.573 327.2 268.533 325.462C274.494 323.725 270.577 319.59 270.166 316.342C269.756 313.095 270.952 300.505 282.944 273.371C294.936 246.237 308.547 224.087 319.988 209.158C331.429 194.229 353.218 168.181 366.61 145.019C380.002 121.857 379.552 106.477 368.47 113.163C357.388 119.849 343.683 148.157 343.683 148.157L369.06 120.457C369.06 120.457 363.925 136.832 353.48 152.85C348.352 160.715 343.582 167.716 339.731 172.721C336.113 177.424 332.575 181.567 332.575 181.567C332.575 181.567 333.315 179.192 333.71 178.125C334.104 177.058 355.186 142.806 355.186 142.806L369.8 119.032L350.901 135.012C350.901 135.012 326.521 177.88 305.957 208.743C285.392 239.606 259.414 263.652 259.414 263.652C259.414 263.652 230.566 287.681 211.364 283.675C199.478 281.196 203.406 263.121 208.687 250.242C211.76 242.749 215.002 242.196 216.612 235.904Z" fill="#773A12"/>
<path d="M230.133 209.012C232.756 210.7 232.59 216.023 230.167 219.198C227.745 222.374 223.656 223.58 221.033 221.892C218.409 220.203 218.575 214.881 220.997 211.705C223.419 208.529 227.509 207.323 230.133 209.012Z" fill="#773A12"/>
<path d="M341.672 127.773C343.552 120.373 338.244 111.745 329.137 96.0399C320.688 81.475 307.049 66.9003 286.187 65.6526C243.172 63.0801 213.418 116.604 192.71 166.715C172.001 216.826 150.513 288.155 150.513 288.155C150.513 288.155 144.232 315.721 128.471 323.769C112.71 331.817 91.1394 322.521 68.4214 297.56C45.7035 272.6 52.0636 257.305 63.3714 257.399C74.6792 257.493 101.376 268.491 151.606 293.958C201.837 319.424 262.103 352.181 322.755 336.132C383.407 320.083 392.129 277.034 387.196 266.517C382.263 256 391.588 281.95 360.221 307.838C328.854 333.725 271.882 341.549 203.85 308.675C135.819 275.8 98.5057 249.205 69.9422 247.806C41.3786 246.408 40.1743 264.951 40.0452 270.008C39.9162 275.066 42.0828 288.858 67.964 312.566C93.8452 336.274 114.357 340.507 131.659 332.894C148.961 325.281 158.494 292.285 158.494 292.285C158.494 292.285 187.434 203.612 193.307 189.846C199.181 176.08 226.289 99.8873 266.358 79.6444C286.153 69.6442 304.048 78.1852 318.153 93.5782C332.295 109.011 339.792 135.174 341.672 127.773Z" fill="#773A12"/>
<path d="M310.45 259.3C300.536 271.834 298.845 276.968 296.925 284.203C295.006 291.438 301.536 293.724 307.389 293.735C313.243 293.745 323.994 290.837 348.334 272.351C364.74 259.891 370.708 248.984 370.913 242.946C370.843 240.95 369.06 240.516 371.662 239.015C373.272 238.086 376.194 238.784 378.757 238.256C381.321 237.727 380.769 237.596 381.914 236.899C384.919 235.071 367.73 234.942 367.73 234.942L353.243 234.755C353.243 234.755 347.378 229.772 342.293 230.532C337.209 231.291 334.414 234.206 334.414 234.206L332.719 234.794C332.719 234.794 330.518 234.844 327.798 234.803C324.948 234.758 321.333 234.688 320.019 235.531C319.656 235.828 319.403 236.239 319.3 236.697C319.197 237.156 319.251 237.635 319.453 238.059C320.35 239.662 324.572 241.342 324.966 242.103C325.502 243.136 315.992 252.764 315.992 252.764L327.67 248.425C327.67 248.425 327.117 248.695 335.483 243.413C343.849 238.131 363.515 239.782 363.076 244.229C362.637 248.677 356.991 257.038 337.348 271.965C317.705 286.892 306.666 286.606 305.945 282.575C305.224 278.544 309.425 271.433 318.664 260.503C327.903 249.574 339.54 240.463 339.54 240.463L326.241 241.702C326.241 241.702 320.365 246.767 310.45 259.3Z" fill="#773A12"/>
</svg>
