<svg width="909" height="488" viewBox="0 0 909 488" fill="none" xmlns="http://www.w3.org/2000/svg">
<path d="M761.539 342.85C734.839 343.05 714.839 330.05 698.239 311.95C695.039 308.35 691.939 303.55 689.139 298.15C674.839 271.15 671.039 239.85 677.539 209.95C688.239 160.95 711.639 73.15 752.339 8.94998C756.639 2.14998 766.539 2.14998 770.839 8.94998C811.439 73.15 834.839 160.95 845.639 209.95C852.139 239.75 848.239 271.15 834.039 298.15C831.239 303.45 828.139 308.25 824.939 311.95C808.239 330.05 788.239 343.05 761.539 342.85Z" fill="#FF6550"/>
<path opacity="0.4" d="M844.439 209.95C833.739 160.95 810.339 73.15 769.639 8.94997C766.439 3.94997 760.139 2.64998 755.339 5.14998C759.139 8.24998 762.339 12.25 764.739 17.15C795.839 80.55 814.739 153.15 824.339 197.05C831.439 229.35 827.239 263.15 811.939 292.45C808.739 298.55 805.339 304.05 801.639 308.25C786.039 325.25 767.639 338.25 744.239 341.35C749.339 342.45 754.639 342.95 760.339 342.95C787.039 343.15 807.039 330.15 823.639 312.05C826.839 308.45 829.939 303.65 832.739 298.25C847.139 271.15 851.039 239.85 844.439 209.95Z" fill="#FF7364"/>
<path d="M761.539 342.85C734.839 343.05 714.839 330.05 698.239 311.95C695.039 308.35 691.939 303.55 689.139 298.15C674.839 271.15 671.039 239.85 677.539 209.95C688.239 160.95 711.639 73.15 752.339 8.94998C756.639 2.14998 766.539 2.14998 770.839 8.94998C811.439 73.15 834.839 160.95 845.639 209.95C852.139 239.75 848.239 271.15 834.039 298.15C831.239 303.45 828.139 308.25 824.939 311.95C808.239 330.05 788.239 343.05 761.539 342.85Z" stroke="#58290A" stroke-width="6" stroke-miterlimit="10" stroke-linecap="round" stroke-linejoin="round"/>
<path d="M761.539 286.05L803.539 255.75" stroke="#58290A" stroke-width="6" stroke-miterlimit="10" stroke-linecap="round" stroke-linejoin="round"/>
<path d="M761.539 244.05L724.039 215.05" stroke="#58290A" stroke-width="6" stroke-miterlimit="10" stroke-linecap="round" stroke-linejoin="round"/>
<path d="M668.439 370.85H604.539C585.739 370.85 570.439 355.55 570.439 336.75V216.75C570.439 197.95 585.739 182.65 604.539 182.65H668.339C687.139 182.65 702.439 197.95 702.439 216.75V336.75C702.539 355.55 687.239 370.85 668.439 370.85Z" fill="#E97E1C"/>
<path opacity="0.74" d="M667.439 182.65H652.439C671.239 182.65 686.539 197.95 686.539 216.75V336.75C686.539 355.55 671.239 370.85 652.439 370.85H667.439C686.239 370.85 701.539 355.55 701.539 336.75V216.75C701.539 197.85 686.239 182.65 667.439 182.65Z" fill="#E8531F"/>
<path d="M668.439 370.85H604.539C585.739 370.85 570.439 355.55 570.439 336.75V216.75C570.439 197.95 585.739 182.65 604.539 182.65H668.339C687.139 182.65 702.439 197.95 702.439 216.75V336.75C702.539 355.55 687.239 370.85 668.439 370.85Z" stroke="#58290A" stroke-width="6" stroke-miterlimit="10" stroke-linecap="round" stroke-linejoin="round"/>
<path d="M636.539 342.85L664.539 317.05" stroke="#58290A" stroke-width="6" stroke-miterlimit="10" stroke-linecap="round" stroke-linejoin="round"/>
<path d="M636.539 300.05L605.539 286.05" stroke="#58290A" stroke-width="6" stroke-miterlimit="10" stroke-linecap="round" stroke-linejoin="round"/>
<path d="M761.539 455.05V173.05" stroke="#58290A" stroke-width="6" stroke-miterlimit="10" stroke-linecap="round" stroke-linejoin="round"/>
<path d="M636.539 256.05V455.05" stroke="#58290A" stroke-width="6" stroke-miterlimit="10" stroke-linecap="round" stroke-linejoin="round"/>
<path d="M162.239 343.85C195.376 343.85 222.239 272.215 222.239 183.85C222.239 95.484 195.376 23.85 162.239 23.85C129.102 23.85 102.239 95.484 102.239 183.85C102.239 272.215 129.102 343.85 162.239 343.85Z" fill="#FFB845"/>
<path opacity="0.53" d="M162.239 23.85C161.739 23.85 161.239 23.85 160.639 23.95C188.339 38.15 209.239 103.05 209.239 181.05C209.239 268.05 183.239 338.75 150.839 340.95C154.539 342.85 158.339 343.85 162.239 343.85C195.339 343.85 222.239 272.25 222.239 183.85C222.239 95.45 195.339 23.85 162.239 23.85Z" fill="#D89535"/>
<path d="M162.239 343.85C195.376 343.85 222.239 272.215 222.239 183.85C222.239 95.484 195.376 23.85 162.239 23.85C129.102 23.85 102.239 95.484 102.239 183.85C102.239 272.215 129.102 343.85 162.239 343.85Z" stroke="#58290A" stroke-width="6" stroke-miterlimit="10" stroke-linecap="round" stroke-linejoin="round"/>
<path d="M161.939 131.05V444.05" stroke="#58290A" stroke-width="6" stroke-miterlimit="10" stroke-linecap="round" stroke-linejoin="round"/>
<path d="M162.239 229.05L185.939 198.05" stroke="#58290A" stroke-width="6" stroke-miterlimit="10" stroke-linecap="round" stroke-linejoin="round"/>
<path d="M162.239 290.05L136.639 263.35" stroke="#58290A" stroke-width="6" stroke-miterlimit="10" stroke-linecap="round" stroke-linejoin="round"/>
<path d="M161.939 183.35L141.239 160.05" stroke="#58290A" stroke-width="6" stroke-miterlimit="10" stroke-linecap="round" stroke-linejoin="round"/>
<path opacity="0.6" d="M192.239 165.95C196.823 165.95 200.539 162.234 200.539 157.65C200.539 153.066 196.823 149.35 192.239 149.35C187.655 149.35 183.939 153.066 183.939 157.65C183.939 162.234 187.655 165.95 192.239 165.95Z" fill="#EF8C3A"/>
<path d="M136.639 124.35C139.566 124.35 141.939 121.977 141.939 119.05C141.939 116.123 139.566 113.75 136.639 113.75C133.712 113.75 131.339 116.123 131.339 119.05C131.339 121.977 133.712 124.35 136.639 124.35Z" fill="#FFD766"/>
<path d="M171.139 112.15C173.624 112.15 175.639 110.135 175.639 107.65C175.639 105.164 173.624 103.15 171.139 103.15C168.654 103.15 166.639 105.164 166.639 107.65C166.639 110.135 168.654 112.15 171.139 112.15Z" fill="#FFD766"/>
<path opacity="0.38" d="M607.339 233.95C612.972 233.95 617.539 229.383 617.539 223.75C617.539 218.117 612.972 213.55 607.339 213.55C601.706 213.55 597.139 218.117 597.139 223.75C597.139 229.383 601.706 233.95 607.339 233.95Z" fill="#FFB845"/>
<path opacity="0.38" d="M639.339 236.95C643.371 236.95 646.639 233.682 646.639 229.65C646.639 225.618 643.371 222.35 639.339 222.35C635.307 222.35 632.039 225.618 632.039 229.65C632.039 233.682 635.307 236.95 639.339 236.95Z" fill="#FFB845"/>
<path opacity="0.74" d="M607.339 327.85C611.371 327.85 614.639 324.582 614.639 320.55C614.639 316.519 611.371 313.25 607.339 313.25C603.307 313.25 600.039 316.519 600.039 320.55C600.039 324.582 603.307 327.85 607.339 327.85Z" fill="#E8531F"/>
<path opacity="0.74" d="M661.039 268.25C664.408 268.25 667.139 265.519 667.139 262.15C667.139 258.781 664.408 256.05 661.039 256.05C657.67 256.05 654.939 258.781 654.939 262.15C654.939 265.519 657.67 268.25 661.039 268.25Z" fill="#E8531F"/>
<path opacity="0.6" d="M130.539 221.85C135.123 221.85 138.839 218.134 138.839 213.55C138.839 208.966 135.123 205.25 130.539 205.25C125.955 205.25 122.239 208.966 122.239 213.55C122.239 218.134 125.955 221.85 130.539 221.85Z" fill="#EF8C3A"/>
<path opacity="0.6" d="M149.239 97.6501C153.823 97.6501 157.539 93.934 157.539 89.35C157.539 84.766 153.823 81.05 149.239 81.05C144.655 81.05 140.939 84.766 140.939 89.35C140.939 93.934 144.655 97.6501 149.239 97.6501Z" fill="#EF8C3A"/>
<path opacity="0.6" d="M186.239 263.65C190.823 263.65 194.539 259.934 194.539 255.35C194.539 250.766 190.823 247.05 186.239 247.05C181.655 247.05 177.939 250.766 177.939 255.35C177.939 259.934 181.655 263.65 186.239 263.65Z" fill="#EF8C3A"/>
<path d="M215.839 107.55C228.652 107.55 239.039 97.1629 239.039 84.3499C239.039 71.5369 228.652 61.1499 215.839 61.1499C203.026 61.1499 192.639 71.5369 192.639 84.3499C192.639 97.1629 203.026 107.55 215.839 107.55Z" fill="#FF9F48"/>
<path d="M215.839 61.1499C215.639 61.1499 215.539 61.1499 215.339 61.1499C222.039 65.2499 226.539 72.6499 226.539 81.0499C226.539 93.6499 216.439 103.95 203.839 104.25C207.339 106.35 211.439 107.55 215.839 107.55C228.639 107.55 239.039 97.1499 239.039 84.3499C239.039 71.5499 228.639 61.1499 215.839 61.1499Z" fill="#EF8C3A"/>
<path d="M215.839 107.55C228.652 107.55 239.039 97.1629 239.039 84.3499C239.039 71.5369 228.652 61.1499 215.839 61.1499C203.026 61.1499 192.639 71.5369 192.639 84.3499C192.639 97.1629 203.026 107.55 215.839 107.55Z" stroke="#58290A" stroke-width="6" stroke-miterlimit="10" stroke-linecap="round" stroke-linejoin="round"/>
<path d="M603.039 455.05C603.039 428.85 624.239 407.75 650.339 407.75C676.439 407.75 697.639 428.85 697.639 455.05H603.039Z" fill="#FF6550"/>
<path opacity="0.4" d="M650.339 407.75C645.439 407.75 640.839 408.45 636.339 409.85C655.639 415.75 669.639 433.75 669.639 455.05H697.539C697.639 428.85 676.439 407.75 650.339 407.75Z" fill="#FF7364"/>
<path d="M603.039 455.05C603.039 428.85 624.239 407.75 650.339 407.75C676.439 407.75 697.639 428.85 697.639 455.05H603.039Z" stroke="#58290A" stroke-width="6" stroke-miterlimit="10" stroke-linecap="round" stroke-linejoin="round"/>
<path d="M674.439 455.05C674.439 437.65 688.439 423.75 705.739 423.75C723.039 423.75 737.039 437.75 737.039 455.05H674.439Z" fill="#FFB845"/>
<path opacity="0.53" d="M705.739 423.75C703.239 423.75 700.839 424.05 698.539 424.55C712.339 427.75 722.739 440.15 722.739 455.05H737.139C737.139 437.65 723.039 423.75 705.739 423.75Z" fill="#D89535"/>
<path d="M674.439 455.05C674.439 437.65 688.439 423.75 705.739 423.75C723.039 423.75 737.039 437.75 737.039 455.05H674.439Z" stroke="#58290A" stroke-width="6" stroke-miterlimit="10" stroke-linecap="round" stroke-linejoin="round"/>
<path d="M747.139 455.05C747.139 442.35 757.339 432.25 769.939 432.25C782.539 432.25 792.739 442.45 792.739 455.05H747.139Z" fill="#FFB845"/>
<path d="M747.139 455.05C747.139 442.35 757.339 432.25 769.939 432.25C782.539 432.25 792.739 442.45 792.739 455.05H747.139Z" stroke="#58290A" stroke-width="6" stroke-miterlimit="10" stroke-linecap="round" stroke-linejoin="round"/>
<path d="M194.239 455.05C194.239 442.45 204.439 432.25 217.039 432.25C229.639 432.25 239.839 442.45 239.839 455.05H194.239Z" fill="#FFB845"/>
<path d="M194.239 455.05C194.239 442.45 204.439 432.25 217.039 432.25C229.639 432.25 239.839 442.45 239.839 455.05H194.239Z" stroke="#58290A" stroke-width="6" stroke-miterlimit="10" stroke-linecap="round" stroke-linejoin="round"/>
<path d="M309.439 455.05C309.439 446.95 315.939 440.45 324.039 440.45C332.139 440.45 338.639 446.95 338.639 455.05H309.439Z" fill="#58290A"/>
<path d="M283.839 453.75C283.839 447.05 289.239 441.65 295.939 441.65C302.639 441.65 308.039 447.05 308.039 453.75H283.839Z" fill="#58290A"/>
<path d="M309.439 455.05C309.439 446.95 315.939 440.45 324.039 440.45C332.139 440.45 338.639 446.95 338.639 455.05H309.439Z" stroke="#58290A" stroke-width="6" stroke-miterlimit="10" stroke-linecap="round" stroke-linejoin="round"/>
<path d="M346.339 455.05C346.339 442.45 356.539 432.25 369.139 432.25C381.739 432.25 391.939 442.45 391.939 455.05H346.339Z" fill="#58290A"/>
<path d="M540.639 454.35C540.639 445.65 547.639 438.65 556.339 438.65C565.039 438.65 572.039 445.65 572.039 454.35H540.639Z" fill="#58290A"/>
<path d="M499.639 454.35C499.639 442.95 508.939 433.65 520.339 433.65C531.739 433.65 541.039 442.95 541.039 454.35H499.639Z" fill="#58290A"/>
<path d="M346.339 455.05C346.339 442.45 356.539 432.25 369.139 432.25C381.739 432.25 391.939 442.45 391.939 455.05H346.339Z" stroke="#58290A" stroke-width="6" stroke-miterlimit="10" stroke-linecap="round" stroke-linejoin="round"/>
<path d="M487.239 455.05H832.939" stroke="#58290A" stroke-width="6" stroke-miterlimit="10" stroke-linecap="round" stroke-linejoin="round"/>
<path d="M444.939 455.05H469.939" stroke="#58290A" stroke-width="6" stroke-miterlimit="10" stroke-linecap="round" stroke-linejoin="round"/>
<path d="M69.939 455.05H429.939" stroke="#58290A" stroke-width="6" stroke-miterlimit="10" stroke-linecap="round" stroke-linejoin="round"/>
<path d="M313.539 405.55H293.539V455.05H313.539V405.55Z" fill="#81440E"/>
<path d="M313.539 405.55H293.539V455.05H313.539V405.55Z" fill="#81440E"/>
<path d="M313.539 405.55H293.539V420.75H313.539V405.55Z" fill="#663717"/>
<path d="M520.339 405.55H500.339V455.05H520.339V405.55Z" fill="#81440E"/>
<path d="M520.339 405.55H500.339V420.75H520.339V405.55Z" fill="#663717"/>
<path d="M313.539 405.55H293.539V455.05H313.539V405.55Z" stroke="#58290A" stroke-width="6" stroke-miterlimit="10" stroke-linecap="round" stroke-linejoin="round"/>
<path d="M520.339 405.55H500.339V455.05H520.339V405.55Z" stroke="#58290A" stroke-width="6" stroke-miterlimit="10" stroke-linecap="round" stroke-linejoin="round"/>
<path d="M320.439 276.95H306.439V383.05H320.439V276.95Z" fill="#81440E"/>
<path d="M320.439 298.25H306.439V366.05H320.439V298.25Z" fill="#663717"/>
<path d="M320.439 276.95H306.439V383.05H320.439V276.95Z" stroke="#58290A" stroke-width="6" stroke-miterlimit="10" stroke-linecap="round" stroke-linejoin="round"/>
<path d="M507.439 276.95H493.439V383.05H507.439V276.95Z" fill="#81440E"/>
<path d="M507.439 293.05H493.439V366.05H507.439V293.05Z" fill="#663717"/>
<path d="M507.439 276.95H493.439V383.05H507.439V276.95Z" stroke="#58290A" stroke-width="6" stroke-miterlimit="10" stroke-linecap="round" stroke-linejoin="round"/>
<path d="M540.739 293.151H260.739V323.151H540.739V293.151Z" fill="#81440E"/>
<path d="M540.739 293.151H260.739V303.351H540.739V293.151Z" fill="#A05720"/>
<path d="M540.739 293.151H260.739V323.151H540.739V293.151Z" stroke="#58290A" stroke-width="6" stroke-miterlimit="10" stroke-linecap="round" stroke-linejoin="round"/>
<path d="M540.739 323.151H260.739V353.151H540.739V323.151Z" fill="#81440E"/>
<path d="M540.739 323.151H260.739V332.851H540.739V323.151Z" fill="#A05720"/>
<path d="M540.739 323.151H260.739V353.151H540.739V323.151Z" stroke="#58290A" stroke-width="6" stroke-miterlimit="10" stroke-linecap="round" stroke-linejoin="round"/>
<path d="M575.139 385.55H238.739V405.55H575.139V385.55Z" fill="#81440E"/>
<path d="M575.139 385.55H238.739V405.55H575.139V385.55Z" fill="#81440E"/>
<path d="M575.139 385.55H238.739V393.55H575.139V385.55Z" fill="#A05720"/>
<path d="M575.139 385.55H238.739V405.55H575.139V385.55Z" stroke="#58290A" stroke-width="6" stroke-miterlimit="10" stroke-linecap="round" stroke-linejoin="round"/>
<path d="M314.739 314.55C317.666 314.55 320.039 312.177 320.039 309.25C320.039 306.323 317.666 303.95 314.739 303.95C311.812 303.95 309.439 306.323 309.439 309.25C309.439 312.177 311.812 314.55 314.739 314.55Z" fill="#663717"/>
<path d="M314.739 342.35C317.666 342.35 320.039 339.977 320.039 337.05C320.039 334.123 317.666 331.75 314.739 331.75C311.812 331.75 309.439 334.123 309.439 337.05C309.439 339.977 311.812 342.35 314.739 342.35Z" fill="#663717"/>
<path d="M501.739 314.55C504.666 314.55 507.039 312.177 507.039 309.25C507.039 306.323 504.666 303.95 501.739 303.95C498.812 303.95 496.439 306.323 496.439 309.25C496.439 312.177 498.812 314.55 501.739 314.55Z" fill="#663717"/>
<path d="M501.739 342.35C504.666 342.35 507.039 339.977 507.039 337.05C507.039 334.123 504.666 331.75 501.739 331.75C498.812 331.75 496.439 334.123 496.439 337.05C496.439 339.977 498.812 342.35 501.739 342.35Z" fill="#663717"/>
<path d="M313.439 313.25C315.648 313.25 317.439 311.459 317.439 309.25C317.439 307.041 315.648 305.25 313.439 305.25C311.23 305.25 309.439 307.041 309.439 309.25C309.439 311.459 311.23 313.25 313.439 313.25Z" fill="#58290A"/>
<path d="M313.439 341.05C315.648 341.05 317.439 339.259 317.439 337.05C317.439 334.841 315.648 333.05 313.439 333.05C311.23 333.05 309.439 334.841 309.439 337.05C309.439 339.259 311.23 341.05 313.439 341.05Z" fill="#58290A"/>
<path d="M500.439 313.25C502.648 313.25 504.439 311.459 504.439 309.25C504.439 307.041 502.648 305.25 500.439 305.25C498.23 305.25 496.439 307.041 496.439 309.25C496.439 311.459 498.23 313.25 500.439 313.25Z" fill="#58290A"/>
<path d="M500.439 341.05C502.648 341.05 504.439 339.259 504.439 337.05C504.439 334.841 502.648 333.05 500.439 333.05C498.23 333.05 496.439 334.841 496.439 337.05C496.439 339.259 498.23 341.05 500.439 341.05Z" fill="#58290A"/>
<path d="M556.339 484.15H562.439" stroke="#58290A" stroke-width="6" stroke-miterlimit="10" stroke-linecap="round" stroke-linejoin="round"/>
<path d="M403.239 484.15H536.639" stroke="#58290A" stroke-width="6" stroke-miterlimit="10" stroke-linecap="round" stroke-linejoin="round"/>
<path d="M356.939 484.15H379.839" stroke="#58290A" stroke-width="6" stroke-miterlimit="10" stroke-linecap="round" stroke-linejoin="round"/>
<path d="M573.439 61.1499H584.939" stroke="#58290A" stroke-width="6" stroke-miterlimit="10" stroke-linecap="round" stroke-linejoin="round"/>
<path d="M605.939 61.1499H642.439" stroke="#58290A" stroke-width="6" stroke-miterlimit="10" stroke-linecap="round" stroke-linejoin="round"/>
<path d="M3.03894 137.25H37.5389" stroke="#58290A" stroke-width="6" stroke-miterlimit="10" stroke-linecap="round" stroke-linejoin="round"/>
<path d="M53.839 137.25H72.039" stroke="#58290A" stroke-width="6" stroke-miterlimit="10" stroke-linecap="round" stroke-linejoin="round"/>
<path d="M898.739 128.15H905.539" stroke="#58290A" stroke-width="6" stroke-miterlimit="10" stroke-linecap="round" stroke-linejoin="round"/>
<path d="M863.139 128.15H882.839" stroke="#58290A" stroke-width="6" stroke-miterlimit="10" stroke-linecap="round" stroke-linejoin="round"/>
<path d="M612.139 97.75H672.739" stroke="#58290A" stroke-width="6" stroke-miterlimit="10" stroke-linecap="round" stroke-linejoin="round"/>
<path d="M360.539 114.65C360.439 113.85 360.339 112.95 360.339 112.05C360.339 103.15 367.539 95.8501 376.539 95.8501C385.439 95.8501 392.739 103.05 392.739 112.05C392.739 120.95 385.539 128.25 376.539 128.25" stroke="#58290A" stroke-width="6" stroke-miterlimit="10" stroke-linecap="round" stroke-linejoin="round"/>
<path d="M307.339 128.15H376.539" stroke="#58290A" stroke-width="6" stroke-miterlimit="10" stroke-linecap="round" stroke-linejoin="round"/>
<path d="M831.039 83.6501C830.939 82.8501 830.839 81.9501 830.839 81.0501C830.839 72.1501 838.039 64.8501 847.039 64.8501C856.039 64.8501 863.239 72.0501 863.239 81.0501C863.239 90.0501 856.039 97.2501 847.039 97.2501" stroke="#58290A" stroke-width="6" stroke-miterlimit="10" stroke-linecap="round" stroke-linejoin="round"/>
<path d="M787.939 97.25H846.939" stroke="#58290A" stroke-width="6" stroke-miterlimit="10" stroke-linecap="round" stroke-linejoin="round"/>
<path d="M402.839 171.15C402.739 171.95 402.639 172.85 402.639 173.75C402.639 182.65 409.839 189.95 418.839 189.95C427.839 189.95 435.039 182.75 435.039 173.75C435.039 164.75 427.839 157.55 418.839 157.55" stroke="#58290A" stroke-width="6" stroke-miterlimit="10" stroke-linecap="round" stroke-linejoin="round"/>
<path d="M357.139 157.65H418.739" stroke="#58290A" stroke-width="6" stroke-miterlimit="10" stroke-linecap="round" stroke-linejoin="round"/>
<path d="M334.939 157.65H342.239" stroke="#58290A" stroke-width="6" stroke-miterlimit="10" stroke-linecap="round" stroke-linejoin="round"/>
<path d="M281.239 157.65H316.939" stroke="#58290A" stroke-width="6" stroke-miterlimit="10" stroke-linecap="round" stroke-linejoin="round"/>
<path d="M321.839 108.15H257.739" stroke="#58290A" stroke-width="6" stroke-miterlimit="10" stroke-linecap="round" stroke-linejoin="round"/>
<path d="M53.839 89.1499H78.039" stroke="#58290A" stroke-width="6" stroke-miterlimit="10" stroke-linecap="round" stroke-linejoin="round"/>
<path d="M846.239 232.35C859.383 232.35 870.039 221.695 870.039 208.55C870.039 195.406 859.383 184.75 846.239 184.75C833.095 184.75 822.439 195.406 822.439 208.55C822.439 221.695 833.095 232.35 846.239 232.35Z" fill="#EF4D3C"/>
<path d="M846.239 232.35C859.383 232.35 870.039 221.695 870.039 208.55C870.039 195.406 859.383 184.75 846.239 184.75C833.095 184.75 822.439 195.406 822.439 208.55C822.439 221.695 833.095 232.35 846.239 232.35Z" stroke="#58290A" stroke-width="6" stroke-miterlimit="10" stroke-linecap="round" stroke-linejoin="round"/>
<path d="M122.239 455.05C141.182 455.05 156.539 429.933 156.539 398.95C156.539 367.967 141.182 342.85 122.239 342.85C103.296 342.85 87.939 367.967 87.939 398.95C87.939 429.933 103.296 455.05 122.239 455.05Z" fill="#E97E1C"/>
<path opacity="0.74" d="M122.239 342.85C121.439 342.85 120.639 342.95 119.939 342.95C133.339 350.55 142.939 371.45 142.939 395.85C142.939 425.55 128.839 449.85 110.939 451.75C114.439 453.75 118.339 454.85 122.239 454.85C141.139 454.85 156.539 429.75 156.539 398.75C156.539 367.95 141.139 342.85 122.239 342.85Z" fill="#E8531F"/>
<path d="M122.239 455.05C141.182 455.05 156.539 429.933 156.539 398.95C156.539 367.967 141.182 342.85 122.239 342.85C103.296 342.85 87.939 367.967 87.939 398.95C87.939 429.933 103.296 455.05 122.239 455.05Z" stroke="#58290A" stroke-width="6" stroke-miterlimit="10" stroke-linecap="round" stroke-linejoin="round"/>
<path d="M125.839 455.05C125.839 436.05 141.139 420.75 160.139 420.75C179.139 420.75 194.439 436.05 194.439 455.05H125.839Z" fill="#FF6550"/>
<path opacity="0.4" d="M160.039 420.75C157.039 420.75 154.239 421.15 151.439 421.85C166.239 425.65 177.139 439.05 177.139 455.05H194.339C194.339 436.05 178.939 420.75 160.039 420.75Z" fill="#FF7364"/>
<path d="M125.839 455.05C125.839 436.05 141.139 420.75 160.139 420.75C179.139 420.75 194.439 436.05 194.439 455.05H125.839Z" stroke="#58290A" stroke-width="6" stroke-miterlimit="10" stroke-linecap="round" stroke-linejoin="round"/>
<path opacity="0.91" d="M750.739 118.95C755.102 118.95 758.639 115.413 758.639 111.05C758.639 106.687 755.102 103.15 750.739 103.15C746.376 103.15 742.839 106.687 742.839 111.05C742.839 115.413 746.376 118.95 750.739 118.95Z" fill="#FF6550"/>
<path opacity="0.91" d="M734.239 157.65C739.872 157.65 744.439 153.083 744.439 147.45C744.439 141.817 739.872 137.25 734.239 137.25C728.606 137.25 724.039 141.817 724.039 147.45C724.039 153.083 728.606 157.65 734.239 157.65Z" fill="#FF6550"/>
<path opacity="0.91" d="M787.939 239.25C793.572 239.25 798.139 234.683 798.139 229.05C798.139 223.417 793.572 218.85 787.939 218.85C782.306 218.85 777.739 223.417 777.739 229.05C777.739 234.683 782.306 239.25 787.939 239.25Z" fill="#FF6550"/>
<path opacity="0.4" d="M792.739 183.95C798.372 183.95 802.939 179.383 802.939 173.75C802.939 168.117 798.372 163.55 792.739 163.55C787.106 163.55 782.539 168.117 782.539 173.75C782.539 179.383 787.106 183.95 792.739 183.95Z" fill="#FF7364"/>
<path opacity="0.38" d="M119.239 393.85C123.823 393.85 127.539 390.134 127.539 385.55C127.539 380.966 123.823 377.25 119.239 377.25C114.655 377.25 110.939 380.966 110.939 385.55C110.939 390.134 114.655 393.85 119.239 393.85Z" fill="#FFB845"/>
<path opacity="0.6" d="M107.139 404.75C109.845 404.75 112.039 402.557 112.039 399.85C112.039 397.144 109.845 394.95 107.139 394.95C104.433 394.95 102.239 397.144 102.239 399.85C102.239 402.557 104.433 404.75 107.139 404.75Z" fill="#E8531F"/>
<path opacity="0.38" d="M127.539 418.95C130.742 418.95 133.339 416.353 133.339 413.15C133.339 409.947 130.742 407.35 127.539 407.35C124.336 407.35 121.739 409.947 121.739 413.15C121.739 416.353 124.336 418.95 127.539 418.95Z" fill="#FFB845"/>
</svg>
