<svg width="495" height="682" viewBox="0 0 495 682" fill="none" xmlns="http://www.w3.org/2000/svg">
<path d="M372.188 482.36V503.53H414.597" stroke="#F0E7C4" stroke-width="6" stroke-miterlimit="10" stroke-linecap="round" stroke-linejoin="round"/>
<path d="M329.847 503.53H372.188V482.36" stroke="#F0E7C4" stroke-width="6" stroke-miterlimit="10" stroke-linecap="round" stroke-linejoin="round"/>
<path d="M351.008 524.789H393.417V503.619H351.008V524.789Z" stroke="#F0E7C4" stroke-width="6" stroke-miterlimit="10" stroke-linecap="round" stroke-linejoin="round"/>
<path d="M360.198 545.94H372.188V524.77H329.847" stroke="#F0E7C4" stroke-width="6" stroke-miterlimit="10" stroke-linecap="round" stroke-linejoin="round"/>
<path d="M414.597 524.77H372.188V545.94H406.581" stroke="#F0E7C4" stroke-width="6" stroke-miterlimit="10" stroke-linecap="round" stroke-linejoin="round"/>
<path d="M429.053 503.531H393.427V524.77H414.597" stroke="#F0E7C4" stroke-width="6" stroke-miterlimit="10" stroke-linecap="round" stroke-linejoin="round"/>
<path d="M320.461 524.77H351.018V503.531H336.356" stroke="#F0E7C4" stroke-width="6" stroke-miterlimit="10" stroke-linecap="round" stroke-linejoin="round"/>
<path d="M82.623 338.926V360.096H40.2139" stroke="#F0E7C4" stroke-width="6" stroke-miterlimit="10" stroke-linecap="round" stroke-linejoin="round"/>
<path d="M124.963 360.096H82.6229V338.926" stroke="#F0E7C4" stroke-width="6" stroke-miterlimit="10" stroke-linecap="round" stroke-linejoin="round"/>
<path d="M103.793 360.097H61.3842V381.267H103.793V360.097Z" stroke="#F0E7C4" stroke-width="6" stroke-miterlimit="10" stroke-linecap="round" stroke-linejoin="round"/>
<path d="M94.6126 402.505H82.6229V381.266H124.963" stroke="#F0E7C4" stroke-width="6" stroke-miterlimit="10" stroke-linecap="round" stroke-linejoin="round"/>
<path d="M40.2139 381.266H82.623V402.505H48.2299" stroke="#F0E7C4" stroke-width="6" stroke-miterlimit="10" stroke-linecap="round" stroke-linejoin="round"/>
<path d="M25.7578 360.097H61.3842V381.267H40.2139" stroke="#F0E7C4" stroke-width="6" stroke-miterlimit="10" stroke-linecap="round" stroke-linejoin="round"/>
<path d="M134.35 381.267H103.793V360.097H118.455" stroke="#F0E7C4" stroke-width="6" stroke-miterlimit="10" stroke-linecap="round" stroke-linejoin="round"/>
<path d="M265.107 308.901V287.731H222.698" stroke="#F0E7C4" stroke-width="6" stroke-miterlimit="10" stroke-linecap="round" stroke-linejoin="round"/>
<path d="M307.448 287.731H265.107V308.901" stroke="#F0E7C4" stroke-width="6" stroke-miterlimit="10" stroke-linecap="round" stroke-linejoin="round"/>
<path d="M286.277 287.73H243.868V266.56H286.277V287.73Z" stroke="#F0E7C4" stroke-width="6" stroke-miterlimit="10" stroke-linecap="round" stroke-linejoin="round"/>
<path d="M277.097 245.322H265.107V266.561H307.448" stroke="#F0E7C4" stroke-width="6" stroke-miterlimit="10" stroke-linecap="round" stroke-linejoin="round"/>
<path d="M222.698 266.561H265.107V245.322H230.714" stroke="#F0E7C4" stroke-width="6" stroke-miterlimit="10" stroke-linecap="round" stroke-linejoin="round"/>
<path d="M208.242 287.73H243.868V266.56H222.698" stroke="#F0E7C4" stroke-width="6" stroke-miterlimit="10" stroke-linecap="round" stroke-linejoin="round"/>
<path d="M316.834 266.56H286.277V287.73H300.939" stroke="#F0E7C4" stroke-width="6" stroke-miterlimit="10" stroke-linecap="round" stroke-linejoin="round"/>
<path d="M274.821 111.424C296.011 111.424 313.188 94.2463 313.188 73.0569C313.188 51.8674 296.011 34.6901 274.821 34.6901C253.632 34.6901 236.454 51.8674 236.454 73.0569C236.454 94.2463 253.632 111.424 274.821 111.424Z" stroke="#F0E7C4" stroke-width="6" stroke-miterlimit="10" stroke-linecap="round" stroke-linejoin="round"/>
<path d="M274.821 103.75V107.45" stroke="#F0E7C4" stroke-width="6" stroke-miterlimit="10" stroke-linecap="round" stroke-linejoin="round"/>
<path d="M309.283 73.0569H305.583" stroke="#F0E7C4" stroke-width="6" stroke-miterlimit="10" stroke-linecap="round" stroke-linejoin="round"/>
<path d="M244.128 73.0569H240.359" stroke="#F0E7C4" stroke-width="6" stroke-miterlimit="10" stroke-linecap="round" stroke-linejoin="round"/>
<path d="M274.821 76.14C276.524 76.14 277.904 74.7601 277.904 73.0569C277.904 71.3544 276.524 69.9739 274.821 69.9739C273.119 69.9739 271.738 71.3544 271.738 73.0569C271.738 74.7601 273.119 76.14 274.821 76.14Z" fill="#F0E7C4"/>
<path d="M274.821 73.0569L291.401 52.5718" stroke="#F0E7C4" stroke-width="4" stroke-miterlimit="10" stroke-linecap="round" stroke-linejoin="round"/>
<path d="M264.407 62.78L274.821 73.0569" stroke="#F0E7C4" stroke-width="6" stroke-miterlimit="10" stroke-linecap="round" stroke-linejoin="round"/>
<path d="M104.278 68.1013H19.8029V153.947H104.278V68.1013Z" stroke="#F0E7C4" stroke-width="8" stroke-miterlimit="10" stroke-linecap="round" stroke-linejoin="round"/>
<path d="M92.4901 140.735V81.4722H31.5828V140.735H92.4901Z" stroke="#F0E7C4" stroke-width="4" stroke-miterlimit="10" stroke-linecap="round" stroke-linejoin="round"/>
<path d="M199.305 40.765H124.901V94.0674H199.305V40.765Z" stroke="#F0E7C4" stroke-width="8" stroke-miterlimit="10" stroke-linecap="round" stroke-linejoin="round"/>
<path d="M188.405 83.1131V51.666H135.856V83.1131H188.405Z" stroke="#F0E7C4" stroke-width="4" stroke-miterlimit="10" stroke-linecap="round" stroke-linejoin="round"/>
<path d="M168.506 177.597V127.857H135.826V177.597H168.506Z" stroke="#F0E7C4" stroke-width="4" stroke-miterlimit="10" stroke-linecap="round" stroke-linejoin="round"/>
<path d="M179.436 116.951H124.901V188.546H179.436V116.951Z" stroke="#F0E7C4" stroke-width="8" stroke-miterlimit="10" stroke-linecap="round" stroke-linejoin="round"/>
<path d="M272.654 568.879C260.185 560.932 238.192 546.955 228.669 517.906C222.023 497.627 221.886 472.14 229.012 469.742C237.302 467.002 251.758 496.325 257.033 493.79C261.212 491.803 252.511 473.647 251.347 442.885C250.524 421.921 253.539 403.902 262.994 387.87C267.31 380.539 270.461 375.127 273.956 375.538C288.275 377.182 284.232 474.196 299.511 476.045C306.704 476.936 312.459 456.04 320.544 457.753C327.395 459.191 331.985 476.114 333.219 487.076C333.287 487.624 333.356 488.035 333.356 488.378C336.918 523.935 316.159 549.559 309.171 558.26C298.688 571.14 291.632 573.744 286.151 573.812C280.396 573.744 276.011 571.072 272.654 568.879Z" fill="#FF9F10"/>
<path d="M268.954 433.636C271.352 458.986 285.74 497.558 287.864 530.238C289.234 551.546 287.932 570.318 285.808 585.733" stroke="#773A12" stroke-width="6" stroke-miterlimit="10" stroke-linecap="round" stroke-linejoin="round"/>
<path d="M335.069 644.106H228.875C218.187 625.196 218.598 601.971 229.902 583.472L245.523 557.917H318.352L333.493 581.554C344.729 599.025 346.03 621.154 337.055 639.858L335.069 644.106Z" fill="#DF8448"/>
<path d="M302.868 491.803C302.868 491.803 302.594 503.45 286.562 518.591" stroke="#773A12" stroke-width="6" stroke-miterlimit="10" stroke-linecap="round" stroke-linejoin="round"/>
<path d="M252.237 518.591C252.237 518.591 262.994 540.515 288.412 540.515" stroke="#773A12" stroke-width="6" stroke-miterlimit="10" stroke-linecap="round" stroke-linejoin="round"/>
<path opacity="0.67" d="M307.869 576.005C307.869 576.005 324.038 586.555 324.038 611.836" stroke="#1E0D02" stroke-width="6" stroke-miterlimit="10" stroke-linecap="round" stroke-linejoin="round"/>
<path d="M458.933 649.05C458.933 658.51 453.046 676.251 395.861 676.251C341.303 676.251 242.492 676.251 292.317 654.403C318.283 643.017 364.792 644.488 395.861 644.488C450.148 646.929 458.933 641.969 458.933 649.05Z" fill="#F0E7C4"/>
<path d="M483.639 644.106H489.051" stroke="#58290A" stroke-width="6" stroke-miterlimit="10" stroke-linecap="round" stroke-linejoin="round"/>
<path d="M464.447 644.076H474.707" stroke="#58290A" stroke-width="6" stroke-miterlimit="10" stroke-linecap="round" stroke-linejoin="round"/>
<path d="M23.516 644.106H38.5887" stroke="#58290A" stroke-width="6" stroke-miterlimit="10" stroke-linecap="round" stroke-linejoin="round"/>
<path d="M3.05194 644.106H11.2734" stroke="#58290A" stroke-width="6" stroke-miterlimit="10" stroke-linecap="round" stroke-linejoin="round"/>
<path d="M49.4084 644.106H293.65" stroke="#58290A" stroke-width="6" stroke-miterlimit="10" stroke-linecap="round" stroke-linejoin="round"/>
<path d="M284.612 644.106L455.509 644.106" stroke="#58290A" stroke-width="6" stroke-miterlimit="10" stroke-linecap="round" stroke-linejoin="round"/>
<path d="M57.8049 648.958C57.8049 667.162 88.9144 682 127.256 682C157.305 682 182.866 672.96 192.53 660.242L119.899 665.479L57.8049 648.958Z" fill="#F0E7C4"/>
<path d="M182.555 647.15C180.747 646.776 178.814 646.963 177.131 647.649C166.158 651.95 146.956 654.818 125.136 654.818C91.0341 654.818 63.4158 647.836 63.4158 639.232C63.4158 631.626 85.0491 625.267 113.665 623.896L115.66 613.484C76.4457 615.916 46.6454 628.073 46.6454 642.661C46.6454 658.995 84.0516 672.274 130.186 672.274C150.385 672.274 168.901 669.718 183.365 665.479C192.717 662.674 192.156 649.145 182.555 647.15Z" fill="#DF8448"/>
<path opacity="0.26" d="M149.762 653.509L179.687 646.963C179.687 646.963 187.542 647.773 188.976 651.95C191.47 659.058 186.358 663.422 186.358 663.422C186.358 663.422 184.425 646.963 149.762 653.509Z" fill="#773A12"/>
<path d="M182.555 647.15C180.747 646.776 178.814 646.963 177.131 647.649C166.158 651.95 146.956 654.818 125.136 654.818C91.0341 654.818 63.4158 647.836 63.4158 639.232C63.4158 631.626 85.0491 625.267 113.665 623.896L115.66 613.484C76.4457 615.916 46.6454 628.073 46.6454 642.661C46.6454 658.995 84.0516 672.274 130.186 672.274C150.385 672.274 168.901 669.718 183.365 665.479C192.717 662.674 192.156 649.145 182.555 647.15Z" stroke="#58290A" stroke-width="3" stroke-miterlimit="10" stroke-linecap="round" stroke-linejoin="round"/>
<path d="M176.694 428.199C166.719 425.019 155.684 423.211 144.151 423.211C132.68 423.211 121.769 424.957 111.794 428.074C105.747 413.922 97.5178 402.389 88.852 395.219C87.4804 394.097 85.4231 394.471 84.5502 396.029C67.281 427.264 59.5504 462.987 62.7923 501.951C65.7848 545.467 82.5552 593.285 98.4529 642.724H189.973C205.933 593.347 222.517 546.028 225.634 503.074C229.063 463.859 221.208 428.012 203.44 396.466C202.567 394.907 200.51 394.533 199.138 395.655C190.659 402.887 182.617 414.234 176.694 428.199Z" fill="#DF8448"/>
<path opacity="0.26" d="M151.819 486.802C151.819 489.109 148.39 490.979 144.089 490.979C139.849 490.979 136.358 489.109 136.358 486.802L144.151 485.056L151.819 486.802Z" fill="#773A12"/>
<path opacity="0.26" d="M176.071 641.851C176.071 641.851 176.071 636.926 177.006 632.811C185.235 596.215 179.812 584.931 179.812 584.931L162.48 641.975L176.071 641.851Z" fill="#773A12"/>
<path opacity="0.26" d="M110.922 641.851C110.922 641.851 110.922 636.926 109.986 632.811C101.757 596.215 107.181 584.931 107.181 584.931L124.512 641.975L110.922 641.851Z" fill="#773A12"/>
<path d="M176.694 428.199C166.719 425.019 155.684 423.211 144.151 423.211C132.68 423.211 121.769 424.957 111.794 428.074C105.747 413.922 97.5178 402.389 88.852 395.219C87.4804 394.097 85.4231 394.471 84.5502 396.029C67.281 427.264 59.5504 462.987 62.7923 501.951C65.7848 545.467 82.5552 593.285 98.4529 642.724H189.973C205.933 593.347 222.517 546.028 225.634 503.074C229.063 463.859 221.208 428.012 203.44 396.466C202.567 394.907 200.51 394.533 199.138 395.655C190.659 402.887 182.617 414.234 176.694 428.199Z" stroke="#58290A" stroke-width="3" stroke-miterlimit="10" stroke-linecap="round" stroke-linejoin="round"/>
<path d="M118.278 458.061C121.033 458.061 123.266 455.828 123.266 453.074C123.266 450.32 121.033 448.086 118.278 448.086C115.524 448.086 113.291 450.32 113.291 453.074C113.291 455.828 115.524 458.061 118.278 458.061Z" fill="#58290A"/>
<path d="M170.024 458.061C172.778 458.061 175.011 455.828 175.011 453.074C175.011 450.32 172.778 448.086 170.024 448.086C167.269 448.086 165.036 450.32 165.036 453.074C165.036 455.828 167.269 458.061 170.024 458.061Z" fill="#58290A"/>
<path d="M148.328 469.844C145.585 469.594 142.842 469.594 140.098 469.844C138.789 469.968 138.353 471.278 139.35 471.963C140.223 472.525 141.096 473.086 141.969 473.709C143.216 474.582 145.273 474.582 146.52 473.709C147.393 473.086 148.266 472.525 149.138 471.963C150.073 471.278 149.575 469.968 148.328 469.844Z" fill="#58290A"/>
<path d="M179.687 586.738C178.627 605.13 170.086 624.456 164.226 642.848C158.178 642.848 144.151 642.848 144.151 642.848L144.276 591.04" fill="#DF8448"/>
<path d="M108.553 586.738C109.612 605.13 120.024 624.456 125.884 642.848C131.931 642.848 144.088 642.848 144.088 642.848L143.964 591.04" fill="#DF8448"/>
<path d="M155.622 486.24C154.5 486.864 153.128 487.238 151.757 487.238C147.58 487.238 144.213 484.183 144.213 480.442" stroke="#58290A" stroke-width="6" stroke-miterlimit="10" stroke-linecap="round" stroke-linejoin="round"/>
<path d="M132.68 486.24C133.802 486.864 135.174 487.238 136.545 487.238C140.722 487.238 144.089 484.183 144.089 480.442" stroke="#58290A" stroke-width="6" stroke-miterlimit="10" stroke-linecap="round" stroke-linejoin="round"/>
<path d="M179.687 586.738C178.627 605.13 168.216 624.456 162.355 642.848C156.308 642.848 144.151 642.848 144.151 642.848L144.276 591.04" stroke="#58290A" stroke-width="3" stroke-miterlimit="10" stroke-linecap="round" stroke-linejoin="round"/>
<path d="M108.553 586.738C109.612 605.13 118.153 624.456 124.014 642.848C130.061 642.848 144.088 642.848 144.088 642.848L143.964 591.04" stroke="#58290A" stroke-width="3" stroke-miterlimit="10" stroke-linecap="round" stroke-linejoin="round"/>
<path opacity="0.26" d="M185.921 435.368C190.535 421.216 197.268 417.6 197.268 417.6C197.268 417.6 202.131 419.408 202.131 438.672" fill="#773A12"/>
<path opacity="0.26" d="M102.381 435.368C97.7673 421.216 91.0342 417.6 91.0342 417.6C91.0342 417.6 86.1713 419.408 86.1713 438.672" fill="#773A12"/>
<path d="M133.054 635.366L134.612 642.411" stroke="#58290A" stroke-width="3" stroke-miterlimit="10" stroke-linecap="round" stroke-linejoin="round"/>
<path d="M155.248 635.366L153.69 642.411" stroke="#58290A" stroke-width="3" stroke-miterlimit="10" stroke-linecap="round" stroke-linejoin="round"/>
<g opacity="0.24">
<path opacity="0.24" d="M172.143 483.56C179.687 485.555 187.48 485.929 194.961 484.807" stroke="#58290A" stroke-width="2" stroke-miterlimit="10" stroke-linecap="round" stroke-linejoin="round"/>
<path opacity="0.24" d="M170.024 488.298C176.881 492.662 183.989 495.655 190.846 497.213" stroke="#58290A" stroke-width="2" stroke-miterlimit="10" stroke-linecap="round" stroke-linejoin="round"/>
<path opacity="0.24" d="M172.143 476.827C178.315 476.39 184.674 474.707 190.846 471.777" stroke="#58290A" stroke-width="2" stroke-miterlimit="10" stroke-linecap="round" stroke-linejoin="round"/>
<path opacity="0.24" d="M116.159 483.56C108.615 485.555 100.822 485.929 93.3408 484.807" stroke="#58290A" stroke-width="2" stroke-miterlimit="10" stroke-linecap="round" stroke-linejoin="round"/>
<path opacity="0.24" d="M118.278 488.298C111.421 492.662 104.313 495.655 97.4556 497.213" stroke="#58290A" stroke-width="2" stroke-miterlimit="10" stroke-linecap="round" stroke-linejoin="round"/>
<path opacity="0.24" d="M116.159 476.827C109.987 476.39 103.628 474.707 97.4556 471.777" stroke="#58290A" stroke-width="2" stroke-miterlimit="10" stroke-linecap="round" stroke-linejoin="round"/>
</g>
<path d="M387.947 636.007H369.858L371.091 621.62H389.077L387.947 636.007Z" fill="#F9A48A"/>
<path d="M443.549 640.452H426.488L428.543 622.468L443.549 624.689V640.452Z" fill="#F9A48A"/>
<path d="M387.947 636.007H369.858L371.091 621.62H389.077L387.947 636.007Z" stroke="#472107" stroke-width="3" stroke-miterlimit="10" stroke-linecap="round" stroke-linejoin="round"/>
<path d="M443.549 640.452H426.488L428.543 622.468L443.549 624.689V640.452Z" stroke="#472107" stroke-width="3" stroke-miterlimit="10" stroke-linecap="round" stroke-linejoin="round"/>
<path d="M361.636 444.216C365.027 445.169 351.05 528.423 366.055 621.938C374.072 623.313 387.022 624.794 393.497 622.044C399.766 615.591 400.28 490.763 400.28 482.405C405.727 483.463 408.913 484.838 412.305 488.329C416.621 492.772 422.068 614.427 422.068 623.63C429.16 627.121 444.782 627.65 449.304 625.64C453.415 621.409 460.61 458.18 452.49 438.61C443.754 443.582 408.399 449.717 361.636 444.216Z" fill="#DBCDB8"/>
<g opacity="0.15">
<path opacity="0.15" d="M362.047 444.958C373.661 446.016 384.452 446.439 394.216 446.333C384.247 446.227 373.249 445.593 361.636 444.217C361.841 444.217 361.944 444.535 362.047 444.958Z" fill="#C4713A"/>
<path opacity="0.15" d="M393.085 482.405C393.085 490.762 392.469 615.59 386.302 622.043C384.452 622.784 381.985 623.207 379.313 623.419C384.76 623.736 390.105 623.524 393.599 622.043C399.56 615.908 400.382 503.668 400.382 484.733C398.327 483.569 396.066 482.934 393.085 482.405Z" fill="#C4713A"/>
<path opacity="0.15" d="M452.593 438.504C451.154 439.35 448.893 440.196 446.118 441.043C446.426 442.206 369.344 444.428 369.858 446.015C373.455 455.747 447.351 448.765 447.557 450.775C451.873 494.042 445.81 621.832 442.11 625.64C440.876 626.169 438.924 626.486 436.56 626.698C442.007 627.015 447.043 626.698 449.304 625.64C453.518 621.303 460.712 458.074 452.593 438.504Z" fill="#C4713A"/>
</g>
<path d="M453.21 440.514C453.004 439.773 452.799 439.033 452.593 438.504C446.426 442.101 427.31 446.12 400.485 446.332C425.049 446.649 443.754 443.687 453.21 440.514Z" fill="#C4713A"/>
<path d="M369.858 621.621C355.572 532.232 365.439 453.315 369.858 444.852C368.008 444.641 363.589 444.429 361.636 444.218C365.027 445.17 351.05 528.424 366.055 621.939C371.502 622.891 379.211 623.843 385.686 623.526C380.649 623.314 373.866 622.256 369.858 621.621Z" fill="#F8F4E7"/>
<path d="M424.33 624.371C426.488 599.405 423.199 491.397 414.669 486.637C410.455 484.309 408.81 482.723 403.363 481.665C403.363 481.982 405.83 483.04 405.83 483.675C408.399 484.627 410.455 486.002 412.51 488.118C416.827 492.561 422.274 614.215 422.274 623.419C427.31 625.852 436.56 626.91 443.138 626.487C437.382 626.381 428.029 626.275 424.33 624.371Z" fill="#F8F4E7"/>
<path d="M361.636 444.216C365.027 445.169 351.05 528.423 366.055 621.938C374.072 623.313 387.022 624.794 393.497 622.044C399.766 615.591 400.28 490.763 400.28 482.405C405.727 483.463 408.913 484.838 412.305 488.329C416.621 492.772 422.068 614.427 422.068 623.63C429.16 627.121 444.782 627.65 449.304 625.64C453.415 621.409 460.61 458.18 452.49 438.61C443.754 443.582 408.399 449.717 361.636 444.216Z" stroke="#472107" stroke-width="3" stroke-miterlimit="10" stroke-linecap="round" stroke-linejoin="round"/>
<path d="M400.382 482.406L394.421 481.772" stroke="#472107" stroke-width="3" stroke-miterlimit="10" stroke-linecap="round" stroke-linejoin="round"/>
<path d="M345.808 654.203C345.808 654.203 367.905 655.578 386.302 652.193C394.833 652.193 393.291 632.94 393.291 632.94C393.291 632.94 382.705 636.431 373.866 634.632C365.027 632.834 366.775 631.67 366.775 631.67C366.775 631.67 332.139 637.594 327.514 642.355C322.992 647.009 325.972 654.203 345.808 654.203Z" fill="#5B2F15"/>
<path d="M332.858 643.835C337.278 639.287 353.11 635.278 361.332 633.797C357.632 632.633 366.775 631.776 366.775 631.776C366.775 631.776 332.139 637.7 327.514 642.46C323.814 646.269 325.15 651.77 336.456 653.568C330.186 651.029 327.925 648.913 332.858 643.835Z" fill="#FFECD0"/>
<path d="M409.119 659.28C409.53 662.771 412.921 670.494 430.291 666.262C442.521 663.3 443.857 655.155 446.324 649.654C448.79 644.153 445.604 634.844 445.604 634.844C445.604 634.844 443.857 638.652 438.41 638.652C430.702 638.652 423.816 633.892 423.816 633.892C423.404 633.151 408.399 652.722 409.119 659.28Z" fill="#5B2F15"/>
<path d="M432.449 664.571C415.182 668.802 413.538 659.282 413.127 655.685C412.613 651.136 419.91 640.028 424.432 634.104C424.124 633.893 423.918 633.787 423.918 633.787C423.507 633.047 408.399 652.617 409.118 659.176C409.53 662.667 412.921 670.389 430.29 666.158C435.635 664.888 438.924 662.561 441.082 659.916C439.232 661.08 435.224 663.936 432.449 664.571Z" fill="#FFECD0"/>
<path d="M345.808 654.203C345.808 654.203 367.905 655.578 386.302 652.193C394.833 652.193 393.291 632.94 393.291 632.94C393.291 632.94 382.808 635.69 373.866 634.632C370.064 634.209 368.214 632.94 367.289 632.199C366.877 631.882 366.364 631.67 365.85 631.776C360.403 632.728 331.625 638.017 327.514 642.249C322.992 647.009 325.972 654.203 345.808 654.203Z" stroke="#472107" stroke-width="3" stroke-miterlimit="10" stroke-linecap="round" stroke-linejoin="round"/>
<path d="M409.119 659.28C409.838 662.771 412.921 670.494 430.29 666.262C442.521 663.3 444.885 655.472 446.324 649.654C447.762 643.941 445.604 634.844 445.604 634.844C445.604 634.844 443.857 638.652 438.41 638.652C430.702 638.652 424.843 634.526 424.843 634.526C421.143 636.219 407.063 649.548 409.119 659.28Z" stroke="#472107" stroke-width="3" stroke-miterlimit="10" stroke-linecap="round" stroke-linejoin="round"/>
<path d="M347.556 633.892C347.556 633.892 352.283 634.526 352.9 639.498" stroke="#FFECD0" stroke-width="3" stroke-miterlimit="10" stroke-linecap="round" stroke-linejoin="round"/>
<path d="M352.9 631.882C352.9 631.882 357.627 632.516 358.244 637.488" stroke="#FFECD0" stroke-width="3" stroke-miterlimit="10" stroke-linecap="round" stroke-linejoin="round"/>
<path d="M358.347 630.402C358.347 630.402 363.075 631.037 363.691 636.009" stroke="#FFECD0" stroke-width="3" stroke-miterlimit="10" stroke-linecap="round" stroke-linejoin="round"/>
<path d="M421.143 649.125C421.143 649.125 425.357 646.903 428.646 650.712" stroke="#FFECD0" stroke-width="3" stroke-miterlimit="10" stroke-linecap="round" stroke-linejoin="round"/>
<path d="M423.405 645.105C423.405 645.105 427.618 642.884 430.907 646.692" stroke="#FFECD0" stroke-width="3" stroke-miterlimit="10" stroke-linecap="round" stroke-linejoin="round"/>
<path d="M424.843 641.086C424.843 641.086 429.057 638.865 432.346 642.673" stroke="#FFECD0" stroke-width="3" stroke-miterlimit="10" stroke-linecap="round" stroke-linejoin="round"/>
<path d="M433.888 444.218C433.888 444.218 441.699 478.175 456.293 478.175" stroke="#472107" stroke-width="3" stroke-miterlimit="10" stroke-linecap="round" stroke-linejoin="round"/>
<path d="M369.858 446.015C369.858 446.015 367.7 468.23 360.916 470.769" stroke="#472107" stroke-width="3" stroke-miterlimit="10" stroke-linecap="round" stroke-linejoin="round"/>
<path d="M437.074 395.026H470.579C470.579 395.026 491.648 308.281 431.524 261.841C427.721 257.927 413.435 257.715 413.435 257.715C384.247 267.13 374.894 287.229 374.894 287.229L361.533 262.898C361.533 262.898 345.911 268.399 344.267 294.846C325.664 322.033 294.009 324.36 275.612 305.53C269.548 311.454 253.207 329.121 253.207 329.121C253.207 329.121 270.062 349.643 299.045 352.711C329.364 355.885 350.639 335.891 356.6 329.121C361.533 334.199 370.166 405.287 357.73 439.35C357.114 441.149 357.936 443.159 359.683 443.793C364.925 445.592 377.258 448.448 401.513 448.236C418.779 448.131 449.51 442.524 449.51 442.524L437.074 395.026Z" fill="#342B26"/>
<path d="M275.612 307.752L258.037 333.881L251.254 327.745L275.612 307.752Z" fill="#342B26"/>
<path opacity="0.15" d="M400.485 395.026C400.485 395.026 384.144 447.602 394.216 458.392C399.56 464.104 439.026 468.759 442.007 469.817C445.09 470.875 455.985 470.769 455.985 470.769L454.751 450.246L400.485 395.026Z" fill="#C4713A"/>
<path d="M423.816 300.981C423.816 300.981 433.065 320.975 433.888 357.366C434.299 377.571 429.468 395.026 429.468 395.026L435.635 398.517C435.635 398.517 440.465 391.323 440.568 363.078C440.671 337.689 434.504 316.744 423.816 300.981Z" fill="#342B26"/>
<path d="M368.727 286.276C368.727 286.276 369.652 284.372 371.708 281.41L361.533 262.897C361.533 262.897 359.683 263.532 357.216 265.436L368.727 286.276Z" fill="#342B26"/>
<path d="M431.524 261.84C429.16 259.407 422.891 258.455 418.471 258.032C421.349 258.667 424.021 259.619 425.357 260.994C485.481 307.434 464.412 394.179 464.412 394.179H430.907L443.343 441.36C443.343 441.36 412.613 446.967 395.347 447.073C384.349 447.178 375.819 446.649 369.241 445.803C376.23 447.073 386.611 448.025 401.513 447.919C418.78 447.813 449.51 442.206 449.51 442.206L437.074 395.026H470.579C470.579 395.026 491.648 308.281 431.524 261.84Z" fill="#342B26"/>
<path d="M354.236 324.149C348.275 330.919 323.3 354.721 293.187 351.759C295.037 352.076 296.99 352.394 299.045 352.605C324.328 355.25 347.556 337.478 356.6 329.015C355.88 326.37 354.955 324.783 354.236 324.149Z" fill="#342B26"/>
<path d="M378.594 289.662C378.594 289.662 388.255 268.928 418.266 259.302C418.266 259.302 424.124 259.407 429.468 260.465C424.124 257.926 413.435 257.715 413.435 257.715C390.002 265.226 379.314 279.719 376.127 285.114L378.594 289.662Z" fill="#342B26"/>
<path d="M275.612 307.752C294.523 327.216 327.925 325.418 347.042 297.49C348.378 275.91 358.141 266.812 362.355 264.379L361.533 262.898C361.533 262.898 345.911 268.399 344.267 294.846C325.664 322.033 294.009 324.36 275.612 305.53C269.548 311.454 253.207 329.121 253.207 329.121C253.207 329.121 253.207 327.957 254.337 329.121C258.859 324.149 270.576 312.618 275.612 307.752Z" fill="#F8F4E7"/>
<path d="M359.683 332.823C359.375 333.141 358.964 333.564 358.655 333.987C363.486 351.653 368.625 409.519 357.73 439.245C357.114 441.043 357.936 443.053 359.683 443.688C360.197 443.899 360.916 444.111 361.533 444.322C373.352 408.355 364.719 337.901 359.683 332.823Z" fill="#F8F4E7"/>
<path d="M437.074 395.026H470.579C470.579 395.026 491.648 308.281 431.524 261.841C427.721 257.927 413.435 257.715 413.435 257.715C384.247 267.13 374.894 287.229 374.894 287.229L361.533 262.898C361.533 262.898 345.911 268.399 344.267 294.846C325.664 322.033 294.009 324.36 275.612 305.53C269.548 311.454 253.207 329.121 253.207 329.121C253.207 329.121 270.062 349.643 299.045 352.711C329.364 355.885 350.639 335.891 356.6 329.121C361.533 334.199 370.166 405.287 357.73 439.35C357.114 441.149 357.936 443.159 359.683 443.793C364.925 445.592 377.258 448.448 401.513 448.236C418.779 448.131 449.51 442.524 449.51 442.524L437.074 395.026Z" stroke="#472107" stroke-width="3" stroke-miterlimit="10" stroke-linecap="round" stroke-linejoin="round"/>
<path d="M476.643 461.988C453.518 461.46 430.599 459.767 407.577 457.122C400.691 456.276 395.552 450.035 395.86 442.947C396.58 429.089 397.916 415.231 399.663 401.373C400.588 394.285 406.652 389.102 413.641 389.631C436.251 391.217 458.862 393.968 481.576 397.564C488.154 398.622 492.984 404.546 492.779 411.422C492.367 424.328 491.442 437.129 490.106 449.929C489.284 456.911 483.426 462.2 476.643 461.988Z" fill="#FF9F10"/>
<path d="M476.643 461.988C453.518 461.46 430.599 459.767 407.577 457.122C400.691 456.276 395.552 450.035 395.86 442.947C396.58 429.089 397.916 415.231 399.663 401.373C400.588 394.285 406.652 389.102 413.641 389.631C436.251 391.217 458.862 393.968 481.576 397.564C488.154 398.622 492.984 404.546 492.779 411.422C492.367 424.328 491.442 437.129 490.106 449.929C489.284 456.911 483.426 462.2 476.643 461.988Z" fill="#DF8448"/>
<path d="M400.383 444.428C401.102 430.57 402.438 416.712 404.185 402.854C405.11 395.766 411.174 390.583 418.163 391.112C440.774 392.698 463.384 395.449 486.098 399.046C486.817 399.151 487.537 399.363 488.154 399.575C486.304 397.988 484.043 396.824 481.473 396.401C458.76 392.804 436.149 390.054 413.538 388.467C406.652 387.938 400.485 393.122 399.56 400.209C397.813 414.067 396.58 427.925 395.758 441.783C395.449 448.025 399.252 453.526 404.905 455.43C401.924 452.785 400.177 448.765 400.383 444.428Z" fill="#F8F4E7"/>
<path d="M476.643 461.988C453.518 461.46 430.599 459.767 407.577 457.122C400.691 456.276 395.552 450.035 395.86 442.947C396.58 429.089 397.916 415.231 399.663 401.373C400.588 394.285 406.652 389.102 413.641 389.631C436.251 391.217 458.862 393.968 481.576 397.564C488.154 398.622 492.984 404.546 492.779 411.422C492.367 424.328 491.442 437.129 490.106 449.929C489.284 456.911 483.426 462.2 476.643 461.988Z" stroke="#472107" stroke-width="3" stroke-miterlimit="10" stroke-linecap="round" stroke-linejoin="round"/>
<path d="M437.074 395.026C450.126 331.871 422.171 298.654 422.171 298.654" stroke="#472107" stroke-width="3" stroke-miterlimit="10" stroke-linecap="round" stroke-linejoin="round"/>
<path d="M352.078 321.82C352.078 321.82 354.647 323.195 356.6 329.014" stroke="#472107" stroke-width="4" stroke-miterlimit="10" stroke-linecap="round" stroke-linejoin="round"/>
<path d="M390.002 360.01C390.002 360.01 391.235 366.675 388.049 378.84" stroke="#472107" stroke-width="3" stroke-miterlimit="10" stroke-linecap="round" stroke-linejoin="round"/>
<path d="M383.733 225.661C383.733 225.661 384.041 239.414 384.041 245.338C384.041 251.262 365.027 270.409 365.027 270.409C365.027 270.409 357.525 258.984 360.197 243.222C362.869 227.46 377.669 225.661 377.669 225.661H383.733Z" fill="#FF9F10"/>
<path d="M366.98 273.16C366.98 265.966 374.175 242.164 363.794 219.738C356.6 204.293 331.625 199.532 317.339 187.684C275.818 153.198 296.476 58.4131 296.476 58.4131C296.476 58.4131 313.023 31.3318 367.083 31.3318C385.069 31.3318 400.999 39.2658 415.593 84.9655C430.085 130.665 416.827 156.054 416.827 156.054C409.221 172.028 401.719 210.64 422.274 247.454L426.591 254.118C426.591 254.118 385.172 271.679 379.827 289.133C374.483 306.482 366.98 273.16 366.98 273.16Z" fill="#F9A48A"/>
<path opacity="0.43" d="M422.171 247.348C401.616 210.534 409.119 171.922 416.724 155.948C416.724 155.948 430.085 130.56 415.491 84.8598C400.999 39.16 384.966 31.226 366.98 31.226C345.397 31.226 329.775 35.5633 318.778 40.7468C329.056 37.0443 342.314 34.3996 359.375 34.3996C363.383 34.3996 367.289 34.8228 371.194 35.9864C357.833 37.2558 300.895 48.6808 296.476 58.4131C296.476 58.4131 302.642 77.9836 326.178 85.8118C342.314 91.207 359.889 89.5144 374.894 88.0334C380.238 89.7259 381.061 106.652 411.893 115.961C423.302 119.452 407.577 166.421 405.11 180.491C402.746 193.82 404.391 220.69 410.249 234.865C414.052 244.174 410.043 242.376 402.027 248.088C399.56 249.781 388.872 256.869 388.255 257.821C380.444 268.611 388.769 265.12 372.736 290.614C374.997 294.846 377.566 296.433 379.724 289.133C384.966 271.679 426.488 254.118 426.488 254.118L422.171 247.348Z" fill="#F9A48A"/>
<path d="M369.755 275.91C369.755 268.188 379.416 243.857 368.316 219.843C360.608 203.341 336.147 197.417 320.936 184.722C284.554 154.573 294.523 81.3688 298.634 55.5569C297.195 57.2495 296.578 58.3074 296.578 58.3074C296.578 58.3074 275.92 153.198 317.442 187.578C331.728 199.427 356.703 204.187 363.897 219.632C374.277 242.164 367.083 265.86 367.083 273.054C367.083 273.054 369.139 283.104 371.091 286.7C368.83 280.565 369.755 275.91 369.755 275.91Z" fill="#F8F4E7"/>
<path d="M366.98 273.16C366.98 265.966 374.175 242.164 363.794 219.738C356.6 204.293 331.625 199.532 317.339 187.684C275.818 153.198 296.476 58.4131 296.476 58.4131C296.476 58.4131 313.023 31.3318 367.083 31.3318C385.069 31.3318 400.999 39.2658 415.593 84.9655C430.085 130.665 416.827 156.054 416.827 156.054C409.221 172.028 401.719 210.64 422.274 247.454L426.591 254.118C426.591 254.118 385.172 271.679 379.827 289.133C374.483 306.482 366.98 273.16 366.98 273.16Z" stroke="#472107" stroke-width="3" stroke-miterlimit="10" stroke-linecap="round" stroke-linejoin="round"/>
<path d="M322.067 121.884C322.067 121.884 322.478 132.251 315.386 141.56C317.236 146.321 326.075 145.58 326.075 145.58" stroke="#472107" stroke-width="3" stroke-miterlimit="10" stroke-linecap="round" stroke-linejoin="round"/>
<path d="M366.236 276.588C366.236 276.588 362.561 300.557 366.98 305.106" stroke="#FF9F10" stroke-width="3" stroke-miterlimit="10" stroke-linecap="round" stroke-linejoin="round"/>
<path d="M318.161 158.064C318.059 158.804 332.139 163.036 339.95 153.832C335.839 163.988 330.186 168.431 317.442 168.431" fill="#FF8073"/>
<path d="M312.2 156.371C312.098 157.112 332.139 163.036 339.847 153.832C335.736 163.988 330.083 168.431 317.339 168.431" stroke="#472107" stroke-width="3" stroke-miterlimit="10" stroke-linecap="round" stroke-linejoin="round"/>
<path d="M317.339 168.431C317.339 168.431 320.936 162.93 317.339 158.064" stroke="#472107" stroke-width="3" stroke-miterlimit="10" stroke-linecap="round" stroke-linejoin="round"/>
<path opacity="0.71" d="M357.216 135.32L340.361 132.993C333.989 132.146 329.57 125.27 330.392 117.759L331.419 108.979C332.242 101.468 338.1 95.8616 344.472 96.4963L361.327 98.1889C368.008 98.8236 372.838 105.806 371.913 113.634L370.886 122.837C370.063 130.665 363.897 136.272 357.216 135.32Z" fill="white"/>
<path opacity="0.71" d="M308.295 132.146L289.281 130.877C282.087 130.454 276.64 123.578 276.948 115.749L277.359 106.546C277.77 98.612 283.834 92.4764 291.028 92.688L310.042 93.3227C317.545 93.5342 323.506 100.41 323.095 108.662L322.684 118.288C322.272 126.434 315.797 132.675 308.295 132.146Z" fill="white"/>
<path d="M343.342 121.884C345.101 121.884 346.528 119.232 346.528 115.96C346.528 112.688 345.101 110.036 343.342 110.036C341.582 110.036 340.156 112.688 340.156 115.96C340.156 119.232 341.582 121.884 343.342 121.884Z" fill="#472107"/>
<path d="M312.2 118.393C313.96 118.393 315.387 115.741 315.387 112.469C315.387 109.198 313.96 106.545 312.2 106.545C310.441 106.545 309.014 109.198 309.014 112.469C309.014 115.741 310.441 118.393 312.2 118.393Z" fill="#472107"/>
<path d="M366.98 228.306C366.98 228.306 354.339 245.02 361.533 262.898C366.672 275.593 369.241 285.748 374.894 294.105C381.677 285.431 388.609 267.947 407.828 259.802C426.945 251.762 421.768 246.67 421.768 243.919C421.768 241.38 420.424 233.49 416.107 233.49" stroke="#472107" stroke-width="3" stroke-miterlimit="10" stroke-linecap="round" stroke-linejoin="round"/>
<path d="M395.714 273.971C395.714 273.971 386.259 285.396 386.259 321.998" stroke="#FF9F10" stroke-width="3" stroke-miterlimit="10" stroke-linecap="round" stroke-linejoin="round"/>
<path d="M156.289 183.029C156.289 183.029 150.43 189.482 154.13 199.215C158.858 211.38 156.289 214.448 154.13 220.478" stroke="#472107" stroke-width="3" stroke-miterlimit="10" stroke-linecap="round" stroke-linejoin="round"/>
<path d="M387.227 79.1472C389.591 81.5803 380.649 86.9754 393.702 100.41C406.857 113.951 412.613 114.268 412.613 124.953C412.613 135.637 413.949 160.92 423.713 165.469C433.477 170.018 455.779 134.685 452.696 98.8235C450.64 76.1852 441.39 57.6725 430.804 50.2675C426.179 24.5614 399.56 8.6934 379.416 5.20245C349.097 0.0189123 331.933 17.791 330.495 16.31C319.395 19.801 310.453 20.3299 303.67 19.5894C293.29 18.5315 284.862 28.1581 286.917 38.631V38.7368C291.131 59.5767 307.575 70.4727 312.509 73.7521C322.581 80.4166 331.933 82.3208 334.503 82.8497C344.575 84.6481 353.414 83.2729 361.225 82.1092C375.922 79.8877 384.555 76.291 387.227 79.1472Z" fill="#6D524E"/>
<path d="M387.227 79.1472C389.591 81.5803 380.649 86.9754 393.702 100.41C406.857 113.951 412.613 114.268 412.613 124.953C412.613 135.637 413.949 160.92 423.713 165.469C433.477 170.018 455.779 134.685 452.696 98.8235C450.64 76.1852 441.39 57.6725 430.804 50.2675C426.179 24.5614 399.56 8.6934 379.416 5.20245C349.097 0.0189123 331.933 17.791 330.495 16.31C319.395 19.801 310.453 20.3299 303.67 19.5894C293.29 18.5315 284.862 28.1581 286.917 38.631V38.7368C291.131 59.5767 307.575 70.4727 312.509 73.7521C322.581 80.4166 331.933 82.3208 334.503 82.8497C344.575 84.6481 353.414 83.2729 361.225 82.1092C375.922 79.8877 384.555 76.291 387.227 79.1472Z" fill="#5B2F15"/>
<g opacity="0.34">
<path opacity="0.34" d="M430.188 47.8344C428.338 40.0062 424.432 33.2359 419.293 27.4176C422.685 32.4954 425.254 38.3136 426.385 44.6608C427.618 45.5071 428.954 46.5649 430.188 47.8344Z" fill="#5B2F15"/>
<path opacity="0.34" d="M388.666 73.4347C385.994 70.6843 371.502 74.281 356.805 76.6083C348.994 77.8778 340.258 79.253 330.083 77.3488C327.514 76.9257 318.161 75.0215 308.089 68.2512C305.52 66.5586 299.662 62.6445 294.214 56.4031C300.689 66.1355 309.117 71.7422 312.509 73.9637C322.581 80.6282 331.933 82.5324 334.503 83.0613C344.575 84.8597 353.414 83.4844 361.225 82.3208C370.886 80.8398 377.977 78.7241 382.397 78.3009C391.03 77.8778 389.591 74.3868 388.666 73.4347Z" fill="#5B2F15"/>
<path opacity="0.34" d="M389.385 94.6978C389.18 94.4862 388.974 94.1689 388.666 93.9573C389.797 95.8615 391.441 97.9772 393.702 100.304C399.56 106.334 403.98 109.825 407.063 112.682C404.802 107.604 399.149 104.853 389.385 94.6978Z" fill="#5B2F15"/>
<path opacity="0.34" d="M452.593 98.8224C450.948 80.0982 444.268 64.1245 436.046 55.0268C442.212 64.4418 446.94 77.7709 448.276 93.11C451.462 128.866 429.057 164.198 419.293 159.755C418.779 159.544 418.368 159.226 417.957 158.909C419.396 161.977 421.349 164.304 423.713 165.362C433.476 169.911 455.779 134.578 452.593 98.8224Z" fill="#5B2F15"/>
</g>
<path d="M291.645 43.6019V43.4961C289.589 33.0232 298.017 23.2908 308.398 24.4545C315.181 25.195 322.786 23.2909 333.886 19.7999C337.483 17.5784 353.003 4.46086 383.322 9.75019C394.524 11.6543 408.605 17.8957 418.882 26.9934C408.091 15.0395 392.366 7.52867 379.313 5.30716C348.994 0.123618 331.831 17.8957 330.392 16.4147C319.292 19.9057 310.35 20.4346 303.567 19.6941C293.187 18.6362 284.759 28.2628 286.815 38.7357V38.8415C289.487 52.2764 297.298 61.5856 303.875 67.4038C298.737 61.6914 293.701 53.8632 291.645 43.6019Z" fill="#F8F4E7"/>
<path d="M435.532 55.1327C436.046 55.5558 436.56 55.8732 437.176 56.2963C436.56 55.5558 436.046 54.9211 435.429 54.2864C435.429 54.6037 435.429 54.8153 435.532 55.1327Z" fill="#5B2F15"/>
<path d="M325.356 18.1073C318.264 20.4346 309.425 20.2231 303.567 19.5883C293.187 18.5305 284.759 28.1571 286.815 38.6299V38.7357C291.028 59.5756 307.473 70.4716 312.406 73.751C322.478 80.4156 331.831 82.3197 334.4 82.8486C344.472 84.647 353.311 83.2718 361.122 82.1081C375.922 79.7808 384.452 76.1841 387.227 78.9346C389.591 81.3676 380.649 86.7628 393.702 100.198C406.857 113.738 412.613 114.056 412.613 124.74C412.613 135.425 413.949 160.707 423.713 165.256C433.476 169.805 455.779 134.472 452.696 98.6108C450.64 75.9725 441.39 57.4599 430.804 50.0548C426.179 24.3487 399.56 8.48076 379.416 4.98981C349.097 -0.193727 337.894 12.3949 331.214 15.5685" stroke="#472107" stroke-width="3" stroke-miterlimit="10" stroke-linecap="round" stroke-linejoin="round"/>
<path d="M405.213 68.9917C404.082 69.3091 392.058 65.6066 388.255 79.3588" stroke="#472107" stroke-width="3" stroke-miterlimit="10" stroke-linecap="round" stroke-linejoin="round"/>
<path d="M412.407 223.333C412.407 223.333 419.602 214.024 430.804 225.66C442.11 237.297 449.509 237.509 457.937 249.78C467.598 263.849 467.598 283.314 457.834 285.747C455.471 286.382 449.098 276.226 443.035 269.668C436.971 263.109 427.824 258.877 423.815 262.897C419.807 266.917 404.288 280.987 391.544 267.869C380.649 256.656 423.713 251.472 423.713 243.221C423.713 234.864 414.771 234.652 412.407 223.333Z" fill="#FF9F10"/>
<path d="M419.704 259.407C413.949 267.024 401.102 269.246 390.619 266.812C390.824 267.13 391.133 267.553 391.544 267.87C404.288 280.988 421.76 265.014 425.768 260.888C427.721 258.878 437.896 262.898 443.035 269.669C439.232 259.09 422.891 255.176 419.704 259.407Z" fill="#FF9F10"/>
<path d="M457.937 249.781C449.51 237.509 442.11 237.298 430.804 225.661C427.413 222.17 424.535 220.584 421.966 220.055C432.963 231.057 440.26 231.48 448.482 243.539C457.321 256.445 458.04 274.112 450.435 278.66C453.724 282.786 456.396 286.065 457.835 285.748C467.598 283.209 467.598 263.745 457.937 249.781Z" fill="#FF9F10"/>
<path d="M412.407 223.333C412.407 223.333 419.602 214.024 430.804 225.66C442.11 237.297 449.509 237.509 457.937 249.78C467.598 263.849 467.598 283.314 457.834 285.747C455.471 286.382 449.098 276.226 443.035 269.668C436.971 263.109 427.824 258.877 423.815 262.897C419.807 266.917 404.288 280.987 391.544 267.869C380.649 256.656 423.713 251.472 423.713 243.221C423.713 234.864 414.771 234.652 412.407 223.333Z" stroke="#472107" stroke-width="3" stroke-miterlimit="10" stroke-linecap="round" stroke-linejoin="round"/>
<path d="M424.843 461.989C419.191 458.815 425.049 446.861 425.049 446.861C422.891 449.083 418.985 449.823 413.949 449.823C408.913 449.823 410.146 445.592 416.416 439.244C422.685 432.791 426.591 430.887 429.982 429.089C440.054 423.905 438.204 414.808 438.204 414.808L462.768 414.067C462.768 414.067 459.171 424.857 460.404 427.396C467.496 442.524 455.574 458.286 454.751 460.084C453.415 462.941 447.454 464.633 444.268 462.941C439.232 465.797 432.346 463.046 432.038 462.412C429.674 463.787 426.385 462.941 424.843 461.989Z" fill="#F9A48A"/>
<path d="M424.843 461.989C419.191 458.815 425.049 446.861 425.049 446.861C422.891 449.083 418.985 449.823 413.949 449.823C408.913 449.823 410.146 445.592 416.416 439.244C422.685 432.791 426.591 430.887 429.982 429.089C440.054 423.905 438.204 414.808 438.204 414.808L462.768 414.067C462.768 414.067 459.171 424.857 460.404 427.396C467.496 442.524 455.574 458.286 454.751 460.084C453.415 462.941 447.454 464.633 444.268 462.941C439.232 465.797 432.346 463.046 432.038 462.412C429.674 463.787 426.385 462.941 424.843 461.989Z" fill="#F9A48A"/>
<path d="M415.491 442.417C422.274 435.435 427.31 433.637 433.888 430.04C442.932 425.068 441.699 416.499 441.493 414.172L438.307 414.912C438.307 414.912 440.157 424.01 430.085 429.194C426.693 430.992 422.788 432.896 416.518 439.349C410.249 445.802 409.016 449.928 414.052 449.928C412.818 448.024 411.38 446.543 415.491 442.417Z" fill="#F8F4E7"/>
<g opacity="0.43">
<path opacity="0.43" d="M417.546 447.601C416.518 448.658 415.08 449.399 413.332 449.928C413.538 449.928 413.744 449.928 413.949 449.928C414.874 449.928 415.696 449.928 416.518 449.822C417.135 448.447 417.546 447.601 417.546 447.601Z" fill="#F9A48A"/>
<path opacity="0.43" d="M462.768 414.172L456.909 414.384C455.984 417.451 453.723 426.232 454.751 428.453C462.254 444.427 452.49 465.69 446.837 463.786C449.921 463.997 453.621 462.411 454.648 460.295C455.471 458.497 467.393 442.734 460.301 427.607C459.171 424.962 462.768 414.172 462.768 414.172Z" fill="#F9A48A"/>
</g>
<path d="M424.843 461.989C419.19 458.815 425.049 446.861 425.049 446.861C422.89 449.083 418.779 451.41 413.949 449.823C411.174 448.871 410.146 445.592 416.416 439.244C422.685 432.791 426.59 430.887 429.982 429.089C440.054 423.905 438.204 414.808 438.204 414.808L462.768 414.067C462.768 414.067 459.171 424.857 460.404 427.396C467.495 442.524 455.573 458.286 454.751 460.084C453.415 462.941 447.454 464.633 444.268 462.941C439.232 465.797 432.346 463.046 432.038 462.412C429.674 463.787 426.385 462.941 424.843 461.989Z" stroke="#472107" stroke-width="3" stroke-miterlimit="10" stroke-linecap="round" stroke-linejoin="round"/>
<path d="M433.888 457.969C433.888 457.969 433.579 460.084 432.038 462.517" stroke="#472107" stroke-width="3" stroke-miterlimit="10" stroke-linecap="round" stroke-linejoin="round"/>
<path d="M445.193 457.44C445.193 457.44 444.268 460.296 444.268 463.046" stroke="#472107" stroke-width="3" stroke-miterlimit="10" stroke-linecap="round" stroke-linejoin="round"/>
<path d="M432.141 395.026C432.141 395.026 441.802 390.477 456.19 392.698C470.579 395.026 474.176 395.026 474.176 395.026L469.962 414.173C469.962 414.173 434.607 414.173 432.141 414.173C429.674 414.173 432.141 410.999 432.141 410.999V395.026Z" fill="#FF9F10"/>
<path d="M436.56 410.999V395.026C436.56 395.026 441.802 392.593 450.332 392.169C439.232 391.64 432.141 395.026 432.141 395.026V410.999C432.141 410.999 429.674 414.173 432.141 414.173C432.654 414.173 434.196 414.173 436.56 414.173C434.093 414.173 436.56 410.999 436.56 410.999Z" fill="#F8F4E7"/>
<path d="M432.141 395.026C432.141 395.026 441.802 390.477 456.19 392.698C470.579 395.026 474.176 395.026 474.176 395.026L469.962 414.173C469.962 414.173 434.607 414.173 432.141 414.173C429.674 414.173 432.141 410.999 432.141 410.999V395.026Z" stroke="#472107" stroke-width="3" stroke-miterlimit="10" stroke-linecap="round" stroke-linejoin="round"/>
<path d="M289.795 108.979L277.359 107.392" stroke="#472107" stroke-width="3" stroke-miterlimit="10" stroke-linecap="round" stroke-linejoin="round"/>
<path d="M308.295 132.146L289.281 130.877C282.087 130.454 276.64 123.578 276.948 115.749L277.359 106.546C277.77 98.612 283.834 92.4764 291.028 92.688L310.042 93.3227C317.545 93.5342 323.506 100.41 323.095 108.662L322.684 118.288C322.272 126.434 315.797 132.675 308.295 132.146Z" stroke="#472107" stroke-width="3" stroke-miterlimit="10" stroke-linecap="round" stroke-linejoin="round"/>
<path d="M357.216 135.32L340.361 132.993C333.989 132.146 329.57 125.27 330.392 117.759L331.419 108.979C332.242 101.468 338.1 95.8616 344.472 96.4963L361.327 98.1889C368.008 98.8236 372.838 105.806 371.913 113.634L370.886 122.837C370.063 130.665 363.897 136.272 357.216 135.32Z" stroke="#472107" stroke-width="3" stroke-miterlimit="10" stroke-linecap="round" stroke-linejoin="round"/>
<path d="M407.577 112.47L371.811 108.662" stroke="#472107" stroke-width="3" stroke-miterlimit="10" stroke-linecap="round" stroke-linejoin="round"/>
<path d="M323.609 108.767C323.609 108.767 327.72 106.334 330.906 108.979" stroke="#472107" stroke-width="4" stroke-miterlimit="10" stroke-linecap="round" stroke-linejoin="round"/>
<path d="M402.335 119.134C402.335 119.134 407.988 108.662 413.127 113.951C418.266 119.24 417.649 131.723 411.38 142.936C406.96 150.659 400.28 147.274 402.438 142.936" fill="#F9A48A"/>
<path d="M402.335 119.134C402.335 119.134 407.988 108.662 413.127 113.951C418.266 119.24 417.649 131.723 411.38 142.936C406.96 150.659 400.28 147.274 402.438 142.936" fill="#F9A48A"/>
<path opacity="0.43" d="M413.024 113.951C410.352 111.201 407.68 112.682 405.624 114.586C406.755 114.48 407.885 114.903 409.016 116.067C414.154 121.356 413.538 133.839 407.268 145.052C406.755 146.004 406.138 146.851 405.521 147.485C407.371 147.38 409.53 146.004 411.277 142.831C417.546 131.723 418.163 119.24 413.024 113.951Z" fill="#F9A48A"/>
<path d="M402.644 117.442C402.644 117.442 407.885 108.662 413.024 113.951C418.163 119.24 417.546 131.723 411.277 142.936C406.857 150.659 399.355 148.226 399.355 141.667" stroke="#472107" stroke-width="3" stroke-miterlimit="10" stroke-linecap="round" stroke-linejoin="round"/>
<path d="M384.041 337.372C386.255 337.372 388.049 335.24 388.049 332.612C388.049 329.982 386.255 327.851 384.041 327.851C381.827 327.851 380.033 329.982 380.033 332.612C380.033 335.24 381.827 337.372 384.041 337.372Z" fill="#472107"/>
<path d="M386.259 330.355C388.473 330.355 390.267 328.224 390.267 325.595C390.267 322.965 388.473 320.835 386.259 320.835C384.045 320.835 382.251 322.965 382.251 325.595C382.251 328.224 384.045 330.355 386.259 330.355Z" fill="#FF9F10" stroke="#FF9F10" stroke-width="4" stroke-miterlimit="10" stroke-linecap="round" stroke-linejoin="round"/>
<path d="M366.98 312.828C369.194 312.828 370.989 310.698 370.989 308.068C370.989 305.439 369.194 303.308 366.98 303.308C364.766 303.308 362.972 305.439 362.972 308.068C362.972 310.698 364.766 312.828 366.98 312.828Z" fill="#472107"/>
<path d="M366.98 312.828C369.194 312.828 370.989 310.698 370.989 308.068C370.989 305.439 369.194 303.308 366.98 303.308C364.766 303.308 362.972 305.439 362.972 308.068C362.972 310.698 364.766 312.828 366.98 312.828Z" fill="#FF9F10" stroke="#FF9F10" stroke-width="4" stroke-miterlimit="10" stroke-linecap="round" stroke-linejoin="round"/>
<path d="M393.334 271.607C393.334 271.607 397.342 272.348 398.987 276.579" stroke="#472107" stroke-width="3" stroke-miterlimit="10" stroke-linecap="round" stroke-linejoin="round"/>
<path d="M405.11 131.087C405.11 131.087 406.035 125.269 410.146 124" stroke="#472107" stroke-width="3" stroke-miterlimit="10" stroke-linecap="round" stroke-linejoin="round"/>
<path d="M339.95 49.8444C339.95 49.8444 338.922 49.8444 337.278 49.2096C336.456 48.8923 335.531 48.4691 334.4 47.8344C333.372 47.1997 332.139 46.565 330.906 45.7187C330.289 45.2955 329.57 44.8724 328.953 44.4493C328.336 44.0261 327.617 43.4972 326.897 43.074C325.458 42.1219 324.02 40.9583 322.581 39.7947C321.861 39.1599 321.142 38.631 320.32 37.9963C319.6 37.3616 318.881 36.7268 318.161 36.0921C316.722 34.8227 315.284 33.3417 313.845 31.9664C313.125 31.2259 312.406 30.4854 311.789 29.8507C311.07 29.1102 310.453 28.3697 309.734 27.6292C308.398 26.1482 307.164 24.6672 305.931 23.1862C304.8 21.7052 303.67 20.2242 302.642 18.8489C301.614 17.4737 300.689 16.0985 299.867 14.9348C299.045 13.6654 298.325 12.5017 297.709 11.4439C297.092 10.386 296.578 9.43393 296.167 8.69342C295.345 7.10662 294.934 6.15455 294.934 6.15455C294.831 5.94298 294.934 5.73141 295.139 5.73141C295.242 5.62563 295.448 5.7314 295.551 5.83719C295.551 5.83719 296.27 6.57769 297.401 7.95292C297.914 8.58764 298.634 9.43393 299.353 10.386C300.073 11.3381 300.998 12.396 301.82 13.5596C302.745 14.7233 303.67 15.9927 304.698 17.3679C305.725 18.6374 306.856 20.1184 308.089 21.4936C309.323 22.8688 310.556 24.3498 311.892 25.7251C312.509 26.4656 313.228 27.1003 313.845 27.8408C314.564 28.5813 315.181 29.216 315.9 29.9565C316.62 30.697 317.339 31.3317 317.956 31.9664C318.675 32.6012 319.292 33.3417 320.114 33.9764C320.834 34.6111 321.553 35.2458 322.272 35.8806C322.992 36.5153 323.711 37.0442 324.431 37.6789C325.15 38.3136 325.87 38.8426 326.486 39.3715C327.206 39.9004 327.822 40.4294 328.542 40.9583C329.261 41.4872 329.878 41.9104 330.494 42.4393C331.111 42.8625 331.728 43.2856 332.344 43.7088C333.578 44.555 334.708 45.1898 335.633 45.8245C336.661 46.4592 337.483 46.9881 338.203 47.5171C339.642 48.5749 340.258 49.4212 340.258 49.4212C340.361 49.527 340.361 49.7386 340.155 49.9501C340.053 49.8444 340.053 49.8444 339.95 49.8444Z" fill="#472107"/>
<path d="M369.755 56.9321C369.755 56.9321 369.447 57.461 368.727 57.7784C368.419 57.99 368.008 57.99 367.494 57.99C366.98 57.99 366.466 58.0958 365.85 58.0958C363.486 58.2016 360.402 58.2015 357.216 57.7784C355.675 57.5668 354.133 57.2495 352.694 56.9321C351.975 56.7205 351.255 56.509 350.639 56.4032C350.022 56.1916 349.405 55.98 348.789 55.7684C348.275 55.5569 347.761 55.3453 347.247 55.2395C346.836 55.0279 346.425 54.7106 346.219 54.499C346.014 54.1817 345.808 53.8643 345.705 53.6527C345.603 53.4411 345.603 53.2296 345.603 53.2296C345.603 53.2296 345.705 53.1238 346.014 53.018C346.219 52.9122 346.528 52.8064 346.939 52.7006C347.35 52.5949 347.761 52.5949 348.172 52.7006C348.583 52.8064 349.097 52.9122 349.611 53.1238C350.125 53.2296 350.741 53.4412 351.358 53.5469C351.975 53.6527 352.591 53.8643 353.311 53.9701C354.03 54.0759 354.75 54.2875 355.469 54.3932C356.189 54.499 356.908 54.6048 357.628 54.7106C359.066 54.9222 360.608 55.1337 361.944 55.2395C363.383 55.3453 364.616 55.4511 365.747 55.5569C366.261 55.5569 366.775 55.5569 367.288 55.5569C367.7 55.5569 368.111 55.5569 368.522 55.7684C368.83 55.8742 369.138 56.0858 369.344 56.1916C369.55 56.2974 369.652 56.4032 369.652 56.4032C369.858 56.509 369.858 56.8263 369.755 56.9321Z" fill="#472107"/>
<path d="M391.03 44.4493C391.03 44.4493 389.591 45.1898 387.022 45.613C385.685 45.8246 384.144 45.9303 382.294 45.8246C380.444 45.7188 378.388 45.613 376.23 45.4014C373.969 45.1899 371.605 44.7667 369.036 44.2378C366.569 43.7088 363.897 43.0741 361.225 42.2278C359.889 41.8047 358.553 41.2757 357.216 40.8526C355.88 40.3237 354.544 39.7947 353.105 39.16C351.769 38.5253 350.433 37.9964 349.097 37.2559C348.48 36.9385 347.761 36.6211 347.144 36.198L345.192 35.0343C342.622 33.5533 340.053 31.8608 337.689 30.0624C336.456 29.2161 335.325 28.264 334.194 27.4177C333.064 26.4656 332.036 25.5136 330.906 24.6673C328.85 22.7631 326.795 20.859 325.047 18.9548C324.122 18.0027 323.3 17.0506 322.478 16.2043C321.656 15.2523 320.834 14.406 320.217 13.5597C318.778 11.7613 317.442 10.1745 316.517 8.58773C315.489 7.10672 314.564 5.73149 313.948 4.56784C312.611 2.24053 311.995 0.86531 311.995 0.86531C311.892 0.653737 311.995 0.336371 312.2 0.230584C312.406 0.124798 312.611 0.230591 312.714 0.336377C312.714 0.336377 313.742 1.50003 315.386 3.50997C316.209 4.56784 317.236 5.73149 318.367 7.2125C319.497 8.69351 320.834 10.1745 322.17 11.8671C322.889 12.7134 323.711 13.5597 324.431 14.406C325.253 15.2523 326.075 16.2044 327 17.0506C328.747 18.849 330.7 20.6474 332.756 22.5515C333.783 23.3978 334.914 24.3499 335.942 25.1962C337.072 26.0425 338.203 26.8888 339.333 27.7351C341.697 29.4277 344.164 31.0145 346.63 32.3897C347.864 33.1302 349.2 33.7649 350.433 34.5054C351.667 35.1401 353.003 35.7749 354.339 36.4096C355.675 37.0443 356.908 37.4674 358.244 37.9964C359.58 38.4195 360.814 38.9484 362.15 39.3716C364.719 40.2179 367.289 40.9584 369.652 41.4873C372.119 42.0162 374.38 42.4394 376.538 42.7568C378.697 43.0741 380.649 43.2857 382.397 43.3915C384.144 43.4973 385.686 43.603 386.919 43.7088C389.488 44.0262 390.927 44.3436 390.927 44.3436C391.03 44.2378 391.03 44.3435 391.03 44.4493C391.03 44.4493 391.03 44.3435 391.03 44.4493Z" fill="#472107"/>
<path d="M229.465 264.378C232.035 247.558 210.657 240.894 202.23 247.981C198.016 270.937 180.544 285.218 201.51 294.104C214.049 299.394 214.871 291.037 221.449 297.913C230.185 306.905 236.454 310.501 236.454 310.501L254.44 294.104C250.123 290.825 226.999 280.458 229.465 264.378Z" fill="#F9A48A"/>
<path opacity="0.43" d="M225.354 295.904C217.749 286.7 215.899 290.932 206.854 287.864C185.888 280.565 198.632 268.505 203.874 246.819C203.257 247.136 202.743 247.559 202.23 247.877C198.016 270.832 180.544 285.114 201.51 294C214.049 299.289 214.871 290.932 221.449 297.808C230.185 306.8 236.454 310.396 236.454 310.396L239.537 307.54C238.407 307.011 232.754 304.896 225.354 295.904Z" fill="#F9A48A"/>
<path d="M227.102 263.32C225.868 280.352 246.423 291.671 256.496 295.903L254.44 294.104C250.226 290.825 226.999 280.458 229.465 264.378C231.932 248.616 211.685 241.74 202.23 247.981C210.349 242.904 228.027 248.933 227.102 263.32Z" fill="#F8F4E7"/>
<path d="M229.465 264.378C232.035 247.558 210.657 240.894 202.23 247.981C195.446 253.165 180.544 285.218 201.51 294.104C214.049 299.394 214.871 291.037 221.449 297.913C230.185 306.905 236.454 310.501 236.454 310.501L254.44 294.104C250.123 290.825 226.999 280.458 229.465 264.378Z" stroke="#472107" stroke-width="3" stroke-miterlimit="10" stroke-linecap="round" stroke-linejoin="round"/>
<path d="M187.327 237.615H173.452V245.126H187.327C190.616 245.126 193.288 248.3 193.288 252.108V264.168C193.288 268.082 190.616 271.15 187.327 271.15H173.452V278.661H187.327C194.11 278.661 199.557 272.208 199.557 264.168V252.108C199.557 244.068 194.11 237.615 187.327 237.615Z" fill="#5B2F15"/>
<path opacity="0.42" d="M187.327 237.615H173.452V245.126H187.327C190.616 245.126 193.288 248.3 193.288 252.108V264.168C193.288 268.082 190.616 271.15 187.327 271.15H173.452V278.661H187.327C194.11 278.661 199.557 272.208 199.557 264.168V252.108C199.557 244.068 194.11 237.615 187.327 237.615Z" fill="#FF9F10"/>
<path d="M187.327 237.615H173.452V245.126H186.094C189.382 245.126 192.055 248.3 192.055 252.108V264.168C192.055 268.082 189.382 271.15 186.094 271.15H173.452V278.661H187.327C194.11 278.661 199.557 272.208 199.557 264.168V252.108C199.557 244.068 194.11 237.615 187.327 237.615Z" stroke="#472107" stroke-width="3" stroke-miterlimit="10" stroke-linecap="round" stroke-linejoin="round"/>
<path d="M125.045 225.767C122.064 238.356 122.27 252.954 125.661 265.543C128.436 275.487 133.575 282.998 138.714 287.864H167.8C173.041 283.104 178.18 275.593 180.852 265.543C184.347 252.954 184.449 238.356 181.469 225.767H125.045Z" fill="#5B2F15"/>
<path d="M125.045 225.767C122.064 238.356 122.27 252.954 125.661 265.543C128.436 275.487 133.575 282.998 138.714 287.864H167.8C173.041 283.104 178.18 275.593 180.852 265.543C184.347 252.954 184.449 238.356 181.469 225.767H125.045Z" fill="#FF9F10"/>
<path d="M129.258 265.648C125.764 253.059 125.661 238.461 128.642 225.872H125.147C122.167 238.461 122.372 253.059 125.764 265.648C128.539 275.592 133.678 283.102 138.817 287.969H142.311C137.172 283.102 131.931 275.592 129.258 265.648Z" fill="#F8F4E7"/>
<path opacity="0.42" d="M181.674 225.767H172.013C174.891 239.308 175.302 256.763 172.013 268.082C169.649 276.122 163.38 287.123 156.802 287.864H167.902C173.144 283.104 178.283 275.593 180.955 265.543C184.449 252.954 184.552 238.356 181.674 225.767Z" fill="#939EC5"/>
<path d="M125.045 225.767C122.064 238.356 122.27 252.954 125.661 265.543C128.436 275.487 133.575 282.998 138.714 287.864H167.8C173.041 283.104 178.18 275.593 180.852 265.543C184.347 252.954 184.449 238.356 181.469 225.767H125.045Z" stroke="#472107" stroke-width="3" stroke-miterlimit="10" stroke-linecap="round" stroke-linejoin="round"/>
<path d="M195.241 287.124C202.949 286.171 206.443 280.565 202.127 276.968C200.071 275.17 191.13 275.91 188.149 277.814C184.963 279.93 188.458 287.97 195.241 287.124Z" fill="#F9A48A"/>
<path d="M195.241 287.124C202.949 286.171 206.443 280.565 202.127 276.968C200.071 275.17 191.13 275.91 188.149 277.814C184.963 279.93 188.458 287.97 195.241 287.124Z" stroke="#472107" stroke-width="3" stroke-miterlimit="10" stroke-linecap="round" stroke-linejoin="round"/>
<path d="M188.663 270.408C194.727 269.879 199.763 267.552 198.53 263.426C197.605 260.358 189.382 256.656 185.374 259.935C182.599 262.263 183.01 270.831 188.663 270.408Z" fill="#F9A48A"/>
<path d="M188.663 270.408C194.727 269.879 199.763 267.552 198.53 263.426C197.605 260.358 189.382 256.656 185.374 259.935C182.599 262.263 183.01 270.831 188.663 270.408Z" stroke="#472107" stroke-width="3" stroke-miterlimit="10" stroke-linecap="round" stroke-linejoin="round"/>
<path d="M189.485 258.243C200.277 259.618 206.443 252.636 197.913 247.664C194.11 245.443 187.224 244.173 184.449 247.452C181.674 250.838 184.758 257.714 189.485 258.243Z" fill="#F9A48A"/>
<path d="M189.485 258.243C200.277 259.618 206.443 252.636 197.913 247.664C194.11 245.443 187.224 244.173 184.449 247.452C181.674 250.838 184.758 257.714 189.485 258.243Z" stroke="#472107" stroke-width="3" stroke-miterlimit="10" stroke-linecap="round" stroke-linejoin="round"/>
<path d="M209.938 281.304C209.938 281.304 204.388 275.803 206.341 268.292C208.293 260.782 209.938 258.454 209.938 258.454C209.938 258.454 198.427 260.676 198.427 255.915C198.427 251.155 201.407 243.538 215.59 245.76" fill="#F9A48A"/>
<path d="M209.938 281.304C209.938 281.304 205.621 276.015 206.341 268.292C207.06 260.782 211.171 258.031 211.171 258.031C211.171 258.031 198.016 261.734 196.988 257.079C195.96 252.424 201.819 242.057 217.646 246.395" stroke="#472107" stroke-width="3" stroke-miterlimit="10" stroke-linecap="round" stroke-linejoin="round"/>
<path d="M328.645 182.818C328.645 182.818 332.961 183.77 335.428 181.231" stroke="#472107" stroke-width="3" stroke-miterlimit="10" stroke-linecap="round" stroke-linejoin="round"/>
<path d="M233.576 315.792C233.576 315.792 242.621 325.524 246.835 329.861C252.487 328.803 248.993 332.4 252.487 328.803C255.982 325.207 281.47 302.886 281.47 302.886L261.943 287.97C261.943 287.864 233.576 309.973 233.576 315.792Z" fill="#FF9F10"/>
<path d="M251.357 325.736C248.376 324.149 238.099 311.666 238.099 311.666C238.099 309.55 241.901 305.213 246.732 300.558C239.949 306.588 233.576 313.041 233.576 315.792C233.576 315.792 242.621 325.524 246.835 329.861C252.487 328.803 248.993 332.4 252.487 328.803C253.001 328.274 253.926 327.428 255.159 326.265C254.851 326.159 254.337 327.217 251.357 325.736Z" fill="#FF9F10"/>
<path d="M257.934 323.726C266.465 316.003 281.573 302.78 281.573 302.78L281.47 302.674C274.584 308.81 261.943 319.917 257.934 323.726Z" fill="#342B26"/>
<path d="M261.943 287.864C261.943 287.864 260.709 288.816 258.859 290.297L278.284 305.213C278.284 305.213 256.187 324.572 250.329 330.179C250.74 330.602 250.535 330.813 252.487 328.803C255.982 325.207 281.47 302.886 281.47 302.886L261.943 287.864Z" fill="#F8F4E7"/>
<path d="M233.576 315.792C233.576 315.792 247.348 334.093 252.487 328.803C255.982 325.207 281.47 302.886 281.47 302.886L261.943 287.97C261.943 287.864 233.576 309.973 233.576 315.792Z" stroke="#472107" stroke-width="3" stroke-miterlimit="10" stroke-linecap="round" stroke-linejoin="round"/>
<path d="M143.133 171.181C143.133 171.181 137.686 181.549 140.461 189.8C143.236 197.945 146.114 201.86 143.133 207.784" stroke="#472107" stroke-width="3" stroke-miterlimit="10" stroke-linecap="round" stroke-linejoin="round"/>
</svg>
