<svg width="1206" height="459" viewBox="0 0 1206 459" fill="none" xmlns="http://www.w3.org/2000/svg">
<g opacity="0.8">
<path d="M944.288 94.2999H930.288" stroke="#F0E7C4" stroke-width="8" stroke-miterlimit="10" stroke-linecap="round" stroke-linejoin="round"/>
<path d="M257.436 340.69C249.623 334.722 245.41 327.11 248.024 323.686C250.639 320.263 259.092 322.325 266.905 328.292C274.717 334.259 278.931 341.872 276.316 345.296C273.701 348.719 265.248 346.657 257.436 340.69Z" fill="#FDC858"/>
<path d="M257.479 309.005C249.667 303.038 245.454 295.425 248.068 292.002C250.683 288.578 259.136 290.64 266.949 296.608C274.761 302.575 278.975 310.188 276.36 313.611C273.745 317.034 265.292 314.972 257.479 309.005Z" fill="#FDC858"/>
<path d="M257.45 417.594C249.637 411.627 245.424 404.014 248.039 400.591C250.653 397.167 259.106 399.229 266.919 405.197C274.731 411.164 278.944 418.776 276.33 422.2C273.715 425.623 265.262 423.561 257.45 417.594Z" fill="#FDC858"/>
<path d="M257.436 378.09C249.624 372.123 245.41 364.51 248.025 361.087C250.64 357.663 259.093 359.725 266.905 365.693C274.718 371.66 278.931 379.272 276.316 382.696C273.702 386.119 265.248 384.057 257.436 378.09Z" fill="#FDC858"/>
<path d="M257.436 340.69C249.623 334.722 245.41 327.11 248.024 323.686C250.639 320.263 259.092 322.325 266.905 328.292C274.717 334.259 278.931 341.872 276.316 345.296C273.701 348.719 265.248 346.657 257.436 340.69Z" stroke="#48230B" stroke-width="8" stroke-miterlimit="10" stroke-linecap="round" stroke-linejoin="round"/>
<path d="M257.479 309.005C249.667 303.038 245.454 295.425 248.068 292.002C250.683 288.578 259.136 290.64 266.949 296.608C274.761 302.575 278.975 310.188 276.36 313.611C273.745 317.034 265.292 314.972 257.479 309.005Z" stroke="#48230B" stroke-width="8" stroke-miterlimit="10" stroke-linecap="round" stroke-linejoin="round"/>
<path d="M257.45 417.594C249.637 411.627 245.424 404.014 248.039 400.591C250.653 397.167 259.106 399.229 266.919 405.197C274.731 411.164 278.944 418.776 276.33 422.2C273.715 425.623 265.262 423.561 257.45 417.594Z" stroke="#48230B" stroke-width="8" stroke-miterlimit="10" stroke-linecap="round" stroke-linejoin="round"/>
<path d="M257.436 378.09C249.624 372.123 245.41 364.51 248.025 361.087C250.64 357.663 259.093 359.725 266.905 365.693C274.718 371.66 278.931 379.272 276.316 382.696C273.702 386.119 265.248 384.057 257.436 378.09Z" stroke="#48230B" stroke-width="8" stroke-miterlimit="10" stroke-linecap="round" stroke-linejoin="round"/>
<path d="M276.41 313.738C273.796 310.314 278.009 302.702 285.821 296.735C293.634 290.767 302.087 288.705 304.702 292.129C307.317 295.552 303.103 303.165 295.291 309.132C287.478 315.099 279.025 317.161 276.41 313.738Z" fill="#FDC858"/>
<path d="M276.459 406.363C273.844 402.939 278.057 395.327 285.87 389.36C293.682 383.392 302.135 381.33 304.75 384.754C307.365 388.177 303.151 395.79 295.339 401.757C287.527 407.724 279.074 409.786 276.459 406.363Z" fill="#FDC858"/>
<path d="M276.435 366.751C273.82 363.327 278.034 355.715 285.846 349.747C293.659 343.78 302.112 341.718 304.727 345.141C307.341 348.565 303.128 356.177 295.316 362.145C287.503 368.112 279.05 370.174 276.435 366.751Z" fill="#FDC858"/>
<path d="M276.41 313.738C273.796 310.314 278.009 302.702 285.821 296.735C293.634 290.767 302.087 288.705 304.702 292.129C307.317 295.552 303.103 303.165 295.291 309.132C287.478 315.099 279.025 317.161 276.41 313.738Z" stroke="#48230B" stroke-width="8" stroke-miterlimit="10" stroke-linecap="round" stroke-linejoin="round"/>
<path d="M276.459 406.363C273.844 402.939 278.057 395.327 285.87 389.36C293.682 383.392 302.135 381.33 304.75 384.754C307.365 388.177 303.151 395.79 295.339 401.757C287.527 407.724 279.074 409.786 276.459 406.363Z" stroke="#48230B" stroke-width="8" stroke-miterlimit="10" stroke-linecap="round" stroke-linejoin="round"/>
<path d="M276.435 366.751C273.82 363.327 278.034 355.715 285.846 349.747C293.659 343.78 302.112 341.718 304.727 345.141C307.341 348.565 303.128 356.177 295.316 362.145C287.503 368.112 279.05 370.174 276.435 366.751Z" stroke="#48230B" stroke-width="8" stroke-miterlimit="10" stroke-linecap="round" stroke-linejoin="round"/>
<path d="M276.403 307.8V453.1" stroke="#48230B" stroke-width="8" stroke-miterlimit="10" stroke-linecap="round" stroke-linejoin="round"/>
<path d="M204.429 425.276C196.616 419.309 192.403 411.697 195.018 408.273C197.632 404.85 206.085 406.912 213.898 412.879C221.71 418.846 225.924 426.459 223.309 429.882C220.694 433.306 212.241 431.244 204.429 425.276Z" stroke="#48230B" stroke-width="8" stroke-miterlimit="10" stroke-linecap="round" stroke-linejoin="round"/>
<path d="M204.429 392.077C196.616 386.11 192.403 378.497 195.018 375.074C197.632 371.651 206.085 373.713 213.898 379.68C221.71 385.647 225.924 393.26 223.309 396.683C220.694 400.107 212.241 398.045 204.429 392.077Z" stroke="#48230B" stroke-width="8" stroke-miterlimit="10" stroke-linecap="round" stroke-linejoin="round"/>
<path d="M204.451 362.085C196.639 356.118 192.425 348.505 195.04 345.082C197.655 341.658 206.108 343.721 213.92 349.688C221.733 355.655 225.946 363.268 223.331 366.691C220.717 370.114 212.264 368.052 204.451 362.085Z" stroke="#48230B" stroke-width="8" stroke-miterlimit="10" stroke-linecap="round" stroke-linejoin="round"/>
<path d="M223.462 406.354C220.848 402.931 225.061 395.318 232.874 389.351C240.686 383.384 249.139 381.321 251.754 384.745C254.369 388.168 250.155 395.781 242.343 401.748C234.53 407.715 226.077 409.778 223.462 406.354Z" stroke="#48230B" stroke-width="8" stroke-miterlimit="10" stroke-linecap="round" stroke-linejoin="round"/>
<path d="M223.439 366.743C220.824 363.319 225.038 355.707 232.85 349.74C240.663 343.772 249.115 341.71 251.73 345.134C254.345 348.557 250.132 356.17 242.319 362.137C234.507 368.104 226.054 370.166 223.439 366.743Z" stroke="#48230B" stroke-width="8" stroke-miterlimit="10" stroke-linecap="round" stroke-linejoin="round"/>
<path d="M223.403 362.6V453.1" stroke="#48230B" stroke-width="8" stroke-miterlimit="10" stroke-linecap="round" stroke-linejoin="round"/>
<path d="M767.687 455C792.987 455 813.587 434.4 813.587 409.1C813.587 383.8 792.987 363.2 767.687 363.2C742.387 363.2 721.787 383.8 721.787 409.1C721.787 434.4 742.387 455 767.687 455Z" fill="#341806"/>
<path d="M767.687 455C792.987 455 813.587 434.4 813.587 409.1C813.587 383.8 792.987 363.2 767.687 363.2C742.387 363.2 721.787 383.8 721.787 409.1C721.787 434.4 742.387 455 767.687 455Z" stroke="#341806" stroke-width="8" stroke-miterlimit="10" stroke-linecap="round" stroke-linejoin="round"/>
<path d="M767.688 433.1C780.887 433.1 791.688 422.3 791.688 409.1C791.688 395.9 780.887 385.1 767.688 385.1C754.488 385.1 743.688 395.9 743.688 409.1C743.688 422.3 754.488 433.1 767.688 433.1Z" fill="#FDC858"/>
<path d="M767.688 433.1C780.887 433.1 791.688 422.3 791.688 409.1C791.688 395.9 780.887 385.1 767.688 385.1C754.488 385.1 743.688 395.9 743.688 409.1C743.688 422.3 754.488 433.1 767.688 433.1Z" stroke="#341806" stroke-width="8" stroke-miterlimit="10" stroke-linecap="round" stroke-linejoin="round"/>
<path d="M767.687 417C772.087 417 775.587 413.4 775.587 409.1C775.587 404.7 771.987 401.2 767.687 401.2C763.287 401.2 759.787 404.8 759.787 409.1C759.787 413.4 763.287 417 767.687 417Z" fill="#FDC858"/>
<path d="M767.687 417C772.087 417 775.587 413.4 775.587 409.1C775.587 404.7 771.987 401.2 767.687 401.2C763.287 401.2 759.787 404.8 759.787 409.1C759.787 413.4 763.287 417 767.687 417Z" stroke="#48230B" stroke-width="8" stroke-miterlimit="10" stroke-linecap="round" stroke-linejoin="round"/>
<path d="M400.687 269.4L410.087 233.7C413.787 219.4 425.987 209 440.687 207.4C482.687 202.9 533.587 200.3 592.987 200.3C660.987 200.3 765.487 205.5 796.887 209.1C802.587 209.7 807.487 213.4 809.787 218.7L828.687 262.9C837.387 278.5 842.687 295.7 844.187 313.5L844.587 412.9L823.487 413.3C823.587 411.9 823.687 410.5 823.687 409.1C823.687 378.2 798.687 353.2 767.787 353.2C736.887 353.2 711.887 378.2 711.887 409.1C711.887 410.9 711.987 412.7 712.187 414.4L565.187 416.2C565.487 413.9 565.687 411.5 565.687 409.1C565.687 378.2 540.687 353.2 509.787 353.2C478.887 353.2 453.887 378.2 453.887 409.1C453.887 411.9 454.087 414.6 454.487 417.3L395.187 417.9V314.3C394.887 299.2 396.887 284.1 400.687 269.4Z" fill="#DF8448"/>
<g opacity="0.36">
<path opacity="0.36" d="M833.387 412.9L832.987 313.5C831.487 295.7 826.187 278.5 817.487 262.9L798.587 218.7C796.287 213.4 791.387 209.8 785.687 209.1C755.187 205.6 655.887 200.6 587.887 200.3C589.587 200.3 591.287 200.3 592.987 200.3C660.987 200.3 765.487 205.5 796.887 209.1C802.587 209.7 807.487 213.4 809.787 218.7L828.687 262.9C837.387 278.5 842.687 295.7 844.187 313.5L844.587 412.9L823.487 413.3C823.487 413.2 823.487 413.2 823.487 413.1L833.387 412.9Z" fill="#DF8448"/>
<path opacity="0.36" d="M443.087 417.3C442.687 414.6 442.487 411.9 442.487 409.1C442.487 378.2 467.487 353.2 498.387 353.2C500.287 353.2 502.087 353.3 503.987 353.5C475.687 356.3 453.687 380.1 453.687 409.1C453.687 411.9 453.887 414.6 454.287 417.3L394.987 417.9V417.8L443.087 417.3Z" fill="#DF8448"/>
<path opacity="0.36" d="M700.887 414.3C700.687 412.6 700.587 410.8 700.587 409C700.587 378.1 725.587 353.1 756.487 353.1C758.387 353.1 760.187 353.2 762.087 353.4C733.787 356.2 711.787 380 711.787 409C711.787 410.8 711.887 412.6 712.087 414.3L565.087 416.1V416L700.887 414.3Z" fill="#DF8448"/>
</g>
<path opacity="0.36" d="M700.688 405.3H567.088V392H703.288C701.888 396.3 701.088 400.7 700.688 405.3Z" fill="#DF8448"/>
<g opacity="0.25">
<path opacity="0.25" d="M398.687 268.4L408.087 232.7C411.787 218.4 423.987 208 438.687 206.4C480.687 201.9 531.588 199.3 590.988 199.3C658.988 199.3 763.487 204.5 794.887 208.1C799.787 208.7 804.188 211.5 806.688 215.7C806.688 215.7 806.687 214 806.587 214C775.187 210.4 670.688 206.9 602.688 206.9C543.188 206.9 492.387 209.5 450.387 214C435.687 215.6 423.588 226 419.788 240.3L410.387 276C406.487 290.7 404.587 305.8 404.587 320.9V416.8L392.788 416.9V313.3C392.888 298.2 394.887 283.1 398.687 268.4Z" fill="#DF8448"/>
</g>
<path d="M400.687 269.4L410.087 233.7C413.787 219.4 425.987 209 440.687 207.4C482.687 202.9 533.587 200.3 592.987 200.3C660.987 200.3 765.487 205.5 796.887 209.1C802.587 209.7 807.487 213.4 809.787 218.7L828.687 262.9C837.387 278.5 842.687 295.7 844.187 313.5L844.587 412.9L823.487 413.3C823.587 411.9 823.687 410.5 823.687 409.1C823.687 378.2 798.687 353.2 767.787 353.2C736.887 353.2 711.887 378.2 711.887 409.1C711.887 410.9 711.987 412.7 712.187 414.4L565.187 416.2C565.487 413.9 565.687 411.5 565.687 409.1C565.687 378.2 540.687 353.2 509.787 353.2C478.887 353.2 453.887 378.2 453.887 409.1C453.887 411.9 454.087 414.6 454.487 417.3L395.187 417.9V314.3C394.887 299.2 396.887 284.1 400.687 269.4Z" stroke="#48230B" stroke-width="8" stroke-miterlimit="10" stroke-linecap="round" stroke-linejoin="round"/>
<path d="M509.588 455C534.888 455 555.488 434.4 555.488 409.1C555.488 383.8 534.888 363.2 509.588 363.2C484.288 363.2 463.688 383.8 463.688 409.1C463.688 434.4 484.288 455 509.588 455Z" fill="#341806"/>
<path d="M509.588 455C534.888 455 555.488 434.4 555.488 409.1C555.488 383.8 534.888 363.2 509.588 363.2C484.288 363.2 463.688 383.8 463.688 409.1C463.688 434.4 484.288 455 509.588 455Z" stroke="#341806" stroke-width="8" stroke-miterlimit="10" stroke-linecap="round" stroke-linejoin="round"/>
<path d="M509.588 433.1C522.788 433.1 533.588 422.3 533.588 409.1C533.588 395.9 522.788 385.1 509.588 385.1C496.388 385.1 485.588 395.9 485.588 409.1C485.588 422.3 496.388 433.1 509.588 433.1Z" fill="#FDC858"/>
<path d="M509.588 433.1C522.788 433.1 533.588 422.3 533.588 409.1C533.588 395.9 522.788 385.1 509.588 385.1C496.388 385.1 485.588 395.9 485.588 409.1C485.588 422.3 496.388 433.1 509.588 433.1Z" stroke="#341806" stroke-width="8" stroke-miterlimit="10" stroke-linecap="round" stroke-linejoin="round"/>
<path d="M509.588 417C513.988 417 517.488 413.4 517.488 409.1C517.488 404.7 513.888 401.2 509.588 401.2C505.188 401.2 501.688 404.8 501.688 409.1C501.688 413.4 505.188 417 509.588 417Z" fill="#FDC858"/>
<path d="M509.588 417C513.988 417 517.488 413.4 517.488 409.1C517.488 404.7 513.888 401.2 509.588 401.2C505.188 401.2 501.688 404.8 501.688 409.1C501.688 413.4 505.188 417 509.588 417Z" stroke="#48230B" stroke-width="8" stroke-miterlimit="10" stroke-linecap="round" stroke-linejoin="round"/>
<path d="M844.587 421.8H855.487C859.987 421.8 863.587 418.2 863.587 413.7V381.4C863.587 376.9 859.987 373.3 855.487 373.3H844.587V421.8Z" fill="white"/>
<path d="M844.587 421.8H855.487C859.987 421.8 863.587 418.2 863.587 413.7V381.4C863.587 376.9 859.987 373.3 855.487 373.3H844.587V421.8Z" stroke="#48230B" stroke-width="8" stroke-miterlimit="10" stroke-linecap="round" stroke-linejoin="round"/>
<path d="M842.987 360.3H846.987C849.987 360.3 852.387 357.9 852.387 354.9V330.1C852.387 327.1 849.987 324.7 846.987 324.7H842.987C839.987 324.7 837.587 327.1 837.587 330.1V354.9C837.587 357.9 839.987 360.3 842.987 360.3Z" fill="white"/>
<path d="M842.987 360.3H846.987C849.987 360.3 852.387 357.9 852.387 354.9V330.1C852.387 327.1 849.987 324.7 846.987 324.7H842.987C839.987 324.7 837.587 327.1 837.587 330.1V354.9C837.587 357.9 839.987 360.3 842.987 360.3Z" stroke="#48230B" stroke-width="8" stroke-miterlimit="10" stroke-linecap="round" stroke-linejoin="round"/>
<path d="M387.288 429.5H430.288C435.288 429.5 439.288 425.5 439.288 420.5V413.5C439.288 408.5 435.288 404.5 430.288 404.5H387.288C382.288 404.5 378.288 408.5 378.288 413.5V420.5C378.288 425.4 382.388 429.5 387.288 429.5Z" fill="white"/>
<path d="M429.688 419.8C429.688 417.3 427.588 415.2 425.088 415.2H378.388V413.5C378.388 408.5 382.388 404.5 387.388 404.5H430.388C435.388 404.5 439.388 408.5 439.388 413.5V420.5C439.388 425.5 435.388 429.5 430.388 429.5H429.688V419.8Z" fill="#D8D8D8"/>
<path d="M387.288 429.5H430.288C435.288 429.5 439.288 425.5 439.288 420.5V413.5C439.288 408.5 435.288 404.5 430.288 404.5H387.288C382.288 404.5 378.288 408.5 378.288 413.5V420.5C378.288 425.4 382.388 429.5 387.288 429.5Z" stroke="#48230B" stroke-width="8" stroke-miterlimit="10" stroke-linecap="round" stroke-linejoin="round"/>
<path d="M460.088 292.6H506.388C511.688 292.6 515.988 288.3 515.988 283V236.3C515.988 231 511.688 226.7 506.388 226.7H478.288C467.188 226.7 457.788 234.8 456.088 245.8L450.688 281.5C449.688 287.4 454.188 292.6 460.088 292.6Z" fill="#FDC858"/>
<path opacity="0.56" d="M496.388 247.8C496.388 242.5 492.088 238.2 486.788 238.2H458.688C462.588 231.3 469.988 226.8 478.288 226.8H506.388C511.688 226.8 515.988 231.1 515.988 236.4V283.1C515.988 288.4 511.688 292.7 506.388 292.7H496.388V247.8Z" fill="#FDC858"/>
<path d="M460.088 292.6H506.388C511.688 292.6 515.988 288.3 515.988 283V236.3C515.988 231 511.688 226.7 506.388 226.7H478.288C467.188 226.7 457.788 234.8 456.088 245.8L450.688 281.5C449.688 287.4 454.188 292.6 460.088 292.6Z" stroke="#48230B" stroke-width="8" stroke-miterlimit="10" stroke-linecap="round" stroke-linejoin="round"/>
<path d="M546.788 291.6H648.988C654.288 291.6 658.588 287.3 658.588 282V235.3C658.588 230 654.288 225.7 648.988 225.7H546.788C541.488 225.7 537.188 230 537.188 235.3V282C537.288 287.3 541.488 291.6 546.788 291.6Z" fill="#FDC858"/>
<path opacity="0.56" d="M640.088 245.6C640.088 240.3 635.788 236 630.488 236H537.288V235.3C537.288 230 541.588 225.7 546.888 225.7H648.988C654.288 225.7 658.588 230 658.588 235.3V282C658.588 287.3 654.288 291.6 648.988 291.6H639.988V245.6H640.088Z" fill="#FDC858"/>
<path d="M546.788 291.6H648.988C654.288 291.6 658.588 287.3 658.588 282V235.3C658.588 230 654.288 225.7 648.988 225.7H546.788C541.488 225.7 537.188 230 537.188 235.3V282C537.288 287.3 541.488 291.6 546.788 291.6Z" stroke="#48230B" stroke-width="8" stroke-miterlimit="10" stroke-linecap="round" stroke-linejoin="round"/>
<path d="M705.087 292.6H801.387C806.787 292.6 810.687 286.6 809.187 280.5L798.087 233.8C797.087 229.7 793.887 226.8 790.287 226.8H705.087C700.587 226.8 696.987 231.1 696.987 236.4V283.1C696.887 288.3 700.587 292.6 705.087 292.6Z" fill="#FDC858"/>
<path opacity="0.56" d="M791.187 290.3L780.087 243.6C779.087 239.5 775.887 236.6 772.287 236.6H696.987V236.3C696.987 231 700.587 226.7 705.087 226.7H790.287C793.887 226.7 797.087 229.6 798.087 233.7L809.187 280.4C810.587 286.5 806.787 292.5 801.387 292.5H791.487C791.387 291.8 791.287 291.1 791.187 290.3Z" fill="#FDC858"/>
<path d="M705.087 292.6H801.387C806.787 292.6 810.687 286.6 809.187 280.5L798.087 233.8C797.087 229.7 793.887 226.8 790.287 226.8H705.087C700.587 226.8 696.987 231.1 696.987 236.4V283.1C696.887 288.3 700.587 292.6 705.087 292.6Z" stroke="#48230B" stroke-width="8" stroke-miterlimit="10" stroke-linecap="round" stroke-linejoin="round"/>
<path opacity="0.48" d="M695.188 205C683.788 205 674.588 214.2 674.588 225.6V414.8" stroke="#48230B" stroke-width="2" stroke-miterlimit="10" stroke-linecap="round" stroke-linejoin="round"/>
<path d="M721.788 316.6H691.788" stroke="#48230B" stroke-width="8" stroke-miterlimit="10" stroke-linecap="round" stroke-linejoin="round"/>
<path d="M566.088 314.3H540.488" stroke="#48230B" stroke-width="8" stroke-miterlimit="10" stroke-linecap="round" stroke-linejoin="round"/>
<path d="M392.288 383.8H396.188V288.3H392.288C385.688 288.3 380.288 293.7 380.288 300.3V371.8C380.288 378.4 385.688 383.8 392.288 383.8Z" fill="#D8D8D8"/>
<path d="M392.288 383.8H396.188V288.3H392.288C385.688 288.3 380.288 293.7 380.288 300.3V371.8C380.288 378.4 385.688 383.8 392.288 383.8Z" stroke="#48230B" stroke-width="8" stroke-miterlimit="10" stroke-linecap="round" stroke-linejoin="round"/>
<path d="M439.288 236.8H427.188" stroke="#48230B" stroke-width="8" stroke-miterlimit="10" stroke-linecap="round" stroke-linejoin="round"/>
<path d="M434.288 254H422.188" stroke="#48230B" stroke-width="8" stroke-miterlimit="10" stroke-linecap="round" stroke-linejoin="round"/>
<path d="M429.588 271.1H417.488" stroke="#48230B" stroke-width="8" stroke-miterlimit="10" stroke-linecap="round" stroke-linejoin="round"/>
<path d="M427.588 288.3H415.388" stroke="#48230B" stroke-width="8" stroke-miterlimit="10" stroke-linecap="round" stroke-linejoin="round"/>
<path d="M573.788 421H703.088C708.488 421 712.788 416.7 712.788 411.3C712.788 405.9 708.488 401.6 703.088 401.6H573.788C568.388 401.6 564.088 405.9 564.088 411.3C564.088 416.6 568.388 421 573.788 421Z" fill="white"/>
<path d="M573.788 421H703.088C708.488 421 712.788 416.7 712.788 411.3C712.788 405.9 708.488 401.6 703.088 401.6H573.788C568.388 401.6 564.088 405.9 564.088 411.3C564.088 416.6 568.388 421 573.788 421Z" fill="white"/>
<path d="M564.088 401.6H712.788V411.3H564.088V401.6Z" fill="#D8D8D8"/>
<path d="M573.788 421H703.088C708.488 421 712.788 416.7 712.788 411.3C712.788 405.9 708.488 401.6 703.088 401.6H573.788C568.388 401.6 564.088 405.9 564.088 411.3C564.088 416.6 568.388 421 573.788 421Z" stroke="#48230B" stroke-width="8" stroke-miterlimit="10" stroke-linecap="round" stroke-linejoin="round"/>
<path d="M782.387 267.8L762.787 248.1" stroke="#48230B" stroke-width="4" stroke-miterlimit="10" stroke-linecap="round" stroke-linejoin="round"/>
<path d="M765.788 269.6L739.388 243" stroke="#48230B" stroke-width="4" stroke-miterlimit="10" stroke-linecap="round" stroke-linejoin="round"/>
<path d="M630.088 265.5L610.588 245.7" stroke="#48230B" stroke-width="4" stroke-miterlimit="10" stroke-linecap="round" stroke-linejoin="round"/>
<path d="M613.488 267.3L587.088 240.7" stroke="#48230B" stroke-width="4" stroke-miterlimit="10" stroke-linecap="round" stroke-linejoin="round"/>
<path d="M503.288 267.4L487.188 251.1" stroke="#48230B" stroke-width="4" stroke-miterlimit="10" stroke-linecap="round" stroke-linejoin="round"/>
<path d="M489.588 268.9L467.888 246.9" stroke="#48230B" stroke-width="4" stroke-miterlimit="10" stroke-linecap="round" stroke-linejoin="round"/>
<path d="M177.837 320.2L95.237 124.6C93.437 120.4 87.437 120.4 85.637 124.6L3.03702 320.2C-6.86298 343.6 14.237 368.1 44.237 368.1H136.637C166.637 368.1 187.737 343.6 177.837 320.2Z" fill="#FDC858"/>
<path d="M177.837 320.2L95.237 124.6C93.437 120.4 87.437 120.4 85.637 124.6L3.03702 320.2C-6.86298 343.6 14.237 368.1 44.237 368.1H136.637C166.637 368.1 187.737 343.6 177.837 320.2Z" fill="#FDC858"/>
<path opacity="0.56" d="M137.437 329.4L78.5369 141.3L85.5369 124.6C87.3369 120.4 93.3369 120.4 95.1369 124.6L177.737 320.2C187.637 343.6 166.537 368.1 136.537 368.1H129.537C138.337 360.7 141.737 348.4 137.437 329.4Z" fill="#E97E1C"/>
<path d="M90.4368 455.001V160.601" stroke="#48230B" stroke-width="8" stroke-miterlimit="10" stroke-linecap="round" stroke-linejoin="round"/>
<path d="M66.637 201.601L90.437 224.301L114.137 201.601" stroke="#48230B" stroke-width="8" stroke-miterlimit="10" stroke-linecap="round" stroke-linejoin="round"/>
<path d="M62.137 244.8L90.4371 271.9L118.737 244.8" stroke="#48230B" stroke-width="8" stroke-miterlimit="10" stroke-linecap="round" stroke-linejoin="round"/>
<path d="M43.237 294L90.437 331.5L137.637 294" stroke="#48230B" stroke-width="8" stroke-miterlimit="10" stroke-linecap="round" stroke-linejoin="round"/>
<path d="M627.888 455H661.588" stroke="#48230B" stroke-width="8" stroke-miterlimit="10" stroke-linecap="round" stroke-linejoin="round"/>
<path d="M894.087 455L1133.32 455" stroke="#48230B" stroke-width="8" stroke-miterlimit="10" stroke-linecap="round" stroke-linejoin="round"/>
<path d="M155.037 455H173.137" stroke="#48230B" stroke-width="8" stroke-miterlimit="10" stroke-linecap="round" stroke-linejoin="round"/>
<path d="M316.341 455H334.441" stroke="#48230B" stroke-width="8" stroke-miterlimit="10" stroke-linecap="round" stroke-linejoin="round"/>
<path d="M191.487 455L298.147 455" stroke="#48230B" stroke-width="8" stroke-miterlimit="10" stroke-linecap="round" stroke-linejoin="round"/>
<path d="M1150.62 455L1163.57 455" stroke="#48230B" stroke-width="8" stroke-miterlimit="10" stroke-linecap="round" stroke-linejoin="round"/>
<path d="M51.037 455H137.637" stroke="#48230B" stroke-width="8" stroke-miterlimit="10" stroke-linecap="round" stroke-linejoin="round"/>
<path d="M29.5369 455H36.0369" stroke="#48230B" stroke-width="8" stroke-miterlimit="10" stroke-linecap="round" stroke-linejoin="round"/>
<path d="M677.087 455H876.587" stroke="#48230B" stroke-width="8" stroke-miterlimit="10" stroke-linecap="round" stroke-linejoin="round"/>
<path d="M353.588 455H631.588" stroke="#48230B" stroke-width="8" stroke-miterlimit="10" stroke-linecap="round" stroke-linejoin="round"/>
<path d="M1093.5 342.8C1066.8 343 1046.8 330 1030.2 311.9C1027 308.3 1023.9 303.5 1021.1 298.1C1006.8 271.1 1003 239.8 1009.5 209.9C1020.2 160.9 1043.6 73.1 1084.3 8.90005C1088.6 2.10005 1098.5 2.10005 1102.8 8.90005C1143.4 73.1 1166.8 160.9 1177.6 209.9C1184.1 239.7 1180.2 271.1 1166 298.1C1163.2 303.4 1160.1 308.2 1156.9 311.9C1140.2 330 1120.2 343 1093.5 342.8Z" fill="#FF6550"/>
<path opacity="0.4" d="M1176.4 209.9C1165.7 160.9 1142.3 73.1 1101.6 8.90004C1098.4 3.90004 1092.1 2.60005 1087.3 5.10005C1091.1 8.20005 1094.3 12.2001 1096.7 17.1001C1127.8 80.5001 1146.7 153.1 1156.3 197C1163.4 229.3 1159.2 263.1 1143.9 292.4C1140.7 298.5 1137.3 304 1133.6 308.2C1118 325.2 1099.6 338.2 1076.2 341.3C1081.3 342.4 1086.6 342.9 1092.3 342.9C1119 343.1 1139 330.1 1155.6 312C1158.8 308.4 1161.9 303.6 1164.7 298.2C1179.1 271.1 1183 239.8 1176.4 209.9Z" fill="#FF7364"/>
<path d="M1093.5 342.8C1066.8 343 1046.8 330 1030.2 311.9C1027 308.3 1023.9 303.5 1021.1 298.1C1006.8 271.1 1003 239.8 1009.5 209.9C1020.2 160.9 1043.6 73.1 1084.3 8.90005C1088.6 2.10005 1098.5 2.10005 1102.8 8.90005C1143.4 73.1 1166.8 160.9 1177.6 209.9C1184.1 239.7 1180.2 271.1 1166 298.1C1163.2 303.4 1160.1 308.2 1156.9 311.9C1140.2 330 1120.2 343 1093.5 342.8Z" stroke="#48230B" stroke-width="6" stroke-miterlimit="10" stroke-linecap="round" stroke-linejoin="round"/>
<path d="M1093.5 286L1135.5 255.7" stroke="#48230B" stroke-width="6" stroke-miterlimit="10" stroke-linecap="round" stroke-linejoin="round"/>
<path d="M1093.5 244L1056 215" stroke="#48230B" stroke-width="6" stroke-miterlimit="10" stroke-linecap="round" stroke-linejoin="round"/>
<path d="M1000.4 370.8H936.502C917.702 370.8 902.402 355.5 902.402 336.7V216.7C902.402 197.9 917.702 182.6 936.502 182.6H1000.3C1019.1 182.6 1034.4 197.9 1034.4 216.7V336.7C1034.5 355.5 1019.2 370.8 1000.4 370.8Z" fill="#E97E1C"/>
<path opacity="0.74" d="M999.402 182.6H984.402C1003.2 182.6 1018.5 197.9 1018.5 216.7V336.7C1018.5 355.5 1003.2 370.8 984.402 370.8H999.402C1018.2 370.8 1033.5 355.5 1033.5 336.7V216.7C1033.5 197.8 1018.2 182.6 999.402 182.6Z" fill="#E8531F"/>
<path d="M1000.4 370.8H936.502C917.702 370.8 902.402 355.5 902.402 336.7V216.7C902.402 197.9 917.702 182.6 936.502 182.6H1000.3C1019.1 182.6 1034.4 197.9 1034.4 216.7V336.7C1034.5 355.5 1019.2 370.8 1000.4 370.8Z" stroke="#48230B" stroke-width="6" stroke-miterlimit="10" stroke-linecap="round" stroke-linejoin="round"/>
<path d="M968.502 342.8L996.502 317" stroke="#48230B" stroke-width="6" stroke-miterlimit="10" stroke-linecap="round" stroke-linejoin="round"/>
<path d="M968.502 300L937.502 286" stroke="#48230B" stroke-width="6" stroke-miterlimit="10" stroke-linecap="round" stroke-linejoin="round"/>
<path d="M1093.5 455V173" stroke="#48230B" stroke-width="6" stroke-miterlimit="10" stroke-linecap="round" stroke-linejoin="round"/>
<path d="M968.502 256V455" stroke="#48230B" stroke-width="6" stroke-miterlimit="10" stroke-linecap="round" stroke-linejoin="round"/>
<path opacity="0.38" d="M939.302 233.9C944.935 233.9 949.502 229.333 949.502 223.7C949.502 218.067 944.935 213.5 939.302 213.5C933.669 213.5 929.102 218.067 929.102 223.7C929.102 229.333 933.669 233.9 939.302 233.9Z" fill="#FFB845"/>
<path opacity="0.38" d="M971.302 236.9C975.334 236.9 978.602 233.632 978.602 229.6C978.602 225.568 975.334 222.3 971.302 222.3C967.27 222.3 964.002 225.568 964.002 229.6C964.002 233.632 967.27 236.9 971.302 236.9Z" fill="#FFB845"/>
<path opacity="0.74" d="M939.302 327.8C943.334 327.8 946.602 324.532 946.602 320.5C946.602 316.469 943.334 313.2 939.302 313.2C935.27 313.2 932.002 316.469 932.002 320.5C932.002 324.532 935.27 327.8 939.302 327.8Z" fill="#E8531F"/>
<path opacity="0.74" d="M993.002 268.2C996.371 268.2 999.102 265.469 999.102 262.1C999.102 258.731 996.371 256 993.002 256C989.633 256 986.902 258.731 986.902 262.1C986.902 265.469 989.633 268.2 993.002 268.2Z" fill="#E8531F"/>
<path d="M935.002 455C935.002 428.8 956.202 407.7 982.302 407.7C1008.4 407.7 1029.6 428.8 1029.6 455H935.002Z" fill="#FF6550"/>
<path opacity="0.4" d="M982.302 407.7C977.402 407.7 972.802 408.4 968.302 409.8C987.602 415.7 1001.6 433.7 1001.6 455H1029.5C1029.6 428.8 1008.4 407.7 982.302 407.7Z" fill="#FF7364"/>
<path d="M935.002 455C935.002 428.8 956.202 407.7 982.302 407.7C1008.4 407.7 1029.6 428.8 1029.6 455H935.002Z" stroke="#48230B" stroke-width="6" stroke-miterlimit="10" stroke-linecap="round" stroke-linejoin="round"/>
<path d="M1006.4 455C1006.4 437.6 1020.4 423.7 1037.7 423.7C1055 423.7 1069 437.7 1069 455H1006.4Z" fill="#FFB845"/>
<path opacity="0.53" d="M1037.7 423.7C1035.2 423.7 1032.8 424 1030.5 424.5C1044.3 427.7 1054.7 440.1 1054.7 455H1069.1C1069.1 437.6 1055 423.7 1037.7 423.7Z" fill="#D89535"/>
<path d="M1006.4 455C1006.4 437.6 1020.4 423.7 1037.7 423.7C1055 423.7 1069 437.7 1069 455H1006.4Z" stroke="#48230B" stroke-width="6" stroke-miterlimit="10" stroke-linecap="round" stroke-linejoin="round"/>
<path d="M69.5427 455C69.5427 437.6 83.5427 423.7 100.843 423.7C118.143 423.7 132.143 437.7 132.143 455H69.5427Z" fill="#FFB845"/>
<path opacity="0.53" d="M100.843 423.7C98.3428 423.7 95.9428 424 93.6428 424.5C107.443 427.7 117.843 440.1 117.843 455H132.243C132.243 437.6 118.143 423.7 100.843 423.7Z" fill="#D89535"/>
<path d="M69.5427 455C69.5427 437.6 83.5427 423.7 100.843 423.7C118.143 423.7 132.143 437.7 132.143 455H69.5427Z" stroke="#48230B" stroke-width="6" stroke-miterlimit="10" stroke-linecap="round" stroke-linejoin="round"/>
<path d="M1079.1 455C1079.1 442.3 1089.3 432.2 1101.9 432.2C1114.5 432.2 1124.7 442.4 1124.7 455H1079.1Z" fill="#FFB845"/>
<path d="M1079.1 455C1079.1 442.3 1089.3 432.2 1101.9 432.2C1114.5 432.2 1124.7 442.4 1124.7 455H1079.1Z" stroke="#48230B" stroke-width="6" stroke-miterlimit="10" stroke-linecap="round" stroke-linejoin="round"/>
<path d="M912.002 128.1H905.202" stroke="#48230B" stroke-width="6" stroke-miterlimit="10" stroke-linecap="round" stroke-linejoin="round"/>
<path d="M947.602 128.1H927.902" stroke="#48230B" stroke-width="6" stroke-miterlimit="10" stroke-linecap="round" stroke-linejoin="round"/>
<path d="M1160.3 97.2H1087.76" stroke="#48230B" stroke-width="6" stroke-miterlimit="10" stroke-linecap="round" stroke-linejoin="round"/>
<path d="M979.702 83.6001C979.802 82.8001 979.902 81.9001 979.902 81.0001C979.902 72.1001 972.702 64.8 963.702 64.8C954.702 64.8 947.502 72.0001 947.502 81.0001C947.502 90.0001 954.702 97.2001 963.702 97.2001" stroke="#48230B" stroke-width="6" stroke-miterlimit="10" stroke-linecap="round" stroke-linejoin="round"/>
<path d="M1022.8 97.2H963.802" stroke="#48230B" stroke-width="6" stroke-miterlimit="10" stroke-linecap="round" stroke-linejoin="round"/>
<path d="M1178.2 232.3C1191.35 232.3 1202 221.645 1202 208.5C1202 195.356 1191.35 184.7 1178.2 184.7C1165.06 184.7 1154.4 195.356 1154.4 208.5C1154.4 221.645 1165.06 232.3 1178.2 232.3Z" fill="#EF4D3C"/>
<path d="M1178.2 232.3C1191.35 232.3 1202 221.645 1202 208.5C1202 195.356 1191.35 184.7 1178.2 184.7C1165.06 184.7 1154.4 195.356 1154.4 208.5C1154.4 221.645 1165.06 232.3 1178.2 232.3Z" stroke="#48230B" stroke-width="6" stroke-miterlimit="10" stroke-linecap="round" stroke-linejoin="round"/>
<path opacity="0.91" d="M1082.7 118.9C1087.06 118.9 1090.6 115.363 1090.6 111C1090.6 106.637 1087.06 103.1 1082.7 103.1C1078.34 103.1 1074.8 106.637 1074.8 111C1074.8 115.363 1078.34 118.9 1082.7 118.9Z" fill="#FF6550"/>
<path opacity="0.91" d="M1066.2 157.6C1071.83 157.6 1076.4 153.033 1076.4 147.4C1076.4 141.767 1071.83 137.2 1066.2 137.2C1060.57 137.2 1056 141.767 1056 147.4C1056 153.033 1060.57 157.6 1066.2 157.6Z" fill="#FF6550"/>
<path opacity="0.91" d="M1119.9 239.2C1125.53 239.2 1130.1 234.633 1130.1 229C1130.1 223.367 1125.53 218.8 1119.9 218.8C1114.27 218.8 1109.7 223.367 1109.7 229C1109.7 234.633 1114.27 239.2 1119.9 239.2Z" fill="#FF6550"/>
<path opacity="0.4" d="M1124.7 183.9C1130.33 183.9 1134.9 179.333 1134.9 173.7C1134.9 168.067 1130.33 163.5 1124.7 163.5C1119.07 163.5 1114.5 168.067 1114.5 173.7C1114.5 179.333 1119.07 183.9 1124.7 183.9Z" fill="#FF7364"/>
<path d="M1166.5 60.6001H1114.5" stroke="#48230B" stroke-width="6" stroke-miterlimit="10" stroke-linecap="round" stroke-linejoin="round"/>
<path d="M1199 60.6001H1187.5" stroke="#48230B" stroke-width="6" stroke-miterlimit="10" stroke-linecap="round" stroke-linejoin="round"/>
</g>
</svg>
