<svg width="818" height="508" viewBox="0 0 818 508" fill="none" xmlns="http://www.w3.org/2000/svg">
<path d="M674.593 320.847C694.211 294.46 703.792 260.597 698.865 225.541C688.9 154.638 623.28 105.189 552.377 115.154C481.473 125.119 431.912 190.655 441.877 261.558L530.227 172.394L674.593 320.847Z" fill="#FDC858"/>
<path d="M547.462 80.9051L549.41 94.7688" stroke="#F0E7C4" stroke-width="8" stroke-miterlimit="10" stroke-linecap="round" stroke-linejoin="round"/>
<path d="M543.843 55.1581L545.875 69.616" stroke="#F0E7C4" stroke-width="8" stroke-miterlimit="10" stroke-linecap="round" stroke-linejoin="round"/>
<path d="M539.376 23.3704L542.034 42.2845" stroke="#F0E7C4" stroke-width="8" stroke-miterlimit="10" stroke-linecap="round" stroke-linejoin="round"/>
<path d="M576.132 79.4013L575.563 93.3159" stroke="#F0E7C4" stroke-width="8" stroke-miterlimit="10" stroke-linecap="round" stroke-linejoin="round"/>
<path d="M577.025 53.4231L576.454 68.0448" stroke="#F0E7C4" stroke-width="8" stroke-miterlimit="10" stroke-linecap="round" stroke-linejoin="round"/>
<path d="M578.173 21.3523L577.422 40.4425" stroke="#F0E7C4" stroke-width="8" stroke-miterlimit="10" stroke-linecap="round" stroke-linejoin="round"/>
<path d="M604.493 82.887L601.563 96.5276" stroke="#F0E7C4" stroke-width="8" stroke-miterlimit="10" stroke-linecap="round" stroke-linejoin="round"/>
<path d="M609.911 57.4869L606.866 71.7495" stroke="#F0E7C4" stroke-width="8" stroke-miterlimit="10" stroke-linecap="round" stroke-linejoin="round"/>
<path d="M616.601 26.0499L612.57 44.7932" stroke="#F0E7C4" stroke-width="8" stroke-miterlimit="10" stroke-linecap="round" stroke-linejoin="round"/>
<path d="M631.924 91.2509L626.676 104.207" stroke="#F0E7C4" stroke-width="8" stroke-miterlimit="10" stroke-linecap="round" stroke-linejoin="round"/>
<path d="M641.567 67.1745L636.105 80.7669" stroke="#F0E7C4" stroke-width="8" stroke-miterlimit="10" stroke-linecap="round" stroke-linejoin="round"/>
<path d="M653.641 37.4043L646.445 55.1789" stroke="#F0E7C4" stroke-width="8" stroke-miterlimit="10" stroke-linecap="round" stroke-linejoin="round"/>
<path d="M657.378 104.235L649.955 116.083" stroke="#F0E7C4" stroke-width="8" stroke-miterlimit="10" stroke-linecap="round" stroke-linejoin="round"/>
<path d="M671.146 82.2041L663.397 94.6033" stroke="#F0E7C4" stroke-width="8" stroke-miterlimit="10" stroke-linecap="round" stroke-linejoin="round"/>
<path d="M688.221 54.9626L677.988 71.2452" stroke="#F0E7C4" stroke-width="8" stroke-miterlimit="10" stroke-linecap="round" stroke-linejoin="round"/>
<path d="M680.208 121.527L670.85 131.829" stroke="#F0E7C4" stroke-width="8" stroke-miterlimit="10" stroke-linecap="round" stroke-linejoin="round"/>
<path d="M697.589 102.22L687.906 113.073" stroke="#F0E7C4" stroke-width="8" stroke-miterlimit="10" stroke-linecap="round" stroke-linejoin="round"/>
<path d="M719.168 78.2836L706.323 92.5097" stroke="#F0E7C4" stroke-width="8" stroke-miterlimit="10" stroke-linecap="round" stroke-linejoin="round"/>
<path d="M699.803 142.401L688.795 151.017" stroke="#F0E7C4" stroke-width="8" stroke-miterlimit="10" stroke-linecap="round" stroke-linejoin="round"/>
<path d="M720.275 126.396L708.714 135.392" stroke="#F0E7C4" stroke-width="8" stroke-miterlimit="10" stroke-linecap="round" stroke-linejoin="round"/>
<path d="M745.564 106.585L730.462 118.401" stroke="#F0E7C4" stroke-width="8" stroke-miterlimit="10" stroke-linecap="round" stroke-linejoin="round"/>
<path d="M715.404 166.465L702.986 172.956" stroke="#F0E7C4" stroke-width="8" stroke-miterlimit="10" stroke-linecap="round" stroke-linejoin="round"/>
<path d="M738.328 154.256L725.358 161.127" stroke="#F0E7C4" stroke-width="8" stroke-miterlimit="10" stroke-linecap="round" stroke-linejoin="round"/>
<path d="M766.703 139.16L749.783 148.101" stroke="#F0E7C4" stroke-width="8" stroke-miterlimit="10" stroke-linecap="round" stroke-linejoin="round"/>
<path d="M726.573 192.766L713.242 197.063" stroke="#F0E7C4" stroke-width="8" stroke-miterlimit="10" stroke-linecap="round" stroke-linejoin="round"/>
<path d="M751.199 184.761L737.386 189.227" stroke="#F0E7C4" stroke-width="8" stroke-miterlimit="10" stroke-linecap="round" stroke-linejoin="round"/>
<path d="M781.811 174.804L763.554 180.702" stroke="#F0E7C4" stroke-width="8" stroke-miterlimit="10" stroke-linecap="round" stroke-linejoin="round"/>
<path d="M758.663 217.036L744.205 219.068" stroke="#F0E7C4" stroke-width="8" stroke-miterlimit="10" stroke-linecap="round" stroke-linejoin="round"/>
<path d="M790.55 212.555L771.537 215.227" stroke="#F0E7C4" stroke-width="8" stroke-miterlimit="10" stroke-linecap="round" stroke-linejoin="round"/>
<path d="M734.506 249.213L720.507 248.757" stroke="#F0E7C4" stroke-width="8" stroke-miterlimit="10" stroke-linecap="round" stroke-linejoin="round"/>
<path d="M760.385 250.12L745.876 249.634" stroke="#F0E7C4" stroke-width="8" stroke-miterlimit="10" stroke-linecap="round" stroke-linejoin="round"/>
<path d="M792.555 251.254L773.38 250.616" stroke="#F0E7C4" stroke-width="8" stroke-miterlimit="10" stroke-linecap="round" stroke-linejoin="round"/>
<path d="M731.033 277.672L717.293 274.756" stroke="#F0E7C4" stroke-width="8" stroke-miterlimit="10" stroke-linecap="round" stroke-linejoin="round"/>
<path d="M756.435 283.09L742.073 280.06" stroke="#F0E7C4" stroke-width="8" stroke-miterlimit="10" stroke-linecap="round" stroke-linejoin="round"/>
<path d="M787.871 289.779L769.128 285.749" stroke="#F0E7C4" stroke-width="8" stroke-miterlimit="10" stroke-linecap="round" stroke-linejoin="round"/>
<path d="M722.656 305.005L709.699 299.757" stroke="#F0E7C4" stroke-width="8" stroke-miterlimit="10" stroke-linecap="round" stroke-linejoin="round"/>
<path d="M746.746 314.747L733.154 309.285" stroke="#F0E7C4" stroke-width="8" stroke-miterlimit="10" stroke-linecap="round" stroke-linejoin="round"/>
<path d="M776.516 326.821L758.742 319.625" stroke="#F0E7C4" stroke-width="8" stroke-miterlimit="10" stroke-linecap="round" stroke-linejoin="round"/>
<path d="M409.708 209.427L423.434 212.245" stroke="#F0E7C4" stroke-width="8" stroke-miterlimit="10" stroke-linecap="round" stroke-linejoin="round"/>
<path d="M384.307 204.01L398.669 207.041" stroke="#F0E7C4" stroke-width="8" stroke-miterlimit="10" stroke-linecap="round" stroke-linejoin="round"/>
<path d="M418.071 181.995L431.028 187.243" stroke="#F0E7C4" stroke-width="8" stroke-miterlimit="10" stroke-linecap="round" stroke-linejoin="round"/>
<path d="M393.981 172.253L407.574 177.715" stroke="#F0E7C4" stroke-width="8" stroke-miterlimit="10" stroke-linecap="round" stroke-linejoin="round"/>
<path d="M364.211 160.18L381.986 167.376" stroke="#F0E7C4" stroke-width="8" stroke-miterlimit="10" stroke-linecap="round" stroke-linejoin="round"/>
<path d="M431.155 156.529L442.89 163.867" stroke="#F0E7C4" stroke-width="8" stroke-miterlimit="10" stroke-linecap="round" stroke-linejoin="round"/>
<path d="M409.124 142.761L421.424 150.525" stroke="#F0E7C4" stroke-width="8" stroke-miterlimit="10" stroke-linecap="round" stroke-linejoin="round"/>
<path d="M381.784 125.7L398.052 135.834" stroke="#F0E7C4" stroke-width="8" stroke-miterlimit="10" stroke-linecap="round" stroke-linejoin="round"/>
<path d="M448.333 133.614L458.734 142.957" stroke="#F0E7C4" stroke-width="8" stroke-miterlimit="10" stroke-linecap="round" stroke-linejoin="round"/>
<path d="M429.026 116.232L439.893 126.015" stroke="#F0E7C4" stroke-width="8" stroke-miterlimit="10" stroke-linecap="round" stroke-linejoin="round"/>
<path d="M405.103 94.7522L419.33 107.597" stroke="#F0E7C4" stroke-width="8" stroke-miterlimit="10" stroke-linecap="round" stroke-linejoin="round"/>
<path d="M469.222 114.117L477.838 125.125" stroke="#F0E7C4" stroke-width="8" stroke-miterlimit="10" stroke-linecap="round" stroke-linejoin="round"/>
<path d="M453.317 93.6313L462.313 105.192" stroke="#F0E7C4" stroke-width="8" stroke-miterlimit="10" stroke-linecap="round" stroke-linejoin="round"/>
<path d="M433.505 68.3425L445.322 83.4449" stroke="#F0E7C4" stroke-width="8" stroke-miterlimit="10" stroke-linecap="round" stroke-linejoin="round"/>
<path d="M493.286 98.5162L499.862 110.821" stroke="#F0E7C4" stroke-width="8" stroke-miterlimit="10" stroke-linecap="round" stroke-linejoin="round"/>
<path d="M481.076 75.5935L487.934 88.4643" stroke="#F0E7C4" stroke-width="8" stroke-miterlimit="10" stroke-linecap="round" stroke-linejoin="round"/>
<path d="M465.981 47.2181L475.022 64.1244" stroke="#F0E7C4" stroke-width="8" stroke-miterlimit="10" stroke-linecap="round" stroke-linejoin="round"/>
<path d="M519.587 87.3481L523.97 100.567" stroke="#F0E7C4" stroke-width="8" stroke-miterlimit="10" stroke-linecap="round" stroke-linejoin="round"/>
<path d="M511.568 62.6225L516.147 76.5205" stroke="#F0E7C4" stroke-width="8" stroke-miterlimit="10" stroke-linecap="round" stroke-linejoin="round"/>
<path d="M501.625 32.1103L507.609 50.2542" stroke="#F0E7C4" stroke-width="8" stroke-miterlimit="10" stroke-linecap="round" stroke-linejoin="round"/>
<path d="M761.027 409.177L529.788 172.86L432.987 271.593" stroke="#F0E7C4" stroke-width="8" stroke-miterlimit="10" stroke-linecap="round" stroke-linejoin="round"/>
<path d="M492.063 331.958L326.855 163.108L121.431 410.101" stroke="#F0E7C4" stroke-width="8" stroke-miterlimit="10" stroke-linecap="round" stroke-linejoin="round"/>
<path d="M604.609 249.694L596.658 263.536L571.88 257.525L543.121 273.483L528.903 263.566L506.236 274.729L490.607 256.931L462.101 273.257L447.644 256.607" stroke="#F0E7C4" stroke-width="8" stroke-miterlimit="10" stroke-linecap="round" stroke-linejoin="round"/>
<path d="M399.956 237.76L368.878 235.059L360.739 256.905L327.18 244.454L306.422 262.014L288.605 242.302L251.271 254.011" stroke="#F0E7C4" stroke-width="8" stroke-miterlimit="10" stroke-linecap="round" stroke-linejoin="round"/>
<path d="M262.99 181.475L121.976 201.293C120.919 199.523 120.118 197.414 119.812 195.235C118.573 186.422 124.786 178.177 133.6 176.938C135.382 176.688 137.107 176.748 138.662 177.034C140.921 166.518 149.623 158.024 160.912 156.437C163.883 156.02 166.825 156.111 169.623 156.627C173.514 143.356 184.965 132.86 199.522 130.815C219.526 128.003 237.935 141.876 240.747 161.88C241.025 163.86 241.105 165.868 241.087 167.891C250.434 168.294 258.638 173.503 262.99 181.475Z" stroke="#F0E7C4" stroke-width="8" stroke-miterlimit="10" stroke-linecap="round" stroke-linejoin="round"/>
<path d="M27.3548 280.331C27.3409 280.232 27.327 280.133 27.3131 280.034C25.977 270.527 32.6295 261.816 42.0371 260.494C43.8195 260.244 45.5447 260.304 47.1987 260.577C47.1292 260.081 47.0596 259.586 46.99 259.091C44.8746 244.039 55.343 230.147 70.3951 228.032C85.4472 225.916 99.3393 236.385 101.455 251.437C101.677 253.021 101.787 254.52 101.699 256.048C101.798 256.034 101.996 256.006 102.095 255.992C109.423 254.962 116.299 260.055 117.342 267.482C117.356 267.581 117.37 267.68 117.398 267.878L27.3827 280.529L27.3548 280.331Z" stroke="#F0E7C4" stroke-width="8" stroke-miterlimit="10" stroke-linecap="round" stroke-linejoin="round"/>
<path d="M277.704 54.0869L291.258 64.3001L301.471 50.7468" stroke="#F0E7C4" stroke-width="8" stroke-miterlimit="10" stroke-linecap="round" stroke-linejoin="round"/>
<path d="M191.444 81.9634L204.998 92.1766L215.31 78.6093" stroke="#F0E7C4" stroke-width="8" stroke-miterlimit="10" stroke-linecap="round" stroke-linejoin="round"/>
<path d="M12.0723 172.306L25.7246 182.506L35.9377 168.952" stroke="#F0E7C4" stroke-width="8" stroke-miterlimit="10" stroke-linecap="round" stroke-linejoin="round"/>
</svg>
