<svg width="556" height="449" viewBox="0 0 556 449" fill="none" xmlns="http://www.w3.org/2000/svg">
<path d="M99.3682 32.1191H183.844V117.965H99.3682V32.1191Z" stroke="#F0E7C4" stroke-width="8" stroke-miterlimit="10" stroke-linecap="round" stroke-linejoin="round"/>
<path d="M111.157 104.753V45.49H172.064V104.753H111.157Z" stroke="#F0E7C4" stroke-width="4" stroke-miterlimit="10" stroke-linecap="round" stroke-linejoin="round"/>
<path d="M4.34186 4.78278H78.7461V58.0853H4.34186V4.78278Z" stroke="#F0E7C4" stroke-width="8" stroke-miterlimit="10" stroke-linecap="round" stroke-linejoin="round"/>
<path d="M15.2417 47.1309V15.6838H67.7905V47.1309H15.2417Z" stroke="#F0E7C4" stroke-width="4" stroke-miterlimit="10" stroke-linecap="round" stroke-linejoin="round"/>
<path d="M35.14 141.615V91.8748H67.8203V141.615H35.14Z" stroke="#F0E7C4" stroke-width="4" stroke-miterlimit="10" stroke-linecap="round" stroke-linejoin="round"/>
<path d="M24.2104 80.9683H78.7461V152.564H24.2104V80.9683Z" stroke="#F0E7C4" stroke-width="8" stroke-miterlimit="10" stroke-linecap="round" stroke-linejoin="round"/>
<path d="M295.223 83.8568C316.413 83.8568 333.59 66.6795 333.59 45.49C333.59 24.3005 316.413 7.12317 295.223 7.12317C274.034 7.12317 256.856 24.3005 256.856 45.49C256.856 66.6795 274.034 83.8568 295.223 83.8568Z" stroke="#F0E7C4" stroke-width="6" stroke-miterlimit="10" stroke-linecap="round" stroke-linejoin="round"/>
<path d="M295.224 76.1835V79.8831" stroke="#F0E7C4" stroke-width="6" stroke-miterlimit="10" stroke-linecap="round" stroke-linejoin="round"/>
<path d="M329.685 45.49H325.985" stroke="#F0E7C4" stroke-width="6" stroke-miterlimit="10" stroke-linecap="round" stroke-linejoin="round"/>
<path d="M264.53 45.49H260.762" stroke="#F0E7C4" stroke-width="6" stroke-miterlimit="10" stroke-linecap="round" stroke-linejoin="round"/>
<path d="M295.223 48.5731C296.926 48.5731 298.306 47.1932 298.306 45.49C298.306 43.7875 296.926 42.407 295.223 42.407C293.521 42.407 292.14 43.7875 292.14 45.49C292.14 47.1932 293.521 48.5731 295.223 48.5731Z" fill="#F0E7C4"/>
<path d="M295.224 45.49L311.804 25.0049" stroke="#F0E7C4" stroke-width="4" stroke-miterlimit="10" stroke-linecap="round" stroke-linejoin="round"/>
<path d="M284.81 35.2131L295.223 45.49" stroke="#F0E7C4" stroke-width="6" stroke-miterlimit="10" stroke-linecap="round" stroke-linejoin="round"/>
<path d="M430.876 81.0554V59.8851H388.467" stroke="#F0E7C4" stroke-width="6" stroke-miterlimit="10" stroke-linecap="round" stroke-linejoin="round"/>
<path d="M473.217 59.8851H430.876V81.0554" stroke="#F0E7C4" stroke-width="6" stroke-miterlimit="10" stroke-linecap="round" stroke-linejoin="round"/>
<path d="M452.047 59.8844H409.638V38.7142H452.047V59.8844Z" stroke="#F0E7C4" stroke-width="6" stroke-miterlimit="10" stroke-linecap="round" stroke-linejoin="round"/>
<path d="M442.866 17.4761H430.876V38.7148H473.217" stroke="#F0E7C4" stroke-width="6" stroke-miterlimit="10" stroke-linecap="round" stroke-linejoin="round"/>
<path d="M388.467 38.7148H430.876V17.4761H396.483" stroke="#F0E7C4" stroke-width="6" stroke-miterlimit="10" stroke-linecap="round" stroke-linejoin="round"/>
<path d="M374.011 59.8844H409.638V38.7142H388.467" stroke="#F0E7C4" stroke-width="6" stroke-miterlimit="10" stroke-linecap="round" stroke-linejoin="round"/>
<path d="M482.603 38.7142H452.047V59.8844H466.709" stroke="#F0E7C4" stroke-width="6" stroke-miterlimit="10" stroke-linecap="round" stroke-linejoin="round"/>
<path d="M333.59 213.621V234.791H375.999" stroke="#F0E7C4" stroke-width="6" stroke-miterlimit="10" stroke-linecap="round" stroke-linejoin="round"/>
<path d="M291.249 234.791H333.59V213.621" stroke="#F0E7C4" stroke-width="6" stroke-miterlimit="10" stroke-linecap="round" stroke-linejoin="round"/>
<path d="M312.42 234.792H354.829V255.962H312.42V234.792Z" stroke="#F0E7C4" stroke-width="6" stroke-miterlimit="10" stroke-linecap="round" stroke-linejoin="round"/>
<path d="M321.6 277.2H333.59V255.961H291.249" stroke="#F0E7C4" stroke-width="6" stroke-miterlimit="10" stroke-linecap="round" stroke-linejoin="round"/>
<path d="M375.999 255.961H333.59V277.2H367.983" stroke="#F0E7C4" stroke-width="6" stroke-miterlimit="10" stroke-linecap="round" stroke-linejoin="round"/>
<path d="M390.455 234.792H354.829V255.962H375.999" stroke="#F0E7C4" stroke-width="6" stroke-miterlimit="10" stroke-linecap="round" stroke-linejoin="round"/>
<path d="M281.863 255.962H312.42V234.792H297.758" stroke="#F0E7C4" stroke-width="6" stroke-miterlimit="10" stroke-linecap="round" stroke-linejoin="round"/>
<path d="M90.4906 200.538V221.708H48.0815" stroke="#F0E7C4" stroke-width="6" stroke-miterlimit="10" stroke-linecap="round" stroke-linejoin="round"/>
<path d="M132.831 221.708H90.4907V200.538" stroke="#F0E7C4" stroke-width="6" stroke-miterlimit="10" stroke-linecap="round" stroke-linejoin="round"/>
<path d="M111.661 221.709H69.252V242.879H111.661V221.709Z" stroke="#F0E7C4" stroke-width="6" stroke-miterlimit="10" stroke-linecap="round" stroke-linejoin="round"/>
<path d="M102.48 264.117H90.4907V242.878H132.831" stroke="#F0E7C4" stroke-width="6" stroke-miterlimit="10" stroke-linecap="round" stroke-linejoin="round"/>
<path d="M48.0815 242.878H90.4906V264.117H56.0975" stroke="#F0E7C4" stroke-width="6" stroke-miterlimit="10" stroke-linecap="round" stroke-linejoin="round"/>
<path d="M33.6255 221.709H69.2518V242.879H48.0816" stroke="#F0E7C4" stroke-width="6" stroke-miterlimit="10" stroke-linecap="round" stroke-linejoin="round"/>
<path d="M142.218 242.879H111.661V221.709H126.323" stroke="#F0E7C4" stroke-width="6" stroke-miterlimit="10" stroke-linecap="round" stroke-linejoin="round"/>
<path d="M379.93 320.055V341.225H422.339" stroke="#F0E7C4" stroke-width="6" stroke-miterlimit="10" stroke-linecap="round" stroke-linejoin="round"/>
<path d="M337.59 341.225H379.93V320.055" stroke="#F0E7C4" stroke-width="6" stroke-miterlimit="10" stroke-linecap="round" stroke-linejoin="round"/>
<path d="M358.75 362.484H401.159V341.313H358.75V362.484Z" stroke="#F0E7C4" stroke-width="6" stroke-miterlimit="10" stroke-linecap="round" stroke-linejoin="round"/>
<path d="M367.941 383.634H379.93V362.464H337.59" stroke="#F0E7C4" stroke-width="6" stroke-miterlimit="10" stroke-linecap="round" stroke-linejoin="round"/>
<path d="M422.339 362.464H379.93V383.634H414.323" stroke="#F0E7C4" stroke-width="6" stroke-miterlimit="10" stroke-linecap="round" stroke-linejoin="round"/>
<path d="M436.795 341.225H401.169V362.464H422.339" stroke="#F0E7C4" stroke-width="6" stroke-miterlimit="10" stroke-linecap="round" stroke-linejoin="round"/>
<path d="M328.204 362.464H358.76V341.225H344.098" stroke="#F0E7C4" stroke-width="6" stroke-miterlimit="10" stroke-linecap="round" stroke-linejoin="round"/>
<rect x="308.696" y="70.2425" width="232.907" height="124.26" fill="black"/>
<path fill-rule="evenodd" clip-rule="evenodd" d="M524.175 51.1467H323.221C307.086 51.1467 293.884 63.6448 293.884 78.9202V182.238C293.884 197.513 307.086 210.011 323.221 210.011H439.536L413.964 256.684L492.184 210.011H524.322C540.457 210.011 553.659 197.513 553.659 182.238V78.9202C553.512 63.6448 540.457 51.1467 524.175 51.1467ZM336.079 110.971H330.759L318.713 92.769V110.971H313.393V84.409H318.713L330.759 102.649V84.409H336.079V110.971ZM350.685 111.313C348.658 111.313 346.834 110.87 345.213 109.983C343.592 109.071 342.312 107.792 341.375 106.145C340.463 104.498 340.007 102.598 340.007 100.445C340.007 98.2917 340.476 96.3917 341.413 94.745C342.376 93.0983 343.68 91.8317 345.327 90.945C346.974 90.033 348.81 89.577 350.837 89.577C352.864 89.577 354.7 90.033 356.347 90.945C357.994 91.8317 359.286 93.0983 360.223 94.745C361.186 96.3917 361.667 98.2917 361.667 100.445C361.667 102.598 361.173 104.498 360.185 106.145C359.222 107.792 357.905 109.071 356.233 109.983C354.586 110.87 352.737 111.313 350.685 111.313ZM350.685 106.677C351.648 106.677 352.547 106.449 353.383 105.993C354.244 105.512 354.928 104.802 355.435 103.865C355.942 102.928 356.195 101.788 356.195 100.445C356.195 98.4437 355.663 96.911 354.599 95.847C353.56 94.7577 352.281 94.213 350.761 94.213C349.241 94.213 347.962 94.7577 346.923 95.847C345.91 96.911 345.403 98.4437 345.403 100.445C345.403 102.446 345.897 103.992 346.885 105.081C347.898 106.145 349.165 106.677 350.685 106.677ZM371.763 94.289V104.473C371.763 105.182 371.928 105.702 372.257 106.031C372.612 106.335 373.195 106.487 374.005 106.487H376.475V110.971H373.131C368.647 110.971 366.405 108.792 366.405 104.435V94.289H363.897V89.919H366.405V84.713H371.763V89.919H376.475V94.289H371.763ZM405.734 84.447V88.741H394.676V95.543H403.15V99.761H394.676V110.971H389.356V84.447H405.734ZM418.855 111.313C416.828 111.313 415.004 110.87 413.383 109.983C411.761 109.071 410.482 107.792 409.545 106.145C408.633 104.498 408.177 102.598 408.177 100.445C408.177 98.2917 408.645 96.3917 409.583 94.745C410.545 93.0983 411.85 91.8317 413.497 90.945C415.143 90.033 416.98 89.577 419.007 89.577C421.033 89.577 422.87 90.033 424.517 90.945C426.163 91.8317 427.455 93.0983 428.393 94.745C429.355 96.3917 429.837 98.2917 429.837 100.445C429.837 102.598 429.343 104.498 428.355 106.145C427.392 107.792 426.075 109.071 424.403 109.983C422.756 110.87 420.907 111.313 418.855 111.313ZM418.855 106.677C419.817 106.677 420.717 106.449 421.553 105.993C422.414 105.512 423.098 104.802 423.605 103.865C424.111 102.928 424.365 101.788 424.365 100.445C424.365 98.4437 423.833 96.911 422.769 95.847C421.73 94.7577 420.451 94.213 418.931 94.213C417.411 94.213 416.131 94.7577 415.093 95.847C414.079 96.911 413.573 98.4437 413.573 100.445C413.573 102.446 414.067 103.992 415.055 105.081C416.068 106.145 417.335 106.677 418.855 106.677ZM453.613 110.971H448.255V108.311C447.571 109.223 446.672 109.945 445.557 110.477C444.468 110.984 443.277 111.237 441.985 111.237C440.339 111.237 438.882 110.895 437.615 110.211C436.349 109.502 435.348 108.476 434.613 107.133C433.904 105.765 433.549 104.144 433.549 102.269V89.919H438.869V101.509C438.869 103.181 439.287 104.473 440.123 105.385C440.959 106.272 442.099 106.715 443.543 106.715C445.013 106.715 446.165 106.272 447.001 105.385C447.837 104.473 448.255 103.181 448.255 101.509V89.919H453.613V110.971ZM470.528 89.615C473.036 89.615 475.063 90.413 476.608 92.009C478.154 93.5797 478.926 95.7837 478.926 98.621V110.971H473.606V99.343C473.606 97.671 473.188 96.3917 472.352 95.505C471.516 94.593 470.376 94.137 468.932 94.137C467.463 94.137 466.298 94.593 465.436 95.505C464.6 96.3917 464.182 97.671 464.182 99.343V110.971H458.862V89.919H464.182V92.541C464.892 91.629 465.791 90.9197 466.88 90.413C467.995 89.881 469.211 89.615 470.528 89.615ZM482.617 100.369C482.617 98.241 483.035 96.3537 483.871 94.707C484.733 93.0603 485.898 91.7937 487.367 90.907C488.837 90.0203 490.471 89.577 492.269 89.577C493.637 89.577 494.942 89.881 496.183 90.489C497.425 91.0717 498.413 91.857 499.147 92.845V82.851H504.543V110.971H499.147V107.855C498.489 108.894 497.564 109.73 496.373 110.363C495.183 110.996 493.802 111.313 492.231 111.313C490.458 111.313 488.837 110.857 487.367 109.945C485.898 109.033 484.733 107.754 483.871 106.107C483.035 104.435 482.617 102.522 482.617 100.369ZM499.185 100.445C499.185 99.153 498.932 98.051 498.425 97.139C497.919 96.2017 497.235 95.4923 496.373 95.011C495.512 94.5043 494.587 94.251 493.599 94.251C492.611 94.251 491.699 94.4917 490.863 94.973C490.027 95.4543 489.343 96.1637 488.811 97.101C488.305 98.013 488.051 99.1023 488.051 100.369C488.051 101.636 488.305 102.75 488.811 103.713C489.343 104.65 490.027 105.372 490.863 105.879C491.725 106.386 492.637 106.639 493.599 106.639C494.587 106.639 495.512 106.398 496.373 105.917C497.235 105.41 497.919 104.701 498.425 103.789C498.932 102.852 499.185 101.737 499.185 100.445ZM512.095 111.237C511.133 111.237 510.335 110.946 509.701 110.363C509.093 109.755 508.789 109.008 508.789 108.121C508.789 107.234 509.093 106.5 509.701 105.917C510.335 105.309 511.133 105.005 512.095 105.005C513.033 105.005 513.805 105.309 514.413 105.917C515.021 106.5 515.325 107.234 515.325 108.121C515.325 109.008 515.021 109.755 514.413 110.363C513.805 110.946 513.033 111.237 512.095 111.237ZM521.966 111.237C521.004 111.237 520.206 110.946 519.572 110.363C518.964 109.755 518.66 109.008 518.66 108.121C518.66 107.234 518.964 106.5 519.572 105.917C520.206 105.309 521.004 105.005 521.966 105.005C522.904 105.005 523.676 105.309 524.284 105.917C524.892 106.5 525.196 107.234 525.196 108.121C525.196 109.008 524.892 109.755 524.284 110.363C523.676 110.946 522.904 111.237 521.966 111.237ZM531.837 111.237C530.875 111.237 530.077 110.946 529.443 110.363C528.835 109.755 528.531 109.008 528.531 108.121C528.531 107.234 528.835 106.5 529.443 105.917C530.077 105.309 530.875 105.005 531.837 105.005C532.775 105.005 533.547 105.309 534.155 105.917C534.763 106.5 535.067 107.234 535.067 108.121C535.067 109.008 534.763 109.755 534.155 110.363C533.547 110.946 532.775 111.237 531.837 111.237ZM369.939 164.423V169.411H390.935V178.227H397.431V169.411H402.825V163.669H397.431V136.467H389.427L369.939 164.423ZM377.537 163.669L391.225 143.195V163.669H377.537ZM411.668 140.875C409.426 144.626 408.304 149.846 408.304 156.535C408.304 163.302 409.426 168.599 411.668 172.427C413.95 176.217 417.855 178.111 423.384 178.111C428.914 178.111 432.8 176.217 435.042 172.427C437.324 168.599 438.464 163.302 438.464 156.535C438.464 149.846 437.324 144.626 435.042 140.875C432.8 137.086 428.914 135.191 423.384 135.191C417.855 135.191 413.95 137.086 411.668 140.875ZM431.33 148.589C431.756 150.755 431.968 153.403 431.968 156.535C431.968 159.783 431.775 162.509 431.388 164.713C431.002 166.917 430.17 168.696 428.894 170.049C427.657 171.403 425.82 172.079 423.384 172.079C420.948 172.079 419.092 171.403 417.816 170.049C416.579 168.696 415.767 166.917 415.38 164.713C414.994 162.509 414.8 159.783 414.8 156.535C414.8 153.403 414.994 150.755 415.38 148.589C415.806 146.424 416.637 144.665 417.874 143.311C419.112 141.919 420.948 141.223 423.384 141.223C425.82 141.223 427.657 141.919 428.894 143.311C430.132 144.665 430.944 146.424 431.33 148.589ZM444.648 164.423V169.411H465.644V178.227H472.14V169.411H477.534V163.669H472.14V136.467H464.136L444.648 164.423ZM452.246 163.669L465.934 143.195V163.669H452.246Z" fill="#FF9900"/>
<path d="M255.074 448.147C380.735 448.147 482.603 437.204 482.603 423.706C482.603 410.208 380.735 399.265 255.074 399.265C129.413 399.265 27.5449 410.208 27.5449 423.706C27.5449 437.204 129.413 448.147 255.074 448.147Z" fill="#D6D6D4"/>
<path d="M287.944 428.743H82.9639C66.4419 428.743 53.0103 415.312 53.0103 398.79V326.283C53.0103 317.606 56.8139 309.345 63.4703 303.699L109.827 264.177H231.187L277.544 303.699C284.141 309.345 288.004 317.606 288.004 326.283V428.743H287.944Z" fill="#FF901B"/>
<path d="M287.944 428.743H82.9639C66.4419 428.743 53.0103 415.312 53.0103 398.79V326.283C53.0103 317.606 56.8139 309.345 63.4703 303.699L109.827 264.177H231.187L277.544 303.699C284.141 309.345 288.004 317.606 288.004 326.283V428.743H287.944Z" fill="#AABCFD"/>
<path d="M53.0103 383.635V398.79C53.0103 415.312 66.4419 428.743 82.9639 428.743H287.944V413.588H82.9639C66.4419 413.588 53.0103 400.157 53.0103 383.635Z" fill="#7A88BA"/>
<path d="M277.484 303.639L231.127 264.117H213.06L259.417 303.639C266.014 309.285 269.877 317.546 269.877 326.223V428.743H287.944V326.283C287.944 317.546 284.141 309.285 277.484 303.639Z" fill="#7A88BA"/>
<path d="M128.667 276.598L170.269 306.314L211.872 276.598H128.667Z" fill="#FFF4E4"/>
<path d="M287.944 428.743H82.9639C66.4419 428.743 53.0103 415.312 53.0103 398.79V326.283C53.0103 317.606 56.8139 309.345 63.4703 303.699L109.827 264.177H231.187L277.544 303.699C284.141 309.345 288.004 317.606 288.004 326.283V428.743H287.944Z" stroke="black" stroke-width="3" stroke-miterlimit="10" stroke-linecap="round" stroke-linejoin="round"/>
<path d="M173.657 386.19H127.062V428.743H173.657V386.19Z" fill="#FFDEC5"/>
<path d="M173.657 419.353H127.062V428.743H173.657V419.353Z" fill="#EFB58E"/>
<path d="M173.657 386.19H127.062V428.743H173.657V386.19Z" stroke="black" stroke-width="3" stroke-miterlimit="10" stroke-linecap="round" stroke-linejoin="round"/>
<path d="M94.1963 277.787L133.421 332.464C133.421 332.464 143.525 301.559 170.269 306.314C131.638 277.787 128.667 276.598 128.667 276.598" stroke="black" stroke-width="3" stroke-miterlimit="10" stroke-linecap="round" stroke-linejoin="round"/>
<path d="M246.58 277.133L207.355 331.81C207.355 331.81 197.251 300.906 170.507 305.66C209.138 277.133 212.109 275.944 212.109 275.944" stroke="black" stroke-width="3" stroke-miterlimit="10" stroke-linecap="round" stroke-linejoin="round"/>
<path d="M170.269 306.314V406.1" stroke="black" stroke-width="3" stroke-miterlimit="10" stroke-linecap="round" stroke-linejoin="round"/>
<path d="M184.83 339.001C186.963 339.001 188.693 337.272 188.693 335.138C188.693 333.005 186.963 331.275 184.83 331.275C182.696 331.275 180.967 333.005 180.967 335.138C180.967 337.272 182.696 339.001 184.83 339.001Z" fill="#313056"/>
<path d="M184.83 363.963C186.963 363.963 188.693 362.233 188.693 360.1C188.693 357.966 186.963 356.236 184.83 356.236C182.696 356.236 180.967 357.966 180.967 360.1C180.967 362.233 182.696 363.963 184.83 363.963Z" fill="#313056"/>
<path d="M435.691 429.754H286.636C279.802 429.754 274.691 423.395 276.176 416.738L304.169 291.694C306.487 281.352 315.104 274.042 324.97 274.042H464.754C476.283 274.042 484.782 285.691 482.108 297.756L456.493 412.102C454.175 422.444 445.557 429.754 435.691 429.754Z" fill="#FFF4E4"/>
<path d="M201.471 393.5H210.088C213.595 393.5 216.388 396.353 216.388 399.8C216.388 403.306 213.535 406.1 210.088 406.1H191.427" fill="#FFDEC5"/>
<path d="M198.796 393.5H210.088C213.595 393.5 216.388 396.353 216.388 399.8C216.388 403.306 213.535 406.1 210.088 406.1H191.427" stroke="black" stroke-width="3" stroke-miterlimit="10" stroke-linecap="round" stroke-linejoin="round"/>
<path d="M164.92 386.19H195.468C200.996 386.19 205.453 390.648 205.453 396.175C205.453 401.702 200.996 406.159 195.468 406.159H165.039" fill="#FFDEC5"/>
<path d="M164.92 386.19H195.468C200.996 386.19 205.453 390.648 205.453 396.175C205.453 401.702 200.996 406.159 195.468 406.159H165.039" stroke="black" stroke-width="3" stroke-miterlimit="10" stroke-linecap="round" stroke-linejoin="round"/>
<path d="M170.863 393.5H183.701C187.207 393.5 190 396.353 190 399.8C190 403.306 187.148 406.1 183.701 406.1H165.039" stroke="black" stroke-width="3" stroke-miterlimit="10" stroke-linecap="round" stroke-linejoin="round"/>
<path d="M102.398 376.74H127.062V428.743" stroke="black" stroke-width="3" stroke-miterlimit="10" stroke-linecap="round" stroke-linejoin="round"/>
<path d="M171.042 284.324H168.011C125.755 284.324 91.522 261.383 91.522 219.127V123.977H247.531V219.127C247.531 261.383 213.298 284.324 171.042 284.324Z" fill="#FFDEC5"/>
<path d="M91.8193 144.005C91.8193 144.005 105.608 167.778 143.466 169.145C201.352 171.166 224.233 141.272 224.233 141.272L91.8193 144.005Z" fill="#EFB58E"/>
<path d="M171.042 274.042H168.011C125.755 274.042 91.522 253.479 91.522 211.223V219.127C91.522 261.383 125.755 284.324 168.011 284.324H171.042C213.298 284.324 247.531 261.383 247.531 219.127V211.223C247.531 253.479 213.298 274.042 171.042 274.042Z" fill="#EFB58E"/>
<path d="M171.042 284.324H168.011C125.755 284.324 91.522 261.383 91.522 219.127V123.977H247.531V219.127C247.531 261.383 213.298 284.324 171.042 284.324Z" stroke="black" stroke-width="3" stroke-miterlimit="10" stroke-linecap="round" stroke-linejoin="round"/>
<path d="M112.62 170.809C104.894 197.553 91.8193 191.61 91.8193 191.61V120.292H113.809C113.809 120.292 117.553 153.693 112.62 170.809Z" fill="#703D20"/>
<path d="M114.285 162.489C115.057 156.545 115.235 149.77 115.176 143.53L91.8193 144.005C91.8193 144.005 98.238 155.06 114.285 162.489Z" fill="#5B2F15"/>
<path d="M112.62 170.809C104.894 197.553 91.8193 191.61 91.8193 191.61V120.292H113.809C113.809 120.292 117.553 153.693 112.62 170.809Z" stroke="black" stroke-width="3" stroke-miterlimit="10" stroke-linecap="round" stroke-linejoin="round"/>
<path d="M228.275 84.8113C216.983 74.5891 200.163 65.3771 176.688 66.0309C176.391 70.6665 179.659 80.7105 185.603 85.6434C163.256 64.8422 115.176 64.6639 99.7235 80.2351C101.982 87.4263 108.341 96.6383 118.207 101.393C90.0956 94.9147 70.4831 108.881 68.8784 113.873C73.8113 126.176 84.9844 138.835 91.8191 144.005C114.879 161.3 178.53 168.016 217.993 145.135C220.251 143.827 222.331 142.52 224.233 141.272C223.995 151.316 224.412 162.845 226.729 170.869C234.455 197.613 247.53 191.67 247.53 191.67V128.613C247.53 111.972 240.636 95.9845 228.275 84.8113Z" fill="#703D20"/>
<path d="M185.603 85.7028C184.176 83.6822 180.373 82.0181 174.251 77.7984C149.825 65.1394 112.917 66.9224 99.7236 80.2351C100.021 81.2455 100.437 82.3152 100.912 83.385C118.504 72.0335 156.124 71.2609 177.698 87.4264C180.491 89.5065 185.603 89.2093 185.603 85.7028Z" fill="#5B2F15"/>
<path d="M118.445 102.344C118.445 101.928 118.326 101.631 118.207 101.393C117.078 101.155 112.977 100.739 104.3 99.7287C83.7958 99.5504 70.1859 109.773 68.8784 113.933C69.1161 114.587 69.4133 115.24 69.7105 115.894C76.6046 110.367 93.3643 102.997 113.571 106.623C116.186 107.039 118.623 105.018 118.445 102.344Z" fill="#5B2F15"/>
<path d="M228.275 84.8113C216.983 74.5891 200.164 65.3771 176.688 66.0309C176.569 67.695 176.926 70.0128 177.698 72.5684C194.517 72.925 209.138 78.987 217.696 87.7829C234.337 104.899 224.471 130.217 217.161 139.251C208.306 150.186 202.957 152.029 202.957 152.029C202.957 152.029 220.608 146.977 224.174 141.212C221.202 156.783 228.572 189.768 244.44 192.145C246.342 192.145 247.531 191.61 247.531 191.61V128.613C247.531 111.972 240.637 95.9845 228.275 84.8113Z" fill="#5B2F15"/>
<path d="M234.574 91.1705C223.579 78.7493 204.977 65.1988 176.688 66.0309C176.391 70.6666 179.659 80.7105 185.603 85.6434C163.256 64.8422 115.176 64.6639 99.7235 80.2351C101.982 87.4263 108.341 96.6383 118.207 101.393C90.0956 94.9147 70.4831 108.881 68.8784 113.874C73.8113 126.176 84.9844 138.835 91.8191 144.005C114.879 161.3 178.53 168.016 217.993 145.135C220.251 143.827 222.331 142.52 224.233 141.272C223.995 151.316 224.412 162.845 226.729 170.869C234.455 197.613 247.53 191.67 247.53 191.67V125.641C247.53 112.982 243.014 100.68 234.574 91.1705Z" stroke="black" stroke-width="3" stroke-miterlimit="10" stroke-linecap="round" stroke-linejoin="round"/>
<path d="M235.822 130.277C235.822 130.277 229.047 137.706 224.174 141.272C219.122 144.956 211.693 149.533 201.649 152.564" stroke="black" stroke-width="3" stroke-miterlimit="10" stroke-linecap="round" stroke-linejoin="round"/>
<path d="M131.394 194.503C138.401 192.258 145.816 191.216 153.17 191.442" stroke="black" stroke-width="3" stroke-miterlimit="10" stroke-linecap="round" stroke-linejoin="round"/>
<path d="M146.913 207.122C149.932 207.122 152.38 204.674 152.38 201.654C152.38 198.635 149.932 196.187 146.913 196.187C143.893 196.187 141.445 198.635 141.445 201.654C141.445 204.674 143.893 207.122 146.913 207.122Z" fill="#171819"/>
<path d="M190.368 191.442C197.722 191.216 205.137 192.258 212.144 194.503" stroke="black" stroke-width="3" stroke-miterlimit="10" stroke-linecap="round" stroke-linejoin="round"/>
<path d="M202.957 207.122C205.976 207.122 208.424 204.674 208.424 201.654C208.424 198.635 205.976 196.187 202.957 196.187C199.937 196.187 197.489 198.635 197.489 201.654C197.489 204.674 199.937 207.122 202.957 207.122Z" fill="#171819"/>
<path d="M160.641 224.536C162.602 227.923 166.287 230.182 170.507 230.182C174.667 230.182 178.352 227.923 180.372 224.536" stroke="black" stroke-width="3" stroke-miterlimit="10" stroke-linecap="round" stroke-linejoin="round"/>
<path d="M186.679 256.684C186.679 250.43 179.313 245.411 170.269 245.411C161.225 245.411 153.859 250.471 153.859 256.684H186.679Z" fill="white"/>
<path d="M186.679 256.684C186.679 250.43 179.313 245.411 170.269 245.411C161.225 245.411 153.859 250.471 153.859 256.684H186.679Z" stroke="black" stroke-width="3" stroke-miterlimit="10" stroke-linecap="round" stroke-linejoin="round"/>
<path d="M91.5223 169.145C91.5223 169.145 77.6152 168.135 77.6152 182.22C77.6152 197.256 81.1217 206.528 91.5223 206.884V169.145Z" fill="#FFDEC5"/>
<path d="M91.5223 169.145C91.5223 169.145 77.6152 168.135 77.6152 182.22C77.6152 197.256 81.1217 206.528 91.5223 206.884V169.145Z" stroke="black" stroke-width="3" stroke-miterlimit="10" stroke-linecap="round" stroke-linejoin="round"/>
<path d="M247.531 169.145C247.531 169.145 261.438 168.135 261.438 182.22C261.438 197.256 257.931 206.528 247.531 206.884V169.145Z" fill="#FFDEC5"/>
<path d="M247.531 169.145C247.531 169.145 261.438 168.135 261.438 182.22C261.438 197.256 257.931 206.528 247.531 206.884V169.145Z" stroke="black" stroke-width="3" stroke-miterlimit="10" stroke-linecap="round" stroke-linejoin="round"/>
<path d="M321.107 429.694H165.039C159.037 429.694 154.223 424.833 154.223 418.905V416.949C154.223 410.961 159.096 406.159 165.039 406.159H331.924V418.905C331.924 424.892 327.05 429.694 321.107 429.694Z" fill="#313056"/>
<path d="M321.107 429.694H165.039C159.037 429.694 154.223 424.821 154.223 418.878V416.916C154.223 410.914 159.096 406.1 165.039 406.1H331.924V418.878C331.924 424.88 327.05 429.694 321.107 429.694Z" stroke="black" stroke-width="3" stroke-miterlimit="10" stroke-linecap="round" stroke-linejoin="round"/>
<path d="M435.691 429.754H286.636C279.802 429.754 274.691 423.395 276.176 416.738L304.169 291.694C306.487 281.352 315.104 274.042 324.97 274.042H464.754C476.283 274.042 484.782 285.691 482.108 297.756L456.493 412.102C454.175 422.444 445.557 429.754 435.691 429.754Z" fill="#3B3A66"/>
<path d="M442.823 424.286H293.709C286.874 424.286 281.763 417.927 283.249 411.27L311.241 286.226C312.133 282.303 313.916 278.797 316.353 275.944C310.35 278.797 305.774 284.502 304.169 291.634L276.177 416.679C274.691 423.335 279.743 429.694 286.637 429.694H435.692C441.813 429.694 447.459 426.901 451.382 422.325C448.767 423.573 445.854 424.286 442.823 424.286Z" fill="#313056"/>
<path d="M288.182 416.679L316.174 291.634C318.492 281.293 327.11 273.983 336.975 273.983H324.97C315.104 273.983 306.487 281.293 304.169 291.634L276.177 416.679C274.691 423.335 279.743 429.694 286.637 429.694H298.642C291.807 429.754 286.696 423.395 288.182 416.679Z" fill="#313056"/>
<path d="M435.691 429.754H286.636C279.802 429.754 274.691 423.395 276.176 416.738L304.169 291.694C306.487 281.352 315.104 274.042 324.97 274.042H464.754C476.283 274.042 484.782 285.691 482.108 297.756L456.493 412.102C454.175 422.444 445.557 429.754 435.691 429.754Z" stroke="black" stroke-width="3" stroke-miterlimit="10" stroke-linecap="round" stroke-linejoin="round"/>
<path d="M391.653 341.616C391.712 340.665 391.95 339.714 392.188 338.823C391.118 338.526 389.989 338.407 388.859 338.466C381.014 338.763 373.407 346.074 371.862 354.87C370.317 363.665 375.428 370.56 383.273 370.322C390.761 370.084 398.012 363.368 400.033 355.167C394.624 353.205 391.058 347.797 391.653 341.616Z" fill="white"/>
<path d="M384.885 331.985C384.885 331.985 385.866 334.332 383.459 336.648C382.123 337.944 379.777 338.218 378.35 339.793C377.356 340.891 374.885 339.76 375.884 336.446C377.666 330.617 384.498 330.092 384.885 331.985Z" fill="white"/>
<path d="M524.175 51.1467H323.221C307.086 51.1467 293.884 63.6448 293.884 78.9202V182.238C293.884 197.513 307.086 210.011 323.221 210.011H439.536L413.964 256.684L492.184 210.011H524.322C540.457 210.011 553.659 197.513 553.659 182.238V78.9202C553.512 63.6448 540.457 51.1467 524.175 51.1467Z" stroke="black" stroke-width="3" stroke-miterlimit="10" stroke-linecap="round" stroke-linejoin="round"/>
<path d="M148.174 375.947L147.692 379.877H109.681C108.235 379.877 107.109 381.145 107.288 382.592L111.253 423.674C111.414 425.246 112.593 426.532 114.147 426.818L118.612 427.622H112.253H110.735C109.717 427.622 108.86 426.889 108.735 425.889L102.483 375.965H148.174V375.947Z" fill="#51301D"/>
<path d="M108.735 425.871L102.483 375.947H148.174L141.922 425.871C141.797 426.854 140.94 427.604 139.922 427.604H110.717C109.699 427.604 108.86 426.872 108.735 425.871Z" fill="#703D20"/>
<path d="M139.153 427.604L138.439 432.713C138.332 433.481 137.617 434.052 136.76 434.052H113.861C113.003 434.052 112.289 433.481 112.182 432.713L111.467 427.604H139.153Z" fill="#D6D6D4"/>
<path d="M114.379 434.052L112.718 433.624L111.503 427.604H139.153L138.885 429.569H116.058C116.04 429.569 116.04 429.569 116.022 429.569C112.753 429.569 114.379 434.052 114.379 434.052Z" fill="#BABABA"/>
<path d="M139.153 427.604L138.439 432.713C138.332 433.481 137.617 434.052 136.76 434.052H113.861C113.003 434.052 112.289 433.481 112.182 432.713L111.467 427.604H139.153Z" stroke="#33251D" stroke-width="2" stroke-miterlimit="10" stroke-linecap="round" stroke-linejoin="round"/>
<path d="M108.735 425.871L102.483 375.947H148.174L141.922 425.871C141.797 426.854 140.94 427.604 139.922 427.604H110.717C109.699 427.604 108.86 426.872 108.735 425.871Z" stroke="#33251D" stroke-width="2" stroke-miterlimit="10" stroke-linecap="round" stroke-linejoin="round"/>
<path d="M101.5 375.947C117.379 375.947 133.276 375.947 149.156 375.947C150.71 375.965 150.495 375.126 149.959 373.536C149.638 372.589 149.638 371.571 149.959 370.642C150.495 369.035 150.71 368.213 149.156 368.231C133.276 368.231 117.379 368.231 101.5 368.231C99.9461 368.213 100.16 369.053 100.696 370.642C101.018 371.589 101.018 372.607 100.696 373.536C100.16 375.126 99.9461 375.965 101.5 375.947Z" fill="#41332A"/>
<path d="M100.697 370.624C100.357 369.588 100.143 368.874 100.447 368.499C100.518 368.731 100.607 368.999 100.697 369.285C100.929 369.964 100.983 370.696 100.893 371.41C100.84 371.142 100.786 370.892 100.697 370.624Z" fill="#7C7C7C"/>
<path d="M149.763 371.41C149.656 370.696 149.71 369.981 149.96 369.285C150.049 368.999 150.138 368.749 150.21 368.499C150.513 368.874 150.317 369.588 149.96 370.624C149.87 370.892 149.799 371.142 149.763 371.41Z" fill="#7C7C7C"/>
<path d="M100.446 374.304C100.625 374.5 100.946 374.608 101.5 374.608C117.379 374.608 133.276 374.608 149.156 374.608C149.709 374.608 150.031 374.518 150.21 374.304C150.513 375.394 150.442 375.947 149.156 375.947C133.276 375.947 117.379 375.947 101.5 375.947C100.214 375.965 100.143 375.394 100.446 374.304Z" fill="#8B7363"/>
<path d="M100.697 373.536C100.732 373.447 100.75 373.357 100.768 373.268C101 374.107 100.982 375.001 100.714 375.84C100.053 375.572 100.286 374.786 100.697 373.536Z" fill="#646464"/>
<path d="M149.71 372.393C149.531 372.321 148.834 370.589 147.763 370.589C131.883 370.589 118.362 370.589 102.483 370.589C101.197 370.589 100.964 373.197 100.768 373.268C100.768 373.25 100.696 370.642 100.696 370.625C100.161 369.017 99.9462 368.195 101.5 368.213C117.362 368.213 133.241 368.213 149.102 368.213C150.71 368.177 150.495 369.017 149.96 370.625C149.942 370.66 149.727 372.375 149.71 372.393Z" fill="#41332A"/>
<path d="M149.924 375.84C149.656 375.001 149.638 374.107 149.87 373.268C149.888 373.357 149.924 373.447 149.942 373.536C150.371 374.786 150.603 375.572 149.924 375.84Z" fill="#646464"/>
<path d="M101.5 375.947C117.379 375.947 133.276 375.947 149.156 375.947C150.71 375.965 150.495 375.126 149.959 373.536C149.638 372.589 149.638 371.571 149.959 370.642C150.495 369.035 150.71 368.213 149.156 368.231C133.276 368.231 117.379 368.231 101.5 368.231C99.9461 368.213 100.16 369.053 100.696 370.642C101.018 371.589 101.018 372.607 100.696 373.536C100.16 375.126 99.9461 375.965 101.5 375.947Z" stroke="#33251D" stroke-width="2" stroke-miterlimit="10" stroke-linecap="round" stroke-linejoin="round"/>
<path d="M102.876 368.213H147.763L147.316 366.641C146.62 364.141 144.226 362.408 141.493 362.408H109.145C106.412 362.408 104.037 364.141 103.322 366.641L102.876 368.213Z" fill="#D6D6D4"/>
<path d="M102.876 368.213H147.763L147.316 366.641C146.62 364.141 144.226 362.408 141.493 362.408H109.145C106.412 362.408 104.037 364.141 103.322 366.641L102.876 368.213Z" fill="#D6D6D4"/>
<path d="M138.349 364.266L107.716 364.248C105.501 364.248 104.144 365.838 103.518 366.034C104.608 364.409 107.019 362.408 109.127 362.408H141.511C144.244 362.408 146.619 364.141 147.334 366.641L147.78 368.213H143.886C142.94 366.141 140.778 364.266 138.349 364.266Z" fill="white"/>
<path d="M102.876 368.213H147.763L147.316 366.641C146.62 364.141 144.226 362.408 141.493 362.408H109.145C106.412 362.408 104.037 364.141 103.322 366.641L102.876 368.213Z" stroke="#33251D" stroke-width="2" stroke-miterlimit="10" stroke-linecap="round" stroke-linejoin="round"/>
<path d="M111.717 362.408H123.97V361.265C123.97 359.943 122.898 358.853 121.559 358.853H114.11C112.789 358.853 111.699 359.925 111.699 361.265V362.408H111.717Z" fill="#D6D6D4"/>
<path d="M111.717 362.408H123.97V361.265C123.97 359.943 122.898 358.853 121.559 358.853H114.11C112.789 358.853 111.699 359.925 111.699 361.265V362.408H111.717Z" fill="#D6D6D4"/>
<path d="M123.952 362.372C123.952 361.104 122.934 360.086 121.666 360.086H113.985C112.824 360.086 111.86 360.961 111.717 362.087V361.158C111.717 359.89 112.735 358.871 114.003 358.871H121.684C122.952 358.871 123.97 359.89 123.97 361.158V362.408H123.952V362.372Z" fill="white"/>
<path d="M126.775 404.348C128.668 404.348 132.097 403.008 133.187 399.418C134.259 396.489 133.794 393.041 131.99 390.451C130.668 388.558 128.864 387.486 127.042 387.486C126.489 387.486 125.935 387.593 125.399 387.79L125.381 387.808L125.363 387.826C124.988 388.04 124.774 388.29 124.703 388.594C124.595 389.112 124.935 389.594 125.381 390.201C126.274 391.434 127.489 393.113 126.292 396.238C124.899 399.847 124.899 403.276 125.756 404.098C125.935 404.258 126.292 404.348 126.775 404.348Z" fill="#51301D"/>
<path d="M111.717 362.408H123.97V361.265C123.97 359.943 122.898 358.853 121.559 358.853H114.11C112.789 358.853 111.699 359.925 111.699 361.265V362.408H111.717Z" stroke="#33251D" stroke-width="2" stroke-miterlimit="10" stroke-linecap="round" stroke-linejoin="round"/>
<path d="M121.863 404.294C122.56 404.294 123.203 404.026 123.65 403.562C124.025 403.151 124.221 402.633 124.185 402.079C124.096 400.65 124.578 399.293 125.043 397.971C125.471 396.774 125.882 395.631 125.882 394.452C125.9 390.094 122.971 388.719 122.614 388.576C122.381 388.433 122.113 388.361 121.828 388.361C120.667 388.361 119.238 389.504 118.202 391.273C117.505 392.452 115.451 396.685 118.148 401.543C119.13 403.294 120.47 404.294 121.863 404.294Z" fill="#51301D"/>
<path d="M125.346 387.576C123.238 388.772 128.579 390.237 126.435 395.81C124.971 399.614 125.185 402.687 125.81 403.276C126.435 403.866 131.33 403.169 132.687 398.775C134.902 392.738 130.079 385.807 125.346 387.576Z" fill="#F6F9E4"/>
<path d="M122.274 388.361C122.274 388.361 125.364 389.576 125.346 393.934C125.346 396.364 123.471 398.811 123.649 401.579C123.774 403.508 120.47 404.794 118.273 400.847C114.432 393.881 120.148 387.004 122.274 388.361Z" fill="#F6F9E4"/>
<path d="M117.509 420.803C117.086 420.803 116.689 420.75 116.292 420.618C114.969 420.221 113.911 419.136 113.303 417.576C112.641 415.883 112.853 413.74 113.805 411.809C113.409 411.888 113.065 412.1 112.747 412.285C112.403 412.496 112.112 412.655 111.795 412.655C111.61 412.655 111.451 412.602 111.292 412.496C111.001 412.258 110.843 411.835 110.869 411.306C110.896 410.671 111.187 409.798 111.901 409.401C112.165 409.243 112.483 409.163 112.827 409.163C113.514 409.163 114.308 409.481 115.128 409.851C115.922 408.952 116.848 408.343 117.8 408.026C118.329 407.867 118.858 407.761 119.308 407.761C119.996 407.761 120.551 407.973 120.895 408.37C121.689 409.269 121.318 410.883 120.498 411.835C120.101 412.285 119.361 412.84 118.038 412.92C117.959 412.92 117.906 412.92 117.826 412.92C117.324 412.92 116.9 412.814 116.424 412.655C116.292 412.629 116.186 412.576 116.08 412.549C115.578 414.322 115.816 416.226 116.662 416.941C116.927 417.152 117.377 417.39 117.853 417.39C117.959 417.39 118.064 417.39 118.144 417.364C118.17 417.364 118.884 417.179 119.017 416.623C119.096 416.359 119.043 416.015 118.884 415.83C118.779 415.697 118.62 415.644 118.461 415.565C118.302 415.512 117.879 415.327 117.932 414.877C117.985 414.375 118.62 414.137 119.175 414.137C119.334 414.137 119.493 414.163 119.652 414.189C120.868 414.507 121.768 416.226 121.477 417.734C121.239 419.004 120.286 419.692 119.969 419.93C119.281 420.538 118.408 420.803 117.509 420.803ZM117.006 410.803C117.324 410.962 117.535 411.042 117.747 411.042C117.8 411.042 117.853 411.042 117.906 411.042C118.355 410.989 118.884 410.724 119.017 410.301C119.096 410.089 119.07 409.878 119.017 409.851C119.017 409.851 118.937 409.798 118.805 409.798C118.488 409.798 118.091 409.93 117.826 410.089L117.8 410.116C117.509 410.274 117.244 410.512 117.006 410.803Z" fill="#51301D"/>
<path d="M136.873 418.713C136.265 418.713 135.657 418.502 135.313 418.105C134.81 417.576 134.651 416.729 134.837 415.724C135.101 414.454 135.895 413.37 136.847 412.973C137.191 412.841 137.588 412.761 137.958 412.761C138.566 412.761 139.043 412.946 139.36 413.317C139.942 413.978 139.73 414.904 139.651 415.169C139.492 415.724 139.122 416.147 138.672 416.438C138.752 416.518 138.831 416.65 138.831 416.835C138.857 417.205 138.672 417.814 138.249 418.184C137.932 418.528 137.429 418.713 136.873 418.713Z" fill="#51301D"/>
<path d="M132.615 418.607C132.007 418.607 131.478 418.422 131.134 418.078C130.631 417.576 130.446 416.65 130.684 415.592C130.922 414.428 131.689 412.867 133.091 412.285C133.224 412.232 133.7 412.047 134.255 412.047C134.758 412.047 135.181 412.205 135.525 412.47C136.186 413.026 136.292 413.978 136.107 414.639C135.922 415.327 135.419 415.777 134.837 416.068C134.89 416.147 134.969 416.253 134.969 416.438C135.022 416.835 134.811 417.47 134.361 417.919C133.964 418.343 133.303 418.607 132.615 418.607ZM133.964 414.137C133.885 414.163 133.805 414.216 133.7 414.295C133.805 414.242 133.885 414.189 133.964 414.137Z" fill="#51301D"/>
<path d="M126.636 421.226C126.292 421.226 125.949 421.12 125.684 420.935C125.102 420.538 125.128 420.009 125.287 418.078C125.393 416.861 125.552 414.983 125.684 412.073C125.684 411.915 125.71 411.782 125.71 411.624C125.684 411.624 125.684 411.624 125.658 411.624C125.605 411.624 125.525 411.624 125.472 411.624C125.261 411.65 125.049 411.65 124.837 411.65C124.599 411.65 124.388 411.676 124.176 411.703C124.097 411.703 124.017 411.729 123.938 411.729C123.779 411.756 123.647 411.756 123.541 411.756C123.303 411.756 123.118 411.676 122.959 411.518C122.404 410.962 123.012 409.772 123.462 409.322C123.832 408.978 124.335 408.793 124.943 408.793C125.287 408.793 125.684 408.846 126.16 408.952C126.451 408.105 126.874 407.497 127.403 407.126C127.615 406.968 128.197 406.571 128.964 406.571C129.07 406.571 129.176 406.571 129.282 406.597C129.44 406.624 129.943 406.703 130.366 407.1C130.763 407.497 130.869 408.026 130.869 408.396C131.08 408.317 131.292 408.264 131.557 408.264C131.662 408.264 131.742 408.264 131.848 408.29C132.006 408.317 132.456 408.37 132.826 408.767C133.435 409.375 133.276 410.248 133.25 410.407L133.144 410.856C133.223 410.83 133.303 410.777 133.355 410.724C133.514 410.565 133.62 410.327 133.646 409.983L133.726 408.899L135.075 410.169L135.128 410.248C135.366 410.724 135.207 411.333 134.652 412.02C134.255 412.523 133.488 412.761 132.324 412.761C131.98 412.761 131.583 412.735 131.16 412.682C131.001 413.978 131.028 415.406 131.028 415.406C131.054 415.935 131.054 416.438 131.08 416.861C131.16 419.216 131.186 420.168 130.446 420.724C130.181 420.909 129.837 421.015 129.493 421.015C129.176 421.015 128.885 420.935 128.62 420.75C128.356 420.565 128.224 420.38 128.171 420.009C128.065 420.327 127.88 420.565 127.615 420.776C127.403 421.094 127.033 421.226 126.636 421.226ZM128.435 412.206C128.329 413.528 128.356 414.798 128.356 414.798C128.382 415.406 128.382 415.962 128.409 416.465C128.409 416.676 128.435 416.861 128.435 417.047C128.514 416.068 128.594 414.798 128.673 413.105C128.673 412.814 128.7 412.549 128.726 412.285C128.62 412.258 128.541 412.232 128.435 412.206ZM131.848 410.909C132.165 410.962 132.43 411.015 132.641 411.015C132.721 411.015 132.8 411.015 132.879 410.989L132.535 410.803C132.43 410.751 132.324 410.724 132.244 410.724C132.218 410.724 132.192 410.724 132.165 410.724C132.139 410.724 131.98 410.777 131.848 410.909ZM129.255 410.036C129.387 409.719 129.573 409.428 129.758 409.216C129.731 409.216 129.731 409.216 129.705 409.216C129.678 409.216 129.626 409.216 129.599 409.216C129.599 409.216 129.335 409.269 129.07 409.56C129.017 409.613 128.938 409.719 128.858 409.904C128.911 409.904 129.176 410.01 129.255 410.036Z" fill="#51301D"/>
<path d="M123.569 417.946C122.907 417.946 122.405 417.602 122.219 417.47C121.637 416.994 121.294 416.2 121.267 415.248C121.214 414.084 121.637 412.946 122.378 412.232C122.59 412.047 123.198 411.439 123.992 411.439C124.071 411.439 124.151 411.439 124.23 411.465C124.759 411.544 125.235 411.888 125.605 412.47C126.187 413.343 126.373 414.534 126.135 415.539C125.844 416.703 124.865 417.946 123.621 417.973L123.569 417.946ZM123.833 414.296C123.595 414.851 123.648 415.195 123.727 415.274C123.727 415.274 123.754 415.274 123.754 415.301C123.78 415.274 123.833 415.195 123.886 415.063C123.965 414.798 123.912 414.507 123.833 414.296Z" fill="#51301D"/>
<path d="M122.483 412.073C121.266 413.237 121.214 415.644 122.298 416.517C122.378 416.57 122.774 416.914 123.356 416.888C124.362 416.861 125.129 415.75 125.367 414.851C125.737 413.422 124.97 411.624 123.912 411.438C123.25 411.333 122.669 411.888 122.483 412.073ZM124.097 414.692C124.071 414.772 123.912 415.248 123.541 415.301C123.303 415.327 123.118 415.168 123.092 415.142C122.774 414.851 122.801 414.19 123.118 413.475C123.33 413.158 123.489 413.079 123.594 413.105C123.965 413.105 124.362 414.004 124.097 414.692Z" fill="#F6F9E4"/>
<path d="M125.711 419.983C125.155 419.612 125.631 418.766 125.949 411.571C126.028 409.587 126.451 407.788 127.483 407.074C127.695 406.941 128.277 406.518 128.991 406.624C129.15 406.65 129.494 406.703 129.758 406.994C130.261 407.497 130.102 408.264 130.076 408.317C129.917 408.237 129.626 408.105 129.256 408.158C129.256 408.158 128.832 408.237 128.436 408.661C127.43 409.745 127.536 414.295 127.536 414.295C127.642 418.078 127.827 419.401 127.086 419.93C126.742 420.221 126.134 420.247 125.711 419.983Z" fill="#F6F9E4"/>
<path d="M128.726 419.903C128.25 419.586 128.647 418.845 128.938 412.629C129.017 410.909 129.388 409.348 130.261 408.74C130.446 408.608 130.948 408.264 131.557 408.37C131.689 408.396 131.98 408.449 132.245 408.687C132.668 409.11 132.536 409.772 132.509 409.851C132.377 409.772 132.112 409.666 131.795 409.719C131.795 409.719 131.425 409.772 131.081 410.142C130.208 411.094 130.314 415.009 130.314 415.009C130.393 418.29 130.552 419.427 129.917 419.877C129.599 420.115 129.097 420.141 128.726 419.903Z" fill="#F6F9E4"/>
<path d="M133.171 416.412C132.932 416.464 132.615 416.464 132.377 416.306C131.821 415.909 132.007 414.507 132.694 413.687C132.8 413.581 133.409 412.893 133.964 413.078C134.123 413.131 134.334 413.29 134.334 413.475C134.361 413.925 133.435 414.428 132.615 414.48C132.165 414.507 131.795 414.401 131.583 414.322C131.345 414.666 131.372 414.877 131.398 414.957C131.557 415.459 132.694 415.433 132.853 415.406C132.959 415.406 134.943 415.274 135.313 413.925C135.446 413.422 135.366 412.708 134.89 412.285C134.202 411.703 133.144 412.1 133.012 412.179C131.134 412.92 130.287 416.147 131.239 417.099C131.795 417.655 133.091 417.576 133.726 416.967C134.149 416.544 134.255 415.883 134.123 415.803C134.043 415.803 133.779 416.279 133.171 416.412Z" fill="#F6F9E4"/>
<path d="M137.164 416.755C136.952 416.808 136.661 416.808 136.476 416.676C135.973 416.306 136.185 415.062 136.767 414.348C136.846 414.242 137.296 413.687 137.666 413.819C137.852 413.872 137.984 414.084 137.984 414.269C137.957 414.692 137.243 415.009 136.714 415.062C136.317 415.115 135.973 415.009 135.788 414.93C135.577 415.221 135.603 415.433 135.63 415.486C135.762 415.882 136.529 415.935 136.926 415.882C137.614 415.83 138.645 415.406 138.91 414.48C138.936 414.375 139.148 413.607 138.725 413.131C138.248 412.602 137.349 412.708 136.794 412.92C135.233 413.555 134.519 416.279 135.418 417.205C135.947 417.734 137.111 417.787 137.666 417.284C138.063 416.941 138.143 416.332 138.037 416.253C137.931 416.2 137.693 416.623 137.164 416.755Z" fill="#F6F9E4"/>
<path d="M133.963 409.534C133.937 409.878 133.831 410.301 133.514 410.619C131.688 412.365 125.392 407.471 123.62 409.217C123.223 409.587 122.906 410.433 123.117 410.671C123.223 410.777 123.408 410.724 123.885 410.671C124.308 410.619 124.758 410.645 125.181 410.592C126.239 410.486 127.853 411.121 129.519 411.492C129.942 411.571 133.276 412.259 134.069 411.253C134.175 411.121 134.678 410.46 134.466 410.037C134.281 409.851 134.122 409.693 133.963 409.534Z" fill="#F6F9E4"/>
<path d="M115.446 410.195C116.584 410.751 116.954 411.121 117.695 411.042C118.277 410.962 119.044 410.619 119.255 409.931C119.335 409.666 119.388 409.19 119.15 408.952C118.779 408.555 117.853 408.82 117.324 409.084C117.324 409.084 117.298 409.11 117.271 409.11C114.97 410.354 114.256 415.327 116.107 416.888C116.584 417.285 117.324 417.602 118.065 417.417C118.171 417.391 119.097 417.153 119.335 416.306C119.44 415.883 119.361 415.38 119.097 415.036C118.753 414.64 118.25 414.613 118.277 414.481C118.277 414.348 118.832 414.137 119.335 414.269C120.287 414.507 121.001 415.962 120.763 417.206C120.552 418.264 119.731 418.872 119.467 419.057C118.515 419.745 117.271 419.904 116.213 419.586C114.414 419.031 113.727 417.232 113.568 416.861C112.272 413.528 114.705 408.978 117.747 408.026C117.959 407.947 119.599 407.444 120.287 408.211C120.869 408.873 120.552 410.222 119.89 410.962C119.15 411.809 118.091 411.862 117.8 411.888C117.271 411.915 116.875 411.809 116.345 411.65C114.996 411.28 114.917 410.857 114.176 410.724C112.748 410.513 111.848 411.888 111.372 411.544C110.949 411.227 111.134 409.772 111.928 409.322C112.695 408.872 113.965 409.481 115.446 410.195Z" fill="#F6F9E4"/>
<path d="M111.521 336.472C112.914 338.419 114.45 338.902 115.629 341.17C115.951 341.795 116.897 343.617 116.611 345.814C116.236 348.708 114.057 349.458 113.843 352.066C113.754 353.245 114.075 354.674 115.272 356.353" stroke="#33251D" stroke-width="2" stroke-miterlimit="10" stroke-linecap="round" stroke-linejoin="round"/>
<path d="M107.056 327.309C105.966 331.828 106.752 334.615 107.681 336.33C109.378 339.455 112.468 340.67 112.682 343.814C112.789 345.296 112.2 346.547 111.718 347.333" stroke="#33251D" stroke-width="2" stroke-miterlimit="10" stroke-linecap="round" stroke-linejoin="round"/>
<path d="M117.291 338.027C117.291 338.027 119.434 340.527 119.434 342.796" stroke="#33251D" stroke-width="2" stroke-miterlimit="10" stroke-linecap="round" stroke-linejoin="round"/>
</svg>
